<?xml version="1.0" encoding="UTF-8"?>
<svg id="Layer_2" data-name="Layer 2" xmlns="http://www.w3.org/2000/svg" viewBox="0 0 19.63 19.63">
  <defs>
    <style>
      .cls-1 {
        fill: #1c1d1d;
      }
    </style>
  </defs>
  <g id="Layer_1-2" data-name="Layer 1">
    <g>
      <g id="Path_269" data-name="Path 269">
        <path class="cls-1" d="M9.81,12.91c-.22,0-.43-.08-.6-.25l-3.37-3.37c-.33-.33-.33-.86,0-1.19.33-.33.86-.33,1.19,0l2.77,2.77L18.2,2.49c.33-.33.86-.33,1.19,0,.33.33.33.86,0,1.19l-8.98,8.98c-.17.16-.38.25-.6.25Z"/>
      </g>
      <g id="Path_270" data-name="Path 270">
        <path class="cls-1" d="M9.82,19.63h0c-2.62,0-5.09-1.03-6.94-2.88C1.02,14.9,0,12.43,0,9.81,0,4.4,4.41,0,9.82,0h0c1.12,0,2.23.19,3.3.57.44.16.67.64.51,1.08-.16.44-.64.66-1.08.51-.88-.31-1.8-.47-2.73-.48h0C5.33,1.68,1.69,5.33,1.68,9.81c0,2.17.84,4.21,2.38,5.75,1.53,1.54,3.58,2.39,5.75,2.39h0c4.48,0,8.13-3.64,8.13-8.13,0-.46.38-.84.84-.84h0c.46,0,.84.38.84.84,0,5.41-4.41,9.81-9.82,9.81Z"/>
      </g>
    </g>
  </g>
</svg>