<svg xmlns="http://www.w3.org/2000/svg" width="24.668" height="19.306" viewBox="0 0 24.668 19.306">
  <g id="_4737438_equalizer_filter_filtering_mixer_sorting_icon" data-name="4737438_equalizer_filter_filtering_mixer_sorting_icon" transform="translate(-1 -5.999)">
    <path id="Path_325" data-name="Path 325" d="M35.406,11.073A1.073,1.073,0,0,0,34.334,10H23.073a1.073,1.073,0,0,0,0,2.145H34.334A1.073,1.073,0,0,0,35.406,11.073Z" transform="translate(-9.739 -1.855)"/>
    <path id="Path_326" data-name="Path 326" d="M2.073,10.29H4.941a3.218,3.218,0,1,0,0-2.145H2.073a1.073,1.073,0,1,0,0,2.145Zm5.9-2.145A1.073,1.073,0,1,1,6.9,9.217,1.073,1.073,0,0,1,7.971,8.145Z" transform="translate(0 0)"/>
    <path id="Path_327" data-name="Path 327" d="M36.186,20.145H32.244a3.218,3.218,0,1,0,0,2.145h3.941a1.073,1.073,0,1,0,0-2.145ZM29.214,22.29a1.073,1.073,0,1,1,1.073-1.073A1.073,1.073,0,0,1,29.214,22.29Z" transform="translate(-11.59 -5.565)"/>
    <path id="Path_328" data-name="Path 328" d="M12.261,22H2.073a1.073,1.073,0,1,0,0,2.145H12.261a1.073,1.073,0,1,0,0-2.145Z" transform="translate(0 -7.42)"/>
    <path id="Path_329" data-name="Path 329" d="M36.189,34H27.073a1.073,1.073,0,1,0,0,2.145h9.116a1.073,1.073,0,0,0,0-2.145Z" transform="translate(-11.594 -12.985)"/>
    <path id="Path_330" data-name="Path 330" d="M10.116,30a3.218,3.218,0,0,0-3.03,2.145H2.073a1.073,1.073,0,0,0,0,2.145H7.087A3.218,3.218,0,1,0,10.116,30Zm0,4.29a1.073,1.073,0,1,1,1.073-1.073A1.073,1.073,0,0,1,10.116,34.29Z" transform="translate(0 -11.13)"/>
  </g>
</svg>
