<?xml version="1.0" encoding="UTF-8"?>
<svg version="1.1" xmlns="http://www.w3.org/2000/svg" width="24" height="24">
<path d="M0 0 C3 0.25 3 0.25 5 2.25 C5.25 5.25 5.25 5.25 5 8.25 C3 10.25 3 10.25 0 10.5 C-3 10.25 -3 10.25 -5 8.25 C-5.25 5.25 -5.25 5.25 -5 2.25 C-3 0.25 -3 0.25 0 0 Z M-2 3.25 C-2 4.57 -2 5.89 -2 7.25 C-0.68 7.25 0.64 7.25 2 7.25 C2 5.93 2 4.61 2 3.25 C0.68 3.25 -0.64 3.25 -2 3.25 Z " fill="#000000" transform="translate(9,1.75)"/>
<path d="M0 0 C1.08152344 -0.01417969 2.16304687 -0.02835938 3.27734375 -0.04296875 C6.0625 0.1875 6.0625 0.1875 8.0625 2.1875 C8.1875 5.3125 8.1875 5.3125 8.0625 8.1875 C7.4025 8.1875 6.7425 8.1875 6.0625 8.1875 C5.7325 6.5375 5.4025 4.8875 5.0625 3.1875 C1.7625 3.1875 -1.5375 3.1875 -4.9375 3.1875 C-5.2675 4.8375 -5.5975 6.4875 -5.9375 8.1875 C-6.9275 7.8575 -7.9175 7.5275 -8.9375 7.1875 C-6.65624683 0.03957341 -6.65624683 0.03957341 0 0 Z " fill="#000000" transform="translate(8.9375,13.8125)"/>
<path d="M0 0 C3.875 0.875 3.875 0.875 5 2 C5.04092937 4.33297433 5.04241723 6.66705225 5 9 C3.35 9.33 1.7 9.66 0 10 C0 9.01 0 8.02 0 7 C0.66 7 1.32 7 2 7 C2 5.68 2 4.36 2 3 C1.34 3 0.68 3 0 3 C0 2.01 0 1.02 0 0 Z " fill="#000000" transform="translate(15,2)"/>
<path d="M0 0 C3.875 0.875 3.875 0.875 5 2 C5.04080783 3.99958364 5.04254356 6.00045254 5 8 C4.34 8 3.68 8 3 8 C2.67 6.35 2.34 4.7 2 3 C1.34 3 0.68 3 0 3 C0 2.01 0 1.02 0 0 Z " fill="#000000" transform="translate(18,14)"/>
</svg>
