<?xml version="1.0" encoding="UTF-8"?>
<svg version="1.1" xmlns="http://www.w3.org/2000/svg" width="24" height="24">
<path d="M0 0 C0.66 0 1.32 0 2 0 C2 0.99 2 1.98 2 3 C4.31 3 6.62 3 9 3 C9 5.64 9 8.28 9 11 C9.66 11 10.32 11 11 11 C11.33 14.3 11.66 17.6 12 21 C7.37540756 22.17700048 2.92133538 22.11408412 -1.8125 22.0625 C-2.99489258 22.05573242 -2.99489258 22.05573242 -4.20117188 22.04882812 C-6.13414761 22.03711312 -8.06708393 22.01917998 -10 22 C-10.33 21.01 -10.66 20.02 -11 19 C-10.34 19 -9.68 19 -9 19 C-9 16.36 -9 13.72 -9 11 C-8.34 11 -7.68 11 -7 11 C-7 8.36 -7 5.72 -7 3 C-4.69 3 -2.38 3 0 3 C0 2.01 0 1.02 0 0 Z M-4 5 C-4.33 6.65 -4.66 8.3 -5 10 C-4.07767578 9.87431641 -4.07767578 9.87431641 -3.13671875 9.74609375 C-2.32847656 9.64425781 -1.52023438 9.54242187 -0.6875 9.4375 C0.11300781 9.33308594 0.91351563 9.22867187 1.73828125 9.12109375 C4 9 4 9 7 10 C6.67 8.35 6.34 6.7 6 5 C2.7 5 -0.6 5 -4 5 Z M-1 11 C-3.475 12.485 -3.475 12.485 -6 14 C-5.67 15.32 -5.34 16.64 -5 18 C-3.39773045 18.22245393 -1.79303233 18.42746669 -0.1875 18.625 C1.15248047 18.79902344 1.15248047 18.79902344 2.51953125 18.9765625 C5.25690391 19.23500743 5.25690391 19.23500743 8 17 C7.88693303 15.04105639 7.88693303 15.04105639 7 13 C4.50965614 11.70339566 4.50965614 11.70339566 2 11 C2 11.99 2 12.98 2 14 C1.34 14 0.68 14 0 14 C-0.33 13.01 -0.66 12.02 -1 11 Z " fill="#000000" transform="translate(11,1)"/>
</svg>
