<?xml version="1.0" encoding="UTF-8"?>
<svg id="Layer_2" data-name="Layer 2" xmlns="http://www.w3.org/2000/svg" viewBox="0 0 24.7 23.56">
  <g id="Layer_1-2" data-name="Layer 1">
    <path id="Path_220" data-name="Path 220" d="M8.45,7.58l-7.79.86c-.29.03-.53.23-.62.51-.09.28,0,.58.21.77,2.32,2.11,5.8,5.28,5.8,5.28,0,0-.96,4.6-1.59,7.68-.06.28.06.58.29.75.23.17.55.19.8.04,2.73-1.55,6.81-3.88,6.81-3.88l6.81,3.88c.35.2.8.08,1.01-.27.09-.16.12-.34.08-.52-.63-3.07-1.58-7.68-1.58-7.68,0,0,3.48-3.16,5.8-5.27.21-.2.29-.5.21-.78-.09-.28-.33-.47-.62-.5-3.12-.35-7.79-.87-7.79-.87L13.03.43c-.12-.26-.38-.43-.67-.43-.29,0-.55.17-.67.43-1.3,2.86-3.24,7.14-3.24,7.14Z"/>
  </g>
</svg>