<?xml version="1.0" encoding="UTF-8"?>
<svg id="Layer_2" data-name="Layer 2" xmlns="http://www.w3.org/2000/svg" viewBox="0 0 25 22.68">
  <defs>
    <style>
      .cls-1 {
        fill: #1c1d1d;
        fill-rule: evenodd;
      }
    </style>
  </defs>
  <g id="Layer_1-2" data-name="Layer 1">
    <g>
      <path class="cls-1" d="M13.37,16.41v-4.21h7.27c1.12,0,2.03-.91,2.03-2.04v-3.91c1.34-.38,2.33-1.6,2.33-3.06,0-1.77-1.43-3.2-3.2-3.2s-3.2,1.43-3.2,3.2c0,1.46.99,2.68,2.33,3.06v3.91c0,.16-.13.29-.29.29h-7.27v-4.2c1.34-.38,2.33-1.6,2.33-3.06,0-1.77-1.43-3.2-3.2-3.2s-3.2,1.43-3.2,3.2c0,1.46.99,2.68,2.33,3.06v4.2h-7.56v-4.2c1.34-.38,2.33-1.6,2.33-3.06,0-1.77-1.43-3.2-3.2-3.2S0,1.43,0,3.2c0,1.46.99,2.68,2.33,3.06v5.07s0,0,0,0,0,0,0,0v5.08c-1.34.38-2.33,1.6-2.33,3.06,0,1.77,1.43,3.2,3.2,3.2s3.2-1.43,3.2-3.2c0-1.46-.99-2.68-2.33-3.06v-4.21h7.56v4.21c-1.34.38-2.33,1.6-2.33,3.06,0,1.77,1.43,3.2,3.2,3.2s3.2-1.43,3.2-3.2c0-1.46-.99-2.68-2.33-3.06ZM20.35,3.2c0-.8.65-1.45,1.45-1.45.8,0,1.45.65,1.45,1.45,0,.8-.65,1.45-1.45,1.45s-1.45-.65-1.45-1.45ZM11.05,3.2c0-.8.65-1.45,1.45-1.45.8,0,1.45.65,1.45,1.45s-.65,1.45-1.45,1.45-1.45-.65-1.45-1.45ZM1.75,3.2c0-.8.65-1.45,1.45-1.45.8,0,1.45.65,1.45,1.45,0,.8-.65,1.45-1.45,1.45-.8,0-1.45-.65-1.45-1.45ZM4.65,19.48c0,.8-.65,1.45-1.45,1.45s-1.45-.65-1.45-1.45c0-.8.65-1.45,1.45-1.45.8,0,1.45.65,1.45,1.45ZM12.5,20.93c-.8,0-1.45-.65-1.45-1.45,0-.8.65-1.45,1.45-1.45,0,0,0,0,0,0,0,0,0,0,0,0,.8,0,1.45.65,1.45,1.45s-.65,1.45-1.45,1.45Z"/>
      <path class="cls-1" d="M21.8,16.28c-1.77,0-3.2,1.43-3.2,3.2s1.43,3.2,3.2,3.2,3.2-1.43,3.2-3.2-1.43-3.2-3.2-3.2ZM21.8,20.93c-.8,0-1.45-.65-1.45-1.45,0-.8.65-1.45,1.45-1.45.8,0,1.45.65,1.45,1.45,0,.8-.65,1.45-1.45,1.45Z"/>
    </g>
  </g>
</svg>