<?xml version="1.0" encoding="UTF-8"?>
<svg id="Layer_2" data-name="Layer 2" xmlns="http://www.w3.org/2000/svg" viewBox="0 0 25.07 23.91">
  <defs>
    <style>
      .cls-1 {
        fill: #0c3941;
      }
    </style>
  </defs>
  <g id="Layer_1-2" data-name="Layer 1">
    <path class="cls-1" d="M25.07,23.91h-2.17c-.68-5.12-5.07-9.08-10.37-9.08s-9.69,3.96-10.37,9.08H0c.68-6.31,6.05-11.23,12.53-11.23s11.86,4.92,12.54,11.23Z"/>
    <path class="cls-1" d="M12.53,0c-3.06,0-5.56,2.49-5.56,5.56s2.5,5.55,5.56,5.55,5.56-2.49,5.56-5.55S15.59,0,12.53,0ZM12.53,8.96c-1.88,0-3.4-1.53-3.4-3.4s1.52-3.4,3.4-3.4,3.4,1.52,3.4,3.4-1.52,3.4-3.4,3.4Z"/>
  </g>
</svg>