<svg xmlns="http://www.w3.org/2000/svg" xmlns:xlink="http://www.w3.org/1999/xlink" width="28.899" height="29.08" viewBox="0 0 28.899 29.08">
  <defs>
    <clipPath id="clip-path">
      <rect id="Rectangle_701" data-name="Rectangle 701" width="28.899" height="29.08" transform="translate(0 0)" fill="#1d1d1d"/>
    </clipPath>
  </defs>
  <g id="Group_639" data-name="Group 639" clip-path="url(#clip-path)">
    <path id="Path_1087" data-name="Path 1087" d="M0,29.08l2-7.417A14.484,14.484,0,0,1,15.407.022,14.434,14.434,0,1,1,7.543,27.085Zm3.45-3.451,4.5-1.149a12,12,0,1,0-3.319-3.241Z" transform="translate(0 0)" fill="#1d1d1d"/>
    <path id="Path_1088" data-name="Path 1088" d="M160.188,170.858a5.474,5.474,0,0,1,1.29.012.824.824,0,0,1,.3.246,23.728,23.728,0,0,1,1.318,3.04.77.77,0,0,1-.118.823c-.216.379-.842.949-.972,1.267-.145.355.3.911.51,1.214a9.76,9.76,0,0,0,4.144,3.423c.316.135.69.378.993.1l1.324-1.642c.277-.222.671-.027.954.085.95.376,1.834.933,2.766,1.351.226.181.18.645.152.922-.24,2.434-2.994,3.023-5,2.475a14.3,14.3,0,0,1-7.484-5.289c-1.3-1.674-2.582-3.638-1.944-5.866.194-.678,1.029-2.038,1.77-2.164" transform="translate(-151.064 -163.071)" fill="#1d1d1d"/>
  </g>
</svg>
