<?xml version="1.0" encoding="UTF-8"?>
<svg id="Layer_2" data-name="Layer 2" xmlns="http://www.w3.org/2000/svg" xmlns:xlink="http://www.w3.org/1999/xlink" viewBox="0 0 564.65 568.19">
  <defs>
    <style>
      .cls-1 {
        fill: #fff;
      }

      .cls-2 {
        fill: none;
      }

      .cls-3 {
        clip-path: url(#clippath);
      }
    </style>
    <clipPath id="clippath">
      <rect class="cls-2" width="564.65" height="568.19"/>
    </clipPath>
  </defs>
  <g id="Layer_1-2" data-name="Layer 1">
    <g class="cls-3">
      <g id="Group_640" data-name="Group 640">
        <path id="Path_1089" data-name="Path 1089" class="cls-1" d="M0,568.19l39.08-144.92C-38.41,287.53,8.81,114.68,144.55,37.19,192.06,10.07,246.41-2.7,301.03.43c155.43,10.03,273.31,144.16,263.28,299.59-10.03,155.43-144.16,273.31-299.59,263.28-41.14-2.65-81.19-14.29-117.34-34.1L0,568.19ZM67.41,500.76l87.92-22.45c108.39,70.86,253.69,40.43,324.55-67.96,70.86-108.39,40.43-253.69-67.96-324.55C303.54,14.95,158.23,45.38,87.38,153.76c-52.06,79.64-50.84,182.84,3.11,261.22l-23.08,85.78Z"/>
        <path id="Path_1090" data-name="Path 1090" class="cls-1" d="M178.27,152.15c8.38-.92,16.84-.84,25.2.23,2.31,1.11,4.32,2.76,5.86,4.81,9.96,19.18,18.56,39.02,25.75,59.4,2.44,5.35,1.54,11.63-2.31,16.08-4.22,7.41-16.45,18.54-18.99,24.76-2.83,6.94,5.86,17.8,9.96,23.72,20.2,29.43,48.25,52.6,80.97,66.88,6.17,2.64,13.48,7.39,19.4,1.95l25.87-32.08c5.41-4.34,13.11-.53,18.64,1.66,18.56,7.35,35.83,18.23,54.04,26.4,4.42,3.54,3.52,12.6,2.97,18.01-4.69,47.56-58.5,59.07-97.69,48.36-58.76-17.47-110.14-53.79-146.23-103.34-25.4-32.71-50.45-71.08-37.98-114.61,3.79-13.25,20.11-39.82,34.58-42.28"/>
      </g>
    </g>
  </g>
</svg>