<svg id="Group_190" data-name="Group 190" xmlns="http://www.w3.org/2000/svg" xmlns:xlink="http://www.w3.org/1999/xlink" width="97.32" height="108.82" viewBox="0 0 97.32 108.82">
  <defs>
    <clipPath id="clip-path">
      <path id="Path_76" data-name="Path 76" d="M125.393,190.53a.079.079,0,0,0,0-.008.049.049,0,0,1,.006.011s-.006,0-.007,0a.009.009,0,0,1,0-.006m-4.069-16.186.006,0,0,0s0,0,0,0Zm-4.488-1.872h0l0,0s0,0-.007,0,0,0,0-.006m5.491-5.063h0a.027.027,0,0,1,0,.007s0,0-.009,0a.041.041,0,0,1,0-.013m2.754-3.35v0l0,0h0m2.459-2.866c-.53.173-1.069.348-1.377.447a.264.264,0,0,0-.03.009l-1.617.514-.033.012c-1.768.558-3.5,1.108-5.217,1.695-.178.061-.354.12-.53.182-1.832.637-3.638,1.319-5.426,2.1-.464.17-1.438.619-2.236,1-.658.308-1.2.569-1.231.581-.526.194-1.047.428-1.57.65q-2.395,1.029-4.752,2.281c-.587.312-1.168.632-1.751.964q-2.861,1.631-5.652,3.58a64.241,64.241,0,0,0-7.659,6.151c-4.011,3.8-7.484,9.093-10.776,14.356-3.025,4.833-6.067,9.642-9.177,14.33L66.9,212.1l2.26.015h0l2.481.018h.006c2.233-.138,4.3-2.017,5.536-5.061,1.419-3.489,2.761-7.1,4.245-10.515A42.22,42.22,0,0,1,89.27,184.9,57.649,57.649,0,0,1,104.1,173.356c1.364-.773,2.739-1.508,4.122-2.219.936-.478,1.965-.609,2.5.721.936,2.3,9.753,24.589,13.867,34.991a8.274,8.274,0,0,0,7.662,5.3h17.537l-7.963-19.988-2.542-6.251-1.691-4.16h0l-.034-.085-.041-.1v0l-1.693-4.16-.107-.264-.224-.551-.093-.227-.133-.329h0a.005.005,0,0,1,0,0l-2.126-5.227-.446-1.1-.582-1.427-.342-.843-.7-1.729-.046-.115-.659-1.626-.44-1.08-.277-.686a1.716,1.716,0,0,0-1.585-1.087,1.686,1.686,0,0,0-.521.084" transform="translate(-66.902 -161.108)" fill="none"/>
    </clipPath>
    <radialGradient id="radial-gradient" cx="0.599" cy="0.405" r="0.432" gradientUnits="objectBoundingBox">
      <stop offset="0" stop-color="#bc7f4f"/>
      <stop offset="0.998" stop-color="#320d11"/>
      <stop offset="1" stop-color="#320d11"/>
    </radialGradient>
    <clipPath id="clip-path-2">
      <path id="Path_77" data-name="Path 77" d="M119.484,246.674c-.261-.289-.517-.585-.771-.886.253.3.509.6.771.886" transform="translate(-118.713 -245.788)" fill="none"/>
    </clipPath>
    <linearGradient id="linear-gradient" x1="-32.551" y1="64.169" x2="-32.277" y2="64.169" gradientUnits="objectBoundingBox">
      <stop offset="0" stop-color="#c98d5b"/>
      <stop offset="0.002" stop-color="#c98d5b"/>
      <stop offset="0.487" stop-color="#b87242"/>
      <stop offset="1" stop-color="#664626"/>
    </linearGradient>
    <clipPath id="clip-path-3">
      <path id="Path_78" data-name="Path 78" d="M163.381,77.467l.028-.021v0l-.028.024" transform="translate(-163.381 -77.443)" fill="none"/>
    </clipPath>
    <linearGradient id="linear-gradient-2" x1="-1228.328" y1="3901.97" x2="-1220.81" y2="3901.97" xlink:href="#linear-gradient"/>
    <clipPath id="clip-path-4">
      <path id="Path_79" data-name="Path 79" d="M145.875,135.561c.1-.153.2-.3.3-.46-.1.156-.2.308-.3.46" transform="translate(-145.875 -135.101)" fill="none"/>
    </clipPath>
    <linearGradient id="linear-gradient-3" x1="-102.585" y1="174.261" x2="-101.881" y2="174.261" xlink:href="#linear-gradient"/>
    <clipPath id="clip-path-5">
      <path id="Path_80" data-name="Path 80" d="M186.467,127.66c.013-.013.026-.027.041-.04h0a.047.047,0,0,1,0-.013Z" transform="translate(-186.467 -127.605)" fill="none"/>
    </clipPath>
    <linearGradient id="linear-gradient-4" x1="-832.504" y1="1499.475" x2="-828.039" y2="1499.475" xlink:href="#linear-gradient"/>
    <clipPath id="clip-path-6">
      <path id="Path_81" data-name="Path 81" d="M186.467,127.656c.013-.013.027-.027.042-.04h0a.063.063,0,0,1,0-.015Z" transform="translate(-186.467 -127.601)" fill="none"/>
    </clipPath>
    <linearGradient id="linear-gradient-5" x1="-832.502" y1="1487.867" x2="-828.04" y2="1487.867" xlink:href="#linear-gradient"/>
    <clipPath id="clip-path-7">
      <path id="Path_82" data-name="Path 82" d="M244.454,136.294l.108-.062-.028-.1Z" transform="translate(-244.454 -136.13)" fill="none"/>
    </clipPath>
    <linearGradient id="linear-gradient-6" x1="-477.441" y1="486.909" x2="-475.488" y2="486.909" xlink:href="#linear-gradient"/>
    <clipPath id="clip-path-8">
      <path id="Path_83" data-name="Path 83" d="M212.066,171.654a1.155,1.155,0,0,0,.127,0c-.042,0-.085,0-.127,0" transform="translate(-212.066 -171.654)" fill="none"/>
    </clipPath>
    <linearGradient id="linear-gradient-7" x1="-352.847" y1="31116.5" x2="-351.183" y2="31116.5" xlink:href="#linear-gradient"/>
    <clipPath id="clip-path-9">
      <path id="Path_84" data-name="Path 84" d="M258.7,146.83c-.065-.129-.132-.259-.2-.385.071.126.139.256.2.385" transform="translate(-258.494 -146.445)" fill="none"/>
    </clipPath>
    <linearGradient id="linear-gradient-8" x1="-267.313" y1="202.206" x2="-266.278" y2="202.206" xlink:href="#linear-gradient"/>
    <clipPath id="clip-path-11">
      <path id="Path_86" data-name="Path 86" d="M145.874,135.563c.105-.151.2-.3.3-.459q-.145.233-.3.459" transform="translate(-145.874 -135.104)" fill="none"/>
    </clipPath>
    <linearGradient id="linear-gradient-10" x1="-102.583" y1="174.74" x2="-101.879" y2="174.74" xlink:href="#linear-gradient"/>
    <clipPath id="clip-path-12">
      <path id="Path_87" data-name="Path 87" d="M163.38,77.47l.028-.022v0l-.028.024" transform="translate(-163.38 -77.446)" fill="none"/>
    </clipPath>
    <linearGradient id="linear-gradient-11" x1="-1228.603" y1="3868.213" x2="-1221.084" y2="3868.213" xlink:href="#linear-gradient"/>
    <clipPath id="clip-path-13">
      <path id="Path_88" data-name="Path 88" d="M31.917,328.392h0c.974.917,1.994,1.783,3.047,2.605a60.6,60.6,0,0,0,7.668,5.045l1.437-2.12c-.221-.108-.444-.212-.67-.309a44.2,44.2,0,0,1-7.339-4.087q-1.806-1.242-3.49-2.656Z" transform="translate(-31.917 -326.872)" fill="none"/>
    </clipPath>
    <linearGradient id="linear-gradient-12" x1="-0.556" y1="4.326" x2="-0.538" y2="4.326" xlink:href="#linear-gradient"/>
    <clipPath id="clip-path-14">
      <path id="Path_89" data-name="Path 89" d="M36.608,319.986c.034.031.07.061.1.092.109.095.219.189.33.283.071.061.142.121.215.181a.665.665,0,0,0,.055.046.033.033,0,0,0,.015.012l.178.148c.108.09.218.179.327.267.133.107.267.213.4.317.1.08.206.16.309.237q.2.151.4.3c.1.071.192.141.289.209s.216.154.326.229c.086.061.173.121.262.179s.176.117.264.175c0,0,0,0,0,0a.054.054,0,0,0,.016.01l.115.077.133.086c.132.086.265.169.4.252.093.058.188.116.284.172.067.041.133.081.2.12.163.1.326.19.492.281.1.056.2.113.305.166.034.019.068.037.1.055.111.059.223.119.336.175l.172.086q.18.093.363.179c1.788.853,3.525,1.78,5.228,2.76l1.189-1.757c-.7-.31-1.4-.613-2.1-.921q-.782-.342-1.561-.693c-.209-.093-.418-.19-.627-.284l-.544-.252c-.182-.084-.363-.169-.543-.255-.16-.076-.322-.151-.481-.228q-.571-.273-1.138-.555c-.138-.067-.273-.135-.409-.2-.16-.08-.32-.16-.478-.243-.133-.068-.268-.136-.4-.207q-.3-.158-.609-.32t-.6-.324c-.092-.05-.182-.1-.274-.151q-.464-.253-.924-.518c-.185-.105-.367-.215-.547-.326q-.136-.082-.267-.169c-.058-.036-.114-.073-.17-.111s-.138-.09-.206-.138q-.258-.175-.506-.357Z" transform="translate(-36.608 -319.065)" fill="none"/>
    </clipPath>
    <linearGradient id="linear-gradient-13" x1="-0.604" y1="5.157" x2="-0.588" y2="5.157" xlink:href="#linear-gradient"/>
    <clipPath id="clip-path-15">
      <path id="Path_90" data-name="Path 90" d="M30.411,340.136c.245.241.49.483.738.72.2.2.406.391.61.584.314.3.633.592.952.884l.4.36c.078.073.159.144.239.213l.16.142.019.018c.175.154.351.307.527.459.209.181.421.361.632.539l.031.027c.2.169.406.338.61.5.178.147.357.29.536.433.093.076.188.151.284.225s.172.136.259.2.2.157.3.234h0c.194.148.388.3.585.441q.333.249.672.493t.681.483c.2.139.4.276.6.41.053.037.105.073.159.107.209.142.421.28.632.418l.9-1.324c-.222-.125-.443-.252-.664-.379-.053-.03-.105-.061-.158-.092-.136-.078-.274-.158-.409-.24a.035.035,0,0,1-.015-.009c-.086-.05-.172-.1-.258-.152q-.366-.218-.732-.441c-.221-.136-.441-.272-.661-.412-.194-.121-.388-.246-.581-.37l-.013-.009q-.165-.1-.327-.213c-.117-.076-.232-.151-.347-.23s-.249-.164-.373-.25c-.076-.049-.151-.1-.227-.154-.116-.078-.231-.157-.347-.239a.387.387,0,0,1-.036-.024c-.148-.1-.3-.207-.444-.312l-.321-.23c-.135-.1-.27-.2-.4-.295-.462-.339-.921-.687-1.373-1.044l-.006,0q-.324-.255-.647-.52l0,0c-.123-.1-.246-.2-.367-.3s-.247-.206-.371-.311c-.157-.133-.314-.268-.469-.4-.076-.065-.151-.132-.225-.2a.207.207,0,0,1-.029-.025q-.222-.2-.44-.4Z" transform="translate(-30.411 -339.449)" fill="none"/>
    </clipPath>
    <linearGradient id="linear-gradient-14" x1="-0.611" y1="4.312" x2="-0.591" y2="4.312" xlink:href="#linear-gradient"/>
    <clipPath id="clip-path-16">
      <path id="Path_91" data-name="Path 91" d="M26.791,347.482l-.2.386c.635.624,1.265,1.252,1.9,1.878,1.038,1.032,2.078,2.062,3.144,3.06,1.24,1.164,2.457,2.4,3.765,3.481l1.207-1.782c-1.783-1.235-3.552-2.5-5.236-3.856q-1.1-.891-2.17-1.825-1.1-.958-2.155-1.961Z" transform="translate(-26.588 -346.864)" fill="none"/>
    </clipPath>
    <linearGradient id="linear-gradient-15" x1="-0.562" y1="3.762" x2="-0.54" y2="3.762" xlink:href="#linear-gradient"/>
    <clipPath id="clip-path-17">
      <path id="Path_92" data-name="Path 92" d="M22.753,355.8l-.276.564c.013.013.027.027.04.042q.3.3.588.609.315.326.622.657c.118.123.234.247.348.373q.251.269.495.539c.155.17.311.342.464.514l0,0c.153.17.3.342.453.514s.277.318.413.478c.163.189.324.379.484.572.044.052.087.105.13.157.225.271.447.542.668.818.115.144.231.289.345.436s.23.292.342.438a11.614,11.614,0,0,0,2.819,2.733l.957-1.411c-1.161-.932-2.275-1.93-3.352-2.953q-.345-.329-.687-.664c-.114-.11-.227-.221-.341-.335-.624-.612-1.241-1.234-1.856-1.859-.078-.08-.157-.158-.234-.238-.168-.17-.335-.339-.5-.51-.587-.6-1.173-1.2-1.763-1.786Z" transform="translate(-22.477 -355.491)" fill="none"/>
    </clipPath>
    <linearGradient id="linear-gradient-16" x1="-0.518" y1="3.447" x2="-0.495" y2="3.447" xlink:href="#linear-gradient"/>
    <clipPath id="clip-path-18">
      <path id="Path_93" data-name="Path 93" d="M17.513,364.985c.416.433.828.872,1.231,1.32a42.221,42.221,0,0,1,3.159,3.964,13.749,13.749,0,0,0,1.293,1.57h2.275a14.706,14.706,0,0,1-2.758-2.871A44.7,44.7,0,0,0,19.6,365.23q-.715-.78-1.458-1.532Z" transform="translate(-17.513 -363.698)" fill="none"/>
    </clipPath>
    <linearGradient id="linear-gradient-17" x1="-0.465" y1="3.917" x2="-0.439" y2="3.917" xlink:href="#linear-gradient"/>
    <clipPath id="clip-path-19">
      <path id="Path_94" data-name="Path 94" d="M176.659,170.852a4.226,4.226,0,0,0,1.592,3.9c.09.08.181.157.271.23.041.036.083.068.126.1s.1.081.151.121.1.077.154.113.08.058.12.084q.435-.8.828-1.539a.2.2,0,0,1-.028-.022c-.065-.051-.13-.105-.191-.16s-.115-.1-.172-.158a.052.052,0,0,1-.013-.012c-.053-.05-.1-.1-.154-.154a.259.259,0,0,0-.034-.035l-.092-.1c-.073-.08-.142-.166-.21-.253-.024-.028-.047-.059-.068-.087l-.019-.026c-.036-.046-.07-.095-.1-.142-.013-.018-.027-.038-.04-.056l-.08-.123c-.021-.031-.041-.062-.059-.095s-.033-.052-.047-.076c-.062-.1-.121-.212-.177-.323-.021-.037-.04-.077-.061-.117-.036-.071-.07-.145-.105-.222-.025-.058-.05-.114-.074-.175s-.05-.124-.074-.188c-.012-.03-.024-.058-.034-.086l-.031-.092c-.015-.036-.027-.073-.038-.111-.021-.059-.041-.123-.061-.187-.027-.084-.052-.175-.076-.264l0-.018c-.024-.087-.046-.176-.067-.265a.03.03,0,0,1,0-.011q-.069-.287-.116-.6c-.01-.058-.021-.117-.028-.178-.006-.037-.012-.074-.016-.111l-.013-.111c-.009-.076-.018-.151-.025-.227-.046-.469-.166-.93-.253-1.4l-.4-.007c-.091,1.061-.151,2.123-.28,3.176" transform="translate(-176.621 -167.676)" fill="none"/>
    </clipPath>
    <linearGradient id="linear-gradient-18" x1="-10.816" y1="9.495" x2="-10.754" y2="9.495" xlink:href="#linear-gradient"/>
    <clipPath id="clip-path-20">
      <path id="Path_95" data-name="Path 95" d="M201.157,149.724l0,.107a0,0,0,0,0,0,0,.288.288,0,0,0,0,.036c0,.08.012.158.024.235,0,.018.006.039.009.058a3.2,3.2,0,0,0,.076.338c0,.016.009.034.015.052s.019.065.031.1.022.064.034.095.018.047.028.071a.005.005,0,0,0,0,0,.843.843,0,0,0,.034.082l.013.031a.308.308,0,0,0,.015.031.109.109,0,0,0,.009.018c.01.022.019.042.03.062s.025.049.037.073l.056.1c.013.021.025.043.038.064a.47.47,0,0,0,.038.062c.009.013.018.028.028.041.028.044.059.089.092.13s.043.056.065.085a.314.314,0,0,0,.028.033c.028.034.056.065.084.1s.037.039.055.058.037.038.056.056q.057.056.116.107c.021.019.04.036.061.052s.04.033.061.047l.973-2.339.813-1.946.059-.142a.914.914,0,0,0-.085-.047c-.022-.012-.044-.022-.066-.033a1.117,1.117,0,0,0-.144-.062l-.036-.015-.018-.006c-.025-.009-.049-.018-.074-.025s-.068-.021-.1-.028a2,2,0,0,0-.207-.042l-.1-.01c-.016,0-.031,0-.048,0l-.111,0a2.364,2.364,0,0,0-2,2.379" transform="translate(-201.156 -147.345)" fill="none"/>
    </clipPath>
    <linearGradient id="linear-gradient-19" x1="-14.137" y1="16.518" x2="-14.067" y2="16.518" xlink:href="#linear-gradient"/>
    <clipPath id="clip-path-21">
      <path id="Path_96" data-name="Path 96" d="M194.171,153.309a5.122,5.122,0,0,0-.05.717c0,.05,0,.1,0,.145,0,.018,0,.036,0,.055,0,.052,0,.107.009.157s.007.105.013.156c0,.031.008.064.012.093a4.779,4.779,0,0,0,.194.886c.009.028.019.058.028.087s.024.068.037.1l.03.08c.006.015.012.031.019.047.013.033.027.067.04.1a4.524,4.524,0,0,0,.579.989,1.174,1.174,0,0,0,.086.105c.028.036.058.071.089.105l.049.056a.1.1,0,0,0,.018.018l.08.086c.047.047.095.093.143.139.295-.577.536-1.059.719-1.428-.033-.025-.065-.049-.1-.074s-.044-.034-.065-.054a.618.618,0,0,1-.059-.049l-.007-.006a.784.784,0,0,1-.076-.07c-.026-.024-.055-.049-.081-.076s-.059-.063-.09-.1-.062-.069-.092-.107-.077-.093-.113-.141-.047-.062-.068-.095c-.007-.012-.015-.021-.022-.034-.022-.031-.044-.064-.064-.095l-.015-.025c-.021-.033-.039-.065-.056-.1-.034-.056-.065-.116-.093-.175a.093.093,0,0,0-.012-.024c-.012-.027-.024-.049-.034-.074s-.015-.036-.022-.05c-.021-.05-.041-.1-.061-.154s-.03-.083-.043-.124a.579.579,0,0,1-.019-.065s0,0,0-.007l-.006-.021c-.01-.035-.021-.071-.03-.107-.013-.053-.027-.1-.036-.158a14.06,14.06,0,0,1-.05-2.683,8.822,8.822,0,0,0-.785,1.962" transform="translate(-194.121 -151.346)" fill="none"/>
    </clipPath>
    <linearGradient id="linear-gradient-20" x1="-19.105" y1="12.617" x2="-19.006" y2="12.617" xlink:href="#linear-gradient"/>
    <clipPath id="clip-path-22">
      <path id="Path_97" data-name="Path 97" d="M203.468,137.489l-.067,0a1.122,1.122,0,0,0-.123.015c-.036,0-.071.009-.1.015l-.1.018-.019,0c-.034.008-.068.015-.1.025s-.074.019-.111.03-.073.022-.11.036-.1.034-.145.053a.728.728,0,0,0-.074.031c-.024.009-.049.021-.073.031l-.1.046-.1.05c-.1.052-.193.108-.289.172a5.108,5.108,0,0,0-.769.622l-.095.095c-.046.047-.095.1-.142.148s-.095.1-.142.157-.095.108-.141.164-.095.113-.142.173c.105-.038.207-.074.31-.107s.2-.065.3-.093a5.908,5.908,0,0,1,1.632-.256c.108,0,.213,0,.317.012.062,0,.123.012.184.021.042,0,.08.01.118.016s.091.016.135.025l.03.007c.041.009.083.018.123.03s.093.025.139.04a1,1,0,0,1,.133.046l.612-1.464-.059-.021c-.061-.021-.12-.039-.179-.055-.04-.011-.078-.021-.117-.028a2.48,2.48,0,0,0-.486-.065l-.107,0c-.049,0-.1,0-.147,0" transform="translate(-200.528 -137.485)" fill="none"/>
    </clipPath>
    <linearGradient id="linear-gradient-21" x1="-10.513" y1="42.092" x2="-10.46" y2="42.092" xlink:href="#linear-gradient"/>
    <clipPath id="clip-path-23">
      <path id="Path_98" data-name="Path 98" d="M164.872,14.022c-.354.034-.71.073-1.064.114a5.591,5.591,0,0,1-.635,1.216c-.1.151-.2.3-.305.456q.24-.026.485-.046a25.245,25.245,0,0,1,5.031.052,21.1,21.1,0,0,1,4.168.907,23.778,23.778,0,0,0,8.983,1.043,54.029,54.029,0,0,1,5.406,0,7.154,7.154,0,0,1,5.171,2.506q2.419,2.668,4.851,5.332l-.68-1.629-.92-2.269c-.307-.364-.619-.726-.939-1.077-4-4.4-5.024-4.756-11-4.135-.165.016-.329.027-.489.058a17.911,17.911,0,0,1-8.515-.513c-2.047-.588-4.076-1.253-6.147-1.742a11.647,11.647,0,0,0-1.432-.246,10.171,10.171,0,0,0-1.113-.063c-.288,0-.574.013-.855.04" transform="translate(-162.868 -13.982)" fill="none"/>
    </clipPath>
    <linearGradient id="linear-gradient-22" x1="-1.01" y1="9.114" x2="-1.004" y2="9.114" xlink:href="#linear-gradient"/>
    <clipPath id="clip-path-24">
      <path id="Path_99" data-name="Path 99" d="M53.364,271.356l-.27,1.409-.206.4c.074.092.15.184.228.274.033.038.065.077.1.116q.26.3.545.588c.071.071.142.141.215.21s.144.138.218.2c.013.014.027.025.04.037l.185.164c.075.067.153.132.229.2a11.814,11.814,0,0,0,.992.742c.086.058.172.114.259.17.056.037.114.073.172.108.289.179.591.351.905.512.062.033.126.065.189.1q.383.191.79.366l.235.1a64.14,64.14,0,0,1,7.862,3.822L67.2,279.18a47.084,47.084,0,0,0-5.593-2.971q-.471-.211-.915-.437c-.056-.028-.111-.056-.166-.086,0,0-.006,0-.009,0-.073-.037-.144-.076-.215-.114-.1-.055-.207-.113-.31-.17-.046-.025-.09-.05-.135-.077a.168.168,0,0,1-.031-.018c-.081-.046-.163-.093-.243-.142,0,0,0,0-.007,0-.062-.035-.123-.074-.184-.111l-.115-.072c-.139-.085-.275-.173-.412-.265-.068-.045-.135-.089-.2-.136s-.133-.09-.2-.137q-.251-.176-.489-.36t-.453-.359c-.037-.03-.073-.061-.109-.092-.095-.078-.187-.158-.279-.24-.041-.035-.081-.071-.121-.108s-.081-.073-.121-.111c-.176-.16-.348-.326-.514-.495-.061-.061-.122-.123-.179-.185q-.26-.269-.5-.546c-.075-.086-.149-.172-.221-.259q-.4-.487-.764-1.006c-.059-.084-.118-.17-.175-.256q-.166-.247-.32-.5c-.022-.036-.044-.071-.065-.107a.078.078,0,0,1-.012-.019Z" transform="translate(-52.889 -269.789)" fill="none"/>
    </clipPath>
    <linearGradient id="linear-gradient-23" x1="-0.782" y1="4.669" x2="-0.767" y2="4.669" xlink:href="#linear-gradient"/>
    <clipPath id="clip-path-25">
      <path id="Path_100" data-name="Path 100" d="M88.144,193.536l-.327.179q.036.164.076.329l.04.164q.018.082.04.164c.027.108.055.218.083.326.04.154.081.308.125.461s.087.305.132.456a.021.021,0,0,0,0,.009q.06.2.124.4c.025.079.05.157.077.236.031.1.064.192.1.289.154.452.32.9.5,1.335q.093.229.193.453c.049.114.1.225.151.338a.015.015,0,0,0,.006.012c.03.065.059.131.09.2,0,0,0,0,0,0,.053.115.108.231.165.345.069.144.142.286.215.427.04.077.08.154.121.231s.078.145.118.216c.107.2.219.392.335.586.054.089.107.178.162.267.086.141.175.28.264.419.061.093.122.185.184.277s.126.184.19.275c.033.046.064.092.1.136.078.111.16.222.241.333a.016.016,0,0,0,.006.007c.083.113.169.224.255.336q.1.127.2.253c.074.092.148.182.224.274q.262.313.539.619c.078.087.158.175.24.261s.178.187.268.278.182.185.275.277c.123.123.249.243.378.363.108.1.218.2.329.3q.129.116.262.231.2.175.41.347,2.131,1.751,4.371,3.378.483-.749.952-1.471c-.155-.123-.309-.247-.463-.373-.136-.111-.273-.224-.407-.338-.077-.064-.153-.128-.23-.194s-.176-.15-.265-.227c-.059-.05-.117-.1-.176-.154-.259-.225-.515-.455-.77-.692-.064-.056-.129-.116-.193-.178a.623.623,0,0,1-.049-.045c-.044-.04-.089-.081-.133-.126a.354.354,0,0,1-.036-.033c-.145-.136-.289-.274-.433-.415a.065.065,0,0,1-.015-.015c-.089-.084-.178-.172-.265-.259s-.176-.173-.262-.262-.173-.173-.258-.262a.035.035,0,0,1-.01-.01c-.071-.071-.139-.142-.209-.215-.049-.049-.1-.1-.144-.151-.12-.124-.237-.25-.354-.376l-.08-.086c-.059-.064-.117-.127-.173-.191a.61.61,0,0,1-.059-.064c-.016-.015-.03-.031-.044-.047s-.008-.007-.009-.012c-.067-.071-.13-.142-.193-.213-.262-.29-.518-.587-.771-.886q-.411-.486-.81-.988c-.027-.034-.055-.068-.08-.1-.12-.15-.237-.3-.354-.452-.077-.1-.152-.2-.227-.3s-.139-.191-.208-.287c-.053-.077-.107-.155-.158-.234-.033-.047-.065-.1-.1-.145-.061-.089-.118-.179-.175-.269s-.127-.2-.188-.307-.107-.178-.158-.268l-.046-.08-.111-.2c-.021-.037-.042-.074-.062-.113-.055-.1-.11-.2-.161-.307s-.107-.207-.159-.313a.2.2,0,0,1-.012-.024c-.054-.107-.1-.215-.154-.323s-.1-.221-.152-.333-.1-.224-.145-.336c-.04-.092-.078-.185-.115-.279-.025-.061-.049-.12-.073-.181-.037-.093-.074-.188-.108-.281-.08-.207-.155-.416-.228-.626-.04-.115-.078-.231-.117-.348q-.047-.138-.089-.276c-.025-.078-.05-.157-.072-.235-.113-.36-.215-.723-.31-1.087-.029-.111-.059-.222-.086-.335-.036-.135-.068-.27-.1-.406s-.065-.271-.095-.406-.061-.272-.09-.409c-.056-.258-.108-.515-.159-.773-.044-.222-.086-.447-.127-.671,0-.013,0-.028-.007-.043-.268,1.518-.621,3.047-.975,3.239" transform="translate(-87.817 -190.297)" fill="none"/>
    </clipPath>
    <linearGradient id="linear-gradient-24" x1="-1.482" y1="3.603" x2="-1.465" y2="3.603" xlink:href="#linear-gradient"/>
    <clipPath id="clip-path-26">
      <path id="Path_101" data-name="Path 101" d="M78.627,208.9l-.585,1.4-.259.621a15.24,15.24,0,0,0,4.546,8.586q.355.315.712.627c.126.111.253.221.381.332q.318.278.638.551c.093.081.188.161.283.241a.019.019,0,0,0,.01.009.475.475,0,0,0,.044.038c.076.065.151.131.228.193,0,0,0,0,0,0s0,.006.006.006a.319.319,0,0,0,.043.037c.1.084.2.167.295.249.076.065.15.127.225.19l.169.141a.282.282,0,0,0,.041.034c.151.127.3.253.453.376s.3.25.453.373q.32.265.643.521.135.111.271.218.451.364.907.72.5.391.994.773c.333.256.666.509,1,.761q.4-.627.8-1.238-2.091-1.52-4.078-3.223-.254-.217-.5-.441c-.116-.1-.231-.209-.344-.314L86,220.675c-.1-.09-.192-.181-.287-.272l0,0c-.121-.117-.243-.237-.361-.357-.2-.2-.4-.41-.594-.621-.059-.062-.116-.123-.17-.185a.219.219,0,0,1-.023-.027c-.047-.05-.093-.1-.136-.153a.469.469,0,0,1-.043-.049c-.053-.059-.105-.117-.154-.176-.087-.1-.172-.2-.255-.3s-.151-.179-.224-.271-.148-.182-.219-.275-.129-.163-.191-.246l-.031-.04c-.074-.095-.145-.191-.216-.287s-.159-.218-.236-.327c-.054-.074-.105-.147-.154-.221-.067-.095-.132-.19-.2-.286-.1-.153-.2-.308-.3-.464-.068-.107-.135-.213-.2-.321-.083-.135-.166-.271-.246-.409a.01.01,0,0,0,0-.006c-.067-.111-.129-.222-.193-.336a.059.059,0,0,1-.007-.013c-.034-.059-.067-.118-.1-.178a.4.4,0,0,1-.031-.056c-.049-.086-.095-.173-.141-.261-.058-.107-.114-.216-.169-.324a.465.465,0,0,1-.027-.053c-.074-.144-.147-.289-.215-.434-.025-.051-.049-.1-.071-.15q-.107-.222-.207-.449l-.058-.13a.205.205,0,0,1-.01-.027c-.04-.089-.08-.179-.117-.27-.053-.124-.105-.25-.155-.376q-.169-.416-.323-.84c-.056-.155-.111-.312-.164-.469-.018-.051-.036-.1-.052-.154-.077-.225-.15-.455-.218-.684-.022-.071-.043-.142-.063-.213-.03-.095-.056-.191-.083-.287s-.049-.172-.071-.259c-.07-.255-.136-.511-.2-.77l-.453.253" transform="translate(-77.783 -208.644)" fill="none"/>
    </clipPath>
    <linearGradient id="linear-gradient-25" x1="-1.251" y1="3.748" x2="-1.235" y2="3.748" xlink:href="#linear-gradient"/>
    <clipPath id="clip-path-27">
      <path id="Path_102" data-name="Path 102" d="M41.348,306.54l-.776,1.44a13.488,13.488,0,0,0,2.13,1.345q1.056.538,2.115,1.07c2.713,1.363,5.451,2.681,8.252,3.839l.9-1.335a68.057,68.057,0,0,0-7.434-3.67q-.344-.144-.675-.3a16.842,16.842,0,0,1-4.3-2.956Z" transform="translate(-40.572 -305.97)" fill="none"/>
    </clipPath>
    <linearGradient id="linear-gradient-26" x1="-0.64" y1="5.337" x2="-0.625" y2="5.337" xlink:href="#linear-gradient"/>
    <clipPath id="clip-path-28">
      <path id="Path_103" data-name="Path 103" d="M47.15,290.676v.606l-.458,1.2c.07.064.138.124.207.187a.043.043,0,0,0,.012.01c.067.059.135.119.2.176s.122.1.182.153c.034.03.07.059.105.086s.07.058.105.084c.1.078.193.154.29.227.077.059.155.117.235.175.1.074.2.147.305.218q.235.164.48.32c.147.1.3.187.449.277.025.016.052.031.079.046.158.093.317.184.48.271.143.077.286.152.43.228q.493.255,1,.5c.241.116.483.231.726.344.181.084.361.169.542.251l.761.35.65.3.015.006c.212.1.423.2.634.3.123.058.244.117.367.176.143.069.287.139.429.212.4.2.806.412,1.2.632q.071.038.142.08c.019.01.04.021.059.033.108.061.215.123.321.187q1.067.633,2.118,1.284l1.4-2.071A67.641,67.641,0,0,0,53,293.742c-.139-.059-.277-.118-.412-.179l-.03-.013c-.221-.1-.438-.2-.649-.313-.041-.021-.083-.041-.125-.064l-.124-.065c-.071-.037-.141-.074-.21-.113q-.418-.229-.809-.477c-.131-.081-.259-.164-.385-.25-.108-.073-.216-.147-.321-.224,0,0,0,0,0,0-.077-.055-.153-.11-.228-.166-.166-.124-.327-.25-.486-.38-.061-.047-.12-.1-.178-.148l-.138-.118c-.041-.034-.08-.07-.12-.105-.071-.062-.141-.126-.21-.191s-.164-.154-.245-.233c-.038-.037-.075-.074-.113-.111q-.093-.093-.182-.187c-.078-.083-.157-.166-.233-.249s-.164-.182-.243-.274Z" transform="translate(-46.692 -289.879)" fill="none"/>
    </clipPath>
    <linearGradient id="linear-gradient-27" x1="-0.709" y1="4.889" x2="-0.694" y2="4.889" xlink:href="#linear-gradient"/>
    <clipPath id="clip-path-29">
      <path id="Path_104" data-name="Path 104" d="M69.658,228.091l-1.146,1.256a12.448,12.448,0,0,0,3.876,5.7q.878.717,1.764,1.425c.068.056.137.111.207.166.16.126.32.255.48.382q.893.711,1.8,1.412.542.422,1.087.84.253.2.508.388.869.664,1.746,1.317c.166.124.333.249.5.372q.418.311.837.618l1.142-1.778q-2.49-1.777-4.986-3.55c-.332-.237-.609-.551-.933-.8-.2-.154-.4-.311-.594-.471-.052-.043-.1-.086-.155-.13s-.1-.086-.152-.131c-.031-.025-.062-.053-.093-.081-.113-.1-.224-.2-.332-.3q-.358-.326-.693-.668c-.031-.031-.062-.062-.092-.095-.133-.138-.264-.276-.391-.416-.056-.061-.111-.122-.164-.184-.128-.143-.252-.289-.372-.434-.035-.041-.069-.084-.1-.126q-.309-.377-.591-.767c-.033-.044-.064-.087-.093-.13s-.063-.087-.093-.132c-.062-.087-.123-.175-.181-.264s-.119-.176-.176-.267c-.031-.046-.061-.093-.089-.139s-.044-.068-.065-.1c-.04-.062-.077-.124-.114-.185-.05-.08-.1-.162-.145-.243-.04-.065-.077-.129-.114-.194s-.086-.151-.128-.227-.095-.17-.139-.256-.093-.175-.139-.264c-.009-.018-.019-.037-.027-.055-.047-.09-.093-.181-.136-.271s-.093-.19-.137-.286-.091-.193-.133-.289-.095-.212-.141-.318c-.078-.179-.153-.36-.225-.542-.024-.056-.046-.112-.067-.17-.059-.148-.115-.3-.169-.447-.043-.115-.084-.234-.124-.351-.061-.17-.117-.342-.172-.515-.038-.117-.074-.232-.109-.351Z" transform="translate(-68.512 -226.044)" fill="none"/>
    </clipPath>
    <linearGradient id="linear-gradient-28" x1="-1.039" y1="3.831" x2="-1.024" y2="3.831" xlink:href="#linear-gradient"/>
    <clipPath id="clip-path-30">
      <path id="Path_105" data-name="Path 105" d="M61.886,247.761l.339.961-.969,1.828c.065.12.133.24.2.357.022.039.043.076.067.113.055.093.111.187.169.278.039.062.079.124.119.187.074.118.152.235.232.352.021.033.044.064.067.1.04.059.08.117.123.175s.079.109.119.163c.058.078.115.157.176.234s.142.182.215.273.146.178.222.267c.05.059.1.117.151.175.1.117.206.231.312.344l.16.167.165.166c.067.067.133.132.2.2.047.046.095.092.144.136l.147.133c.047.044.095.086.142.127l.151.13.064.053.074.062c.114.095.23.188.347.278.051.04.1.079.153.117s.127.1.193.144l.2.141c.062.044.124.087.188.13.136.095.277.187.419.277l.209.13c.07.045.141.087.213.129.239.144.484.28.736.412.062.033.124.065.188.1.085.044.17.087.258.129q.28.138.57.267a51.051,51.051,0,0,1,6,3.144l.545-.8c.078-.124.16-.25.238-.375-.173-.119-.345-.239-.517-.359q-.856-.6-1.7-1.222l-.259-.19q-.94-.689-1.869-1.392-.373-.282-.742-.564c-.179-.136-.359-.273-.536-.41q-.4-.307-.8-.618t-.8-.621c-.185-.144-.372-.287-.557-.432a16.016,16.016,0,0,1-4.99-6.5Z" transform="translate(-61.257 -246.645)" fill="none"/>
    </clipPath>
    <linearGradient id="linear-gradient-29" x1="-0.934" y1="4.201" x2="-0.919" y2="4.201" xlink:href="#linear-gradient"/>
    <clipPath id="clip-path-31">
      <path id="Path_106" data-name="Path 106" d="M12.849,375.138q.42.511.8,1.052.136.191.267.383a40.7,40.7,0,0,0,2.574,3.4H18.3q-.585-.675-1.114-1.4-1.285-1.771-2.721-3.384-.522-.6-1.068-1.17Z" transform="translate(-12.849 -374.013)" fill="none"/>
    </clipPath>
    <linearGradient id="linear-gradient-30" x1="-0.498" y1="4.986" x2="-0.46" y2="4.986" xlink:href="#linear-gradient"/>
    <clipPath id="clip-path-32">
      <path id="Path_107" data-name="Path 107" d="M1.7,387.69H6.648c-.471-.558-.926-1.13-1.358-1.715-.336-.455-.675-.9-1.024-1.345-.221-.28-.444-.557-.672-.828Z" transform="translate(-1.695 -383.802)" fill="none"/>
    </clipPath>
    <linearGradient id="linear-gradient-31" x1="-0.072" y1="7.108" x2="-0.03" y2="7.108" xlink:href="#linear-gradient"/>
    <clipPath id="clip-path-33">
      <path id="Path_108" data-name="Path 108" d="M116.46,48.554c-.056,0-.114,0-.17,0-.11,0-.219.007-.327.013l-.238.015-.12.009a.439.439,0,0,0-.062,0c-.249.021-.495.044-.739.077s-.5.073-.751.118c-.125.023-.247.049-.37.074s-.244.053-.364.084-.219.052-.327.083l-.067.016c-.108.03-.215.061-.321.092-.239.071-.474.148-.708.231-.093.034-.188.068-.282.1a.013.013,0,0,0-.01,0c-.039.015-.077.031-.116.044-.1.037-.194.076-.29.117s-.219.092-.327.141c-.065.028-.13.059-.2.091s-.141.062-.209.1c-.1.047-.2.1-.3.148-.067.032-.133.067-.2.1s-.123.065-.184.1a.738.738,0,0,0-.094.05c-.076.04-.15.081-.224.124-.047.027-.095.056-.142.084-.089.051-.178.1-.265.16,0,0,0,0,0,0-.108.065-.215.133-.32.2-.007,0-.015.009-.021.012q-.164.109-.324.218c-.1.067-.2.138-.3.209-.015.009-.028.021-.041.03-.1.074-.206.148-.308.225-.034.025-.067.049-.1.074-.161.121-.32.247-.478.375l-.16.132c-.07.056-.141.114-.21.176-.034.027-.068.056-.1.086-.264.225-.521.458-.778.7s-.532.512-.791.773l-2.653,6.356-1.8,4.319-4.029,9.651c-.15.357-.3.717-.449,1.077,0,.192.012.383.022.575q.007.158.018.315c.006.11.013.219.023.329.006.095.014.192.022.287.013.141.027.283.043.426.007.074.016.151.025.225.018.154.037.308.059.462q.071.52.167,1.035c.019.105.04.209.061.314,0,.012,0,.022.007.034.009.047.019.095.03.145.056.268.117.538.185.806.018.074.036.148.056.223.127.5.274.985.437,1.472.027.086.056.169.087.253a.087.087,0,0,0,.009.027c.018.055.037.111.058.165.045.126.091.249.138.375.01.028.021.059.033.087.05.132.1.265.159.4s.1.256.16.385c.043.1.087.2.133.3.07.155.141.314.213.468.037.08.075.16.114.238.1.215.213.431.324.644.058.11.117.219.176.327.049.092.1.181.149.271l.126.225q.122.211.249.419c.055.093.111.182.167.275l.018.027c.059.1.12.194.182.289a.238.238,0,0,0,.025.038c.07.11.141.218.212.326.178.268.363.535.552.8q.52.722,1.1,1.425c.049.061.1.121.151.182q.289.344.592.687a37.668,37.668,0,0,0,5,4.651c.071-.11.142-.219.215-.329.215-.326.427-.647.634-.967,0,0,0,0-.007-.006-.113-.089-.228-.178-.338-.27a.106.106,0,0,1-.03-.023c-.043-.033-.084-.067-.126-.1q-.484-.393-.951-.809c-.126-.111-.252-.224-.375-.338l-.018-.015c-.1-.092-.2-.182-.293-.277a.807.807,0,0,1-.076-.07c-.081-.074-.163-.154-.243-.234-.062-.058-.123-.118-.184-.179s-.107-.1-.159-.159c-.087-.084-.172-.17-.255-.259-.04-.039-.077-.077-.114-.117-.087-.087-.173-.179-.258-.269-.065-.068-.13-.139-.194-.21a.218.218,0,0,1-.03-.033c-.093-.1-.185-.2-.276-.3-.133-.148-.264-.3-.392-.447-.014-.016-.025-.031-.039-.044-.115-.138-.231-.274-.344-.412-.1-.121-.2-.245-.3-.366q-.375-.473-.727-.958c-.049-.067-.1-.133-.144-.2-.076-.1-.15-.207-.221-.312-.041-.058-.08-.114-.119-.173-.2-.286-.388-.578-.573-.873-.1-.166-.2-.33-.305-.5-.087-.148-.173-.295-.258-.444q-.6-1.051-1.1-2.146c-.05-.111-.1-.222-.148-.333-.025-.059-.052-.12-.075-.179q-.18-.418-.339-.837c-.059-.154-.117-.311-.172-.468-.154-.431-.3-.868-.422-1.306-.03-.1-.058-.2-.085-.3-.019-.068-.037-.136-.055-.2-.033-.118-.062-.239-.092-.357-.01-.037-.019-.074-.028-.114-.025-.1-.05-.21-.074-.315-.019-.086-.039-.175-.058-.264s-.037-.176-.055-.264a10.516,10.516,0,0,1,.161-4.586,45.13,45.13,0,0,1,8.641-17.218c.157-.194.317-.382.478-.567.07-.08.141-.162.213-.24s.153-.167.23-.249c.157-.17.315-.332.477-.493s.323-.314.487-.467c.081-.078.164-.153.247-.225.041-.041.083-.076.124-.111.007-.009.015-.015.021-.021.028-.025.055-.049.083-.071a.229.229,0,0,1,.021-.016c.083-.074.167-.147.252-.215s.161-.135.243-.2c.345-.279.695-.538,1.05-.785l.286-.194c.08-.052.162-.107.243-.157s.135-.088.2-.131l.24-.147c.115-.069.231-.136.348-.2s.232-.132.35-.194c.095-.053.191-.1.287-.154s.2-.1.3-.153c.155-.077.311-.153.468-.225l.262-.118.346-.15.314-.126q.171-.071.342-.133c.03-.01.059-.024.089-.034.076-.028.15-.053.225-.08s.163-.059.245-.084.157-.055.237-.08.145-.047.218-.068l.28-.087c.172-.051.344-.1.515-.144.076-.021.15-.04.225-.058.114-.03.228-.058.344-.081.083-.022.166-.038.249-.058l.342-.073.138-.027c.137-.025.277-.052.416-.076.118-.019.239-.04.359-.056s.24-.037.358-.053l.348-.043.314-.034.36-.034h.019l.347-.024c.106-.009.212-.015.318-.019.175-.007.351-.016.526-.018.071,0,.141,0,.21,0q.155,0,.311,0a21.486,21.486,0,0,1,6.142.9c.178.051.354.108.527.165.13.041.258.084.385.132.378.13.746.272,1.106.423.192.08.382.166.57.25s.372.176.552.265.36.185.535.281c.088.046.175.095.261.145,6.754,3.841,11.012,9.662,13.325,16.99.37,1.17.535,2.417.988,3.549l.053.135q.831-.258,1.672-.515l.113-.036.622-.187c.218-.07.418-.132.6-.188q-.242-.5-.54-.992a11.3,11.3,0,0,1-.921-1.734c-2.394-6.19-6.566-11.115-11.187-15.708a12.712,12.712,0,0,0-7.12-3.632c-2.5-.382-5.037-.561-7.557-.837-1.706-.187-3.412-.384-5.118-.576l-.225,0c-.106,0-.212,0-.316.005" transform="translate(-96.193 -48.549)" fill="none"/>
    </clipPath>
    <linearGradient id="linear-gradient-32" x1="-0.382" y1="2.108" x2="-0.378" y2="2.108" xlink:href="#linear-gradient"/>
    <clipPath id="clip-path-34">
      <path id="Path_109" data-name="Path 109" d="M155.249,25.885q-.711,1.156-1.336,2.355a21.315,21.315,0,0,1,5.993-.827l.349-.012c1.786.185,3.574.366,5.36.558,4.147.447,8.294.909,12.443,1.349a8.851,8.851,0,0,1,5.627,2.77A104.089,104.089,0,0,1,193.7,43.9l-.138-.332-.581-1.388-.751-1.794-1.311-3.148q-3.395-3.741-6.848-7.431a6.511,6.511,0,0,0-3.144-1.744,13.86,13.86,0,0,0-4.866-.354c-4.258.563-8.286-.234-12.354-1.342a20.7,20.7,0,0,0-2.887-.572,20.04,20.04,0,0,0-5.574.084" transform="translate(-153.913 -25.646)" fill="none"/>
    </clipPath>
    <linearGradient id="linear-gradient-33" x1="-0.818" y1="5.663" x2="-0.813" y2="5.663" xlink:href="#linear-gradient"/>
    <clipPath id="clip-path-35">
      <path id="Path_110" data-name="Path 110" d="M188.278,127.521a11.486,11.486,0,0,0-3.484,7.158c-.061,2.688.634,4.641,2.005,5.78.335-.632.639-1.218.913-1.748a4.327,4.327,0,0,1-1.457-2.561c-.613-2.714-.24-5.2,2-7.157a3.976,3.976,0,0,1,4.235-.86l.016-.039a4.112,4.112,0,0,1,.755-1.225,7.092,7.092,0,0,0-2.319-.461,3.537,3.537,0,0,0-2.659,1.113" transform="translate(-184.791 -126.408)" fill="none"/>
    </clipPath>
    <linearGradient id="linear-gradient-34" x1="-4.58" y1="5.842" x2="-4.555" y2="5.842" xlink:href="#linear-gradient"/>
    <clipPath id="clip-path-36">
      <path id="Path_111" data-name="Path 111" d="M152.6,82.447c-3.98,1.059-6.71,3.836-8.637,7.225s-3.227,7.142-5.017,10.624c-.007.018-.016.031-.024.049a.139.139,0,0,0-.013.028c-.037.07-.071.138-.1.207-.046.095-.091.188-.132.283s-.083.185-.121.279c-.027.061-.05.123-.074.182h0c-.024.059-.046.114-.068.173-.05.132-.1.262-.139.393-.019.058-.039.117-.056.175s-.037.115-.053.173c-.023.08-.044.159-.065.237-.071.269-.128.533-.17.794-.013.077-.025.157-.036.232-.007.044-.012.087-.018.133s-.007.062-.01.095-.009.072-.012.108c-.006.067-.012.135-.016.2,0,.041-.006.081-.007.12-.009.157-.013.309-.013.462v.009c0,.019,0,.038,0,.058,0,.059,0,.115,0,.175,0,.083.007.167.013.25,0,.062.007.123.013.184s.015.15.024.224.018.152.03.228c.022.15.049.3.08.446.015.076.031.152.049.227.013.058.028.114.043.17s.022.089.036.132c.021.081.044.161.069.24,0,.019.011.036.016.053.027.09.056.179.087.267s.056.157.086.235c.055.145.114.289.176.433.028.065.056.129.086.19s.061.132.092.2.061.123.093.185l.083.16q.058.111.12.222c.006.01.013.022.019.034q.062.111.129.222c.024.04.048.077.071.117.046.076.093.153.142.228s.11.17.167.256c.2.305.421.606.656.908.033.043.067.086.1.126.184.233.378.464.579.695.162.184.293.4.456.578A22.687,22.687,0,0,0,144.482,115q.477-.806.933-1.594a20.412,20.412,0,0,1-4.925-6.01,5.484,5.484,0,0,1-.7-3.542c1.154-7.3,4.171-13.578,9.91-18.429a7.02,7.02,0,0,1,7.087-1.471A21.771,21.771,0,0,1,168.845,92.4a13.812,13.812,0,0,1,2.5,7.437,9.193,9.193,0,0,1-.182,2.364c.436-.173.87-.339,1.3-.5a.914.914,0,0,0,.119-.044c.225-.085.452-.17.683-.255a16.148,16.148,0,0,0-.283-3.645A19.986,19.986,0,0,0,155.741,82.16a6.962,6.962,0,0,0-.758-.04,9.426,9.426,0,0,0-2.382.327" transform="translate(-137.815 -82.12)" fill="none"/>
    </clipPath>
    <linearGradient id="linear-gradient-35" x1="-0.822" y1="2.781" x2="-0.816" y2="2.781" xlink:href="#linear-gradient"/>
    <clipPath id="clip-path-37">
      <path id="Path_112" data-name="Path 112" d="M131.459,75.851a51.187,51.187,0,0,0-3.451,6.228c-.229.474-.47.935-.729,1.383h0c-.05.089-.1.179-.16.27s-.107.182-.164.269c-.1.156-.2.308-.3.46-.043.065-.089.132-.138.2s-.1.138-.147.2a.039.039,0,0,1-.009.012c-.047.067-.1.13-.147.2s-.1.135-.158.2l-.155.19c-.108.128-.219.256-.335.379l-.115.124q-.127.134-.258.262c-.039.038-.079.08-.119.117-.1.1-.209.194-.317.287-.067.061-.136.12-.206.176-.091.076-.184.15-.279.222s-.19.144-.287.215c-1.809,1.29-2.556,3.144-2.482,5.9.029.265.067,1.09.217,1.891.021.108.042.216.064.324s.04.194.062.29.043.194.065.292c.052.227.108.452.169.674.092.345.191.683.3,1.017.044.138.09.276.138.415.037.105.074.212.112.318q.174.476.366.938c.04.095.08.191.121.284s.083.188.124.283c.006.013.013.028.019.04.05.111.1.222.154.33s.119.245.179.366.123.241.187.361c.046.091.093.176.142.265.039.073.078.142.119.213.071.128.143.253.218.379.084.142.17.284.259.425.181.292.369.578.563.855.089.129.178.253.27.378.078.108.158.216.238.322q.142.187.289.369c.036.046.071.092.108.138.206.255.418.5.636.746.095.108.192.215.29.319s.2.209.3.311c.022.025.045.049.07.074.1.105.207.212.314.314,0,0,0,0,0,0,.1.1.21.2.317.306.018.016.036.034.055.05.1.1.206.191.311.286l.062.055c.108.1.216.192.327.286.08.07.163.141.245.207a.007.007,0,0,0,.006,0,.082.082,0,0,0,.022.018s0,0,0,0c.056.049.114.095.17.141.084.071.169.139.256.206l.107.081a.347.347,0,0,0,.064.049c.087.071.175.139.264.2,0,0,0,0,0,0,.1.073.2.148.3.219q.533-.871,1.044-1.73a20.579,20.579,0,0,1-6.776-8.757c-.016-.039-.033-.077-.047-.117s-.028-.071-.041-.107-.03-.081-.044-.125h0c-.024-.067-.044-.133-.065-.2s-.042-.139-.059-.21c-.039-.153-.073-.31-.1-.467-.01-.056-.019-.117-.027-.175a.048.048,0,0,1,0-.013c-.011-.071-.018-.141-.024-.212-.006-.051-.009-.1-.012-.15a.641.641,0,0,1,0-.08c0-.037,0-.076,0-.113a4.2,4.2,0,0,1,.017-.492c0-.037.007-.074.012-.111s.006-.043.009-.065c.006-.052.015-.1.025-.151s.021-.108.034-.16l.031-.116c.048-.166.095-.33.145-.5.169-.575.339-1.152.517-1.724.046-.151.092-.3.141-.455s.093-.3.142-.453q.087-.278.178-.555c.118-.366.24-.732.364-1.095.044-.136.092-.271.139-.4.085-.247.172-.495.261-.739.058-.165.117-.326.178-.486s.12-.324.182-.486c.121-.32.247-.641.376-.958v0c.044-.105.087-.213.132-.321s.087-.213.133-.32c.058-.139.117-.277.178-.415q.284-.662.592-1.311c.068-.144.136-.29.207-.432l.138-.282.132-.261c.04-.08.081-.158.123-.238s.083-.161.126-.241a32.31,32.31,0,0,1,2.066-3.413,28.837,28.837,0,0,1,4.818-5.193,10.263,10.263,0,0,1,9.952-1.992c8.487,2.36,13.889,7.751,15.844,16.425a26.207,26.207,0,0,1,.375,2.882c.4-.136.8-.27,1.2-.4h.006c.163-.055.329-.108.493-.165a11.572,11.572,0,0,0-.086-1.231c-1.068-8.763-9.029-17.27-17.645-19.145a18.213,18.213,0,0,0-3.866-.445,11.618,11.618,0,0,0-10.151,5.555" transform="translate(-121.497 -70.296)" fill="none"/>
    </clipPath>
    <linearGradient id="linear-gradient-36" x1="-0.613" y1="2.479" x2="-0.608" y2="2.479" xlink:href="#linear-gradient"/>
    <clipPath id="clip-path-38">
      <path id="Path_113" data-name="Path 113" d="M198.43,125.567l-.126-.3h0c-.006-.041-.012-.083-.018-.126s-.012-.077-.019-.117a.525.525,0,0,0-.012-.065v0c0-.016-.006-.033-.009-.047l.152.361.033.078v.036C198.432,125.467,198.43,125.532,198.43,125.567Zm-10.771-8.622c-1.967.927-3.918,4.475-4.1,6.705a35.065,35.065,0,0,1,2.266-3.583,7.628,7.628,0,0,1,1.443-1.405c.07-.051.139-.1.21-.147a4.959,4.959,0,0,1,1.563-.7c.075-.018.151-.036.227-.049a4.673,4.673,0,0,1,1.1-.086l.138.006a.245.245,0,0,1,.045,0l.108.009a.6.6,0,0,1,.074.006,1.138,1.138,0,0,1,.118.016.077.077,0,0,1,.025,0,.75.75,0,0,1,.086.009c.055.007.11.016.166.028l.077.01.078.017c.037.009.077.016.114.023.062.013.124.03.187.045q.053.011.107.027a.008.008,0,0,1,.007,0c.033.007.067.018.1.026l.184.055c.121.037.247.081.372.127.062.022.125.046.188.073.045.016.087.035.132.053.025.01.05.022.077.031l.172.076c.053.027.108.05.163.076a.175.175,0,0,1,.028.015c1.115-.49,2.39.121,3.1,1.837l.222.535.08-.164.028.1-.108.062.25.6.076.064.057.047.053.145.031.076-.027-.04c-.055-.081-.111-.163-.17-.243v0l-.019-.046-.019-.016.138.369.031.076L198.18,125l.152.361.1.234v-.028l1.585,3.8c.027-.063.052-.126.076-.192a.119.119,0,0,0,.012-.031c.01-.03.021-.058.031-.084.024-.067.045-.13.065-.194s.033-.1.047-.153c.052-.175.095-.352.13-.532.007-.036.013-.069.019-.1.015-.077.028-.155.04-.23,0-.04.01-.077.015-.117s.013-.095.018-.141c.007-.064.013-.125.018-.19.009-.111.015-.222.019-.333,0-.023,0-.046,0-.071a7.783,7.783,0,0,0-.406-2.616c-.074-.225-.157-.447-.249-.664-.046-.108-.095-.213-.145-.322-.03-.065-.062-.133-.1-.2-.065-.129-.133-.259-.2-.385-.035-.062-.073-.125-.108-.188-.118-.2-.244-.391-.375-.576-.1-.139-.2-.275-.307-.407a14.74,14.74,0,0,0-7.68-5.033,3.977,3.977,0,0,0-1.072-.136,5.346,5.346,0,0,0-2.206.478" transform="translate(-183.555 -116.467)" fill="none"/>
    </clipPath>
    <linearGradient id="linear-gradient-37" x1="-2.288" y1="6.528" x2="-2.275" y2="6.528" xlink:href="#linear-gradient"/>
    <clipPath id="clip-path-39">
      <path id="Path_114" data-name="Path 114" d="M245.657,139.782v0c.059.08.115.162.17.243l.027.04-.031-.076-.053-.145-.056-.047-.076-.064Z" transform="translate(-245.638 -139.736)" fill="none"/>
    </clipPath>
    <linearGradient id="linear-gradient-38" x1="-240.353" y1="238.831" x2="-239.375" y2="238.831" xlink:href="#linear-gradient"/>
    <clipPath id="clip-path-40">
      <path id="Path_115" data-name="Path 115" d="M253.021,156.4v0a.53.53,0,0,1,.012.065c.007.04.013.08.019.117s.012.084.018.126h0l.126.3c0-.036,0-.1,0-.188v-.036l-.033-.078-.152-.361.009.047" transform="translate(-253.012 -156.353)" fill="none"/>
    </clipPath>
    <linearGradient id="linear-gradient-39" x1="-289.161" y1="114.156" x2="-288.019" y2="114.156" xlink:href="#linear-gradient"/>
    <clipPath id="clip-path-41">
      <path id="Path_116" data-name="Path 116" d="M207.718,0a11.269,11.269,0,0,1-4.848,0h-7.958c.909.267,1.806.581,2.681.932a18.674,18.674,0,0,0,12.291.757,9.9,9.9,0,0,1,7.333.564L216.3,0Z" transform="translate(-194.912)" fill="none"/>
    </clipPath>
    <linearGradient id="linear-gradient-40" x1="-1.848" y1="38.108" x2="-1.839" y2="38.108" xlink:href="#linear-gradient"/>
    <clipPath id="clip-path-42">
      <path id="Path_117" data-name="Path 117" d="M168.816.71a6.137,6.137,0,0,1-.155,1.7c-.015.092-.031.182-.049.271.271-.028.544-.051.815-.065a9.742,9.742,0,0,1,1.1-.006,19.514,19.514,0,0,1,3.026.445,34.454,34.454,0,0,1,3.995,1.219,22.748,22.748,0,0,0,10.688.852,21.474,21.474,0,0,1,3.432-.227,7.416,7.416,0,0,1,5.889,2.546q.76.9,1.527,1.788l-2.062-5.091a10.454,10.454,0,0,0-8.849-.806,16.09,16.09,0,0,1-10.608-.675A37.841,37.841,0,0,0,171.437.852,19.139,19.139,0,0,0,168.887.71h-.071" transform="translate(-168.611 -0.71)" fill="none"/>
    </clipPath>
    <linearGradient id="linear-gradient-41" x1="-1.171" y1="12.75" x2="-1.164" y2="12.75" xlink:href="#linear-gradient"/>
    <clipPath id="clip-path-43">
      <path id="Path_118" data-name="Path 118" d="M131.957,58.212c-.145,0-.29.007-.434.013-.092,0-.185.009-.277.015-.2.009-.4.023-.6.04l-.424.041c-.141.015-.282.033-.421.05-.04,0-.08.012-.118.016l-.117.016c-.117.018-.234.034-.349.055-.1.015-.2.034-.295.05-.379.07-.752.148-1.121.243-.12.028-.24.059-.36.092-.059.018-.119.033-.178.049s-.118.034-.178.053c-.094.027-.185.053-.276.083-.043.014-.084.028-.127.04-.062.022-.124.041-.187.062l-.15.05-.138.05c-.083.028-.165.058-.246.089q-.682.255-1.34.569l-.16.077c-.068.033-.135.067-.2.1s-.1.055-.155.08c-.116.061-.23.121-.344.184s-.228.127-.341.191c-.024.013-.049.028-.074.045-.087.05-.175.1-.262.157-.4.239-.785.5-1.167.775l-.182.132c-.1.074-.206.151-.307.233-.073.055-.145.113-.216.167-.1.08-.2.164-.3.246v0l-.028.021q-.382.316-.752.659c-.067.061-.133.125-.2.185-.1.1-.208.2-.31.3l-.25.25c-.167.17-.333.342-.5.518-4.1,4.435-6.485,9.774-8.551,15.342a13.034,13.034,0,0,0,.138,9.567,18.993,18.993,0,0,0,.93,2.269c.086.16.173.319.261.474.07.126.141.252.212.373.018.034.037.068.058.1q.131.227.267.453c.09.151.182.3.275.45h0c.133.215.268.428.406.635.067.105.136.212.206.314s.148.222.223.332c.105.153.21.3.317.452a.359.359,0,0,0,.021.029q.078.113.16.222c.053.074.107.148.161.221.087.12.176.237.267.354s.159.207.239.309q.48.613.983,1.191c.061.07.121.136.181.2.148.169.3.332.449.495q.082.089.169.178c.107.114.216.228.326.339l.212.212q.336.338.681.658.182.171.369.338c.127.114.256.228.386.339.1.089.2.175.305.259s.206.172.308.253c.135.111.271.221.409.326a.153.153,0,0,0,.018.015c.33-.5.653-.984.97-1.457-.021-.015-.04-.028-.061-.045-.107-.075-.215-.154-.32-.234-.048-.034-.1-.07-.142-.107-.391-.295-.772-.6-1.142-.924-.021-.018-.04-.034-.059-.053a1.041,1.041,0,0,1-.089-.077c-.087-.076-.175-.154-.262-.231l0,0c-.086-.077-.172-.155-.256-.239a.079.079,0,0,1-.018-.015c-.013-.01-.026-.025-.04-.037-.047-.043-.093-.086-.139-.133-.086-.082-.172-.163-.255-.248q-.071-.069-.138-.137c-.028-.03-.056-.056-.084-.085s-.056-.058-.083-.087a.536.536,0,0,1-.051-.05.052.052,0,0,1-.01-.012c-.046-.046-.091-.092-.132-.136-.006,0-.009-.009-.013-.013-.076-.08-.15-.16-.224-.24-.142-.154-.283-.311-.421-.472-.09-.1-.178-.206-.264-.311a0,0,0,0,1,0-.006c-.037-.04-.07-.08-.1-.123-.092-.107-.179-.216-.267-.327-.047-.061-.093-.12-.138-.179s-.092-.114-.135-.175-.1-.126-.144-.19c-.068-.093-.136-.185-.2-.278-.04-.055-.08-.111-.118-.166q-.113-.162-.222-.324c-.053-.078-.105-.155-.155-.234-.159-.239-.31-.478-.456-.723l-.138-.234c-.033-.053-.064-.108-.095-.162-.045-.077-.087-.155-.13-.234-.015-.023-.03-.05-.043-.077-.059-.108-.118-.216-.176-.326s-.108-.2-.16-.309c-.015-.027-.028-.052-.043-.08v0c-.041-.081-.083-.167-.123-.25s-.082-.164-.119-.249c-.07-.147-.138-.293-.2-.443s-.123-.28-.182-.422c-.04-.092-.078-.187-.115-.281s-.077-.191-.113-.286c-.019-.049-.037-.1-.055-.145-.03-.077-.059-.153-.086-.229-.047-.128-.092-.252-.135-.381s-.091-.264-.133-.394c-.052-.164-.1-.326-.151-.49-.009-.028-.018-.058-.027-.091-.025-.078-.047-.158-.069-.238-.052-.182-.1-.367-.148-.552-.023-.095-.047-.185-.069-.281-.007-.031-.015-.062-.022-.092-.022-.095-.044-.19-.065-.284-.037-.164-.073-.33-.105-.5q-.042-.207-.08-.418c-.013-.067-.025-.133-.037-.2s-.025-.148-.037-.222c-.513-3.139.079-5.916,2.73-7.912A13.966,13.966,0,0,0,118,71.611c.173-.361.348-.72.527-1.077v0c.083-.166.166-.33.25-.5s.169-.329.255-.493c.047-.09.095-.184.145-.274q.164-.318.338-.627c.056-.1.114-.209.173-.312s.115-.206.175-.31.118-.206.179-.307c.046-.08.092-.16.141-.239s.087-.147.132-.219c.022-.039.046-.076.07-.114q.138-.227.28-.449c.151-.235.305-.471.462-.7.016-.025.034-.05.052-.076.067-.1.133-.194.2-.29,2.663-3.771,6.23-6,10.555-5.67a20.865,20.865,0,0,1,13.358,4.885,24.328,24.328,0,0,1,8.264,11.376,17.2,17.2,0,0,1,.985,5.1c.505-.161,1.013-.324,1.523-.484-.038-.1-.077-.2-.118-.295a14.285,14.285,0,0,1-.592-2.127,28.792,28.792,0,0,0-7.124-13,21.516,21.516,0,0,0-15.355-7.2c-.163,0-.325-.006-.487-.006q-.216,0-.43,0" transform="translate(-109.474 -58.208)" fill="none"/>
    </clipPath>
    <linearGradient id="linear-gradient-42" x1="-0.485" y1="2.26" x2="-0.481" y2="2.26" xlink:href="#linear-gradient"/>
    <clipPath id="clip-path-44">
      <path id="Path_119" data-name="Path 119" d="M161.638,94.209A26.851,26.851,0,0,0,151.8,112.54a6.383,6.383,0,0,0,.738,3.245,15.882,15.882,0,0,0,4.328,5.3q.436-.76.849-1.495a9.527,9.527,0,0,1-3.451-4.236,13.881,13.881,0,0,1-.609-2.783,24.606,24.606,0,0,1,8.1-17.194,4.45,4.45,0,0,1,4.173-.924c6.557,1.509,11.18,5.285,13.432,11.725a6.806,6.806,0,0,1-.521,5.9c.786-.37,1.576-.716,2.368-1.043a10.383,10.383,0,0,0,.425-2.66,28.3,28.3,0,0,0-1.176-4.466c-2.736-6.209-7.88-9.413-14.228-10.946a4.664,4.664,0,0,0-1.1-.133,5.5,5.5,0,0,0-3.489,1.38" transform="translate(-151.774 -92.829)" fill="none"/>
    </clipPath>
    <linearGradient id="linear-gradient-43" x1="-1.069" y1="3.156" x2="-1.061" y2="3.156" xlink:href="#linear-gradient"/>
    <clipPath id="clip-path-45">
      <path id="Path_120" data-name="Path 120" d="M148.871,39.233a12.6,12.6,0,0,0-4.661.938l-1.342,3.264-.474,1.136c.136-.12.273-.236.412-.353l.182-.151c.061-.05.122-.1.184-.148s.123-.1.184-.147c.322-.252.647-.495.98-.723l.191-.132q.582-.391,1.191-.73c.093-.053.188-.1.283-.154.315-.166.635-.323.963-.465.08-.037.16-.071.241-.1.191-.082.384-.156.579-.227l.1-.037c.1-.036.2-.071.3-.1s.2-.065.3-.092.178-.055.268-.078c.247-.07.5-.133.754-.188l.215-.043c.063-.013.129-.024.192-.037.157-.028.317-.056.479-.078l.055-.009.083-.009c.073-.012.145-.021.219-.028s.145-.018.219-.024c.148-.016.3-.027.447-.037.074-.006.148-.01.224-.013l.25-.009c.068,0,.136,0,.206,0,.125,0,.25,0,.376,0,.093,0,.188,0,.284.006s.193.006.289.01c.193.009.388.024.585.04.492,0,.985-.038,1.472.006,3.182.293,6.36.61,9.54.909A16.684,16.684,0,0,1,175.821,47.5c3.842,4.38,7.6,8.85,9.585,14.474a2.114,2.114,0,0,0,.231.435,14.8,14.8,0,0,1,1.117,1.988c.253-.079.41-.127.477-.145a.153.153,0,0,1,.028-.01s.04-.018.108-.052a.727.727,0,0,0,.108-.074.5.5,0,0,0,.062-.051,1.351,1.351,0,0,0,.393-1.2V62.85c0-.025-.006-.05-.009-.077l-1.4-3.539c-3.3-5.9-7.871-10.815-12.436-15.724a9.319,9.319,0,0,0-6.621-2.8,68.27,68.27,0,0,1-8.323-.706c-.37-.065-.739-.129-1.109-.185-.185-.028-.37-.058-.555-.084-.07-.01-.141-.021-.212-.028-.281-.04-.564-.077-.846-.111-.2-.025-.4-.049-.606-.07-.185-.022-.37-.04-.555-.059-.089-.009-.179-.018-.268-.024s-.191-.021-.287-.028l-.292-.024c-.274-.022-.547-.044-.819-.059-.181-.013-.36-.022-.541-.033h-.022c-.184-.012-.367-.021-.551-.028-.1,0-.191-.006-.286-.011-.27-.013-.539-.021-.809-.026h-.021l-.558-.009c-.185,0-.372-.006-.559-.006H150c-.375,0-.75.005-1.126.013" transform="translate(-142.394 -39.22)" fill="none"/>
    </clipPath>
    <linearGradient id="linear-gradient-44" x1="-0.661" y1="3.993" x2="-0.656" y2="3.993" xlink:href="#linear-gradient"/>
    <clipPath id="clip-path-46">
      <path id="Path_121" data-name="Path 121" d="M173.176,104.942c-.182.182-.359.367-.527.559-.049.053-.1.108-.142.163-.12.139-.236.279-.35.424-.059.074-.117.149-.176.225s-.108.138-.161.209c-.009.013-.018.022-.027.036-.053.07-.105.139-.155.21-.247.333-.486.672-.724,1.013-.118.17-.237.336-.357.5-.062.091-.127.179-.191.268-.1.139-.2.277-.3.41l-.087.118s0,0,0,0c-.072.041-.154.079-.234.115-.021.007-.04.018-.061.027s-.015.009-.022.012a.369.369,0,0,0-.04.021.736.736,0,0,0-.178.123c-.01.01-.019.018-.028.028s-.018.022-.025.031a19.582,19.582,0,0,0-3.836,12.906,5.62,5.62,0,0,0,.59,2.1c.043.089.087.173.135.257.013.027.028.053.043.079.046.083.094.166.142.247a8.8,8.8,0,0,0,.726,1.029c.046.053.093.111.141.166s.108.124.163.182.111.121.167.179c.175.182.357.358.547.523.056.05.111.095.166.142.1.081.2.163.295.24.044.034.087.065.132.1l.173.126q.486-.873.936-1.695c-.018-.01-.036-.022-.053-.034-.115-.076-.227-.156-.333-.232-.053-.037-.105-.076-.155-.114s-.105-.082-.157-.122c-.027-.021-.055-.043-.081-.062l-.114-.095c-.039-.033-.076-.064-.114-.095l-.107-.095c-.081-.072-.16-.145-.234-.216-.024-.025-.049-.047-.071-.071s-.063-.065-.095-.095-.062-.067-.092-.1a5.859,5.859,0,0,1-.407-.492c-.025-.034-.049-.068-.071-.1-.047-.068-.092-.136-.135-.2-.018-.027-.036-.058-.052-.086s-.046-.078-.068-.117-.043-.08-.064-.12-.031-.058-.044-.086-.039-.08-.056-.12-.027-.056-.04-.088-.037-.09-.056-.135-.036-.09-.052-.139c-.01-.027-.019-.053-.03-.081s-.013-.038-.019-.058-.016-.055-.025-.082c-.016-.053-.032-.107-.046-.163-.01-.031-.018-.061-.025-.09l-.022-.093a.065.065,0,0,1,0-.007c-.03-.13-.055-.262-.076-.4-.006-.034-.01-.067-.015-.1s-.012-.086-.016-.127-.007-.067-.01-.1a.313.313,0,0,1,0-.04c0-.016,0-.031,0-.044,0-.037-.007-.073-.009-.11-.006-.081-.01-.161-.013-.246,0-.062,0-.126,0-.192a12.356,12.356,0,0,1,.142-1.9c.019-.139.04-.279.062-.416.009-.068.021-.136.031-.2a.308.308,0,0,1,0-.038c.022-.138.046-.274.07-.41,0-.01,0-.021,0-.03.023-.139.049-.279.074-.418.013-.074.028-.148.041-.222s.028-.148.043-.222c.021-.108.043-.216.065-.324.044-.212.09-.423.138-.638.024-.108.049-.216.074-.324.04-.172.081-.342.123-.514,0-.013.007-.03.012-.043.024-.1.049-.192.074-.289.036-.141.071-.28.111-.419.025-.1.05-.191.077-.286a.025.025,0,0,0,0-.01c.036-.126.073-.255.11-.381s.067-.229.1-.342c0-.013.007-.024.012-.038.052-.171.105-.344.159-.513a.04.04,0,0,1,0-.01c.065-.207.135-.418.2-.624s.139-.406.21-.609c0,0,0-.007,0-.011.041-.115.083-.231.126-.346.03-.077.058-.157.087-.235.043-.113.086-.229.13-.344s.08-.2.121-.307q.175-.453.367-.9a.325.325,0,0,1,.022-.05c.074-.176.15-.351.227-.523a.265.265,0,0,1,.015-.033v0c-.015.013-.028.027-.042.04l.047-.055a.065.065,0,0,0,0,.015c.2-.2.407-.393.61-.587.364-.35.727-.7,1.08-1.056a4.916,4.916,0,0,1,5.575-1.418,16,16,0,0,1,8.53,6.325,9.533,9.533,0,0,1,1.263,2.919c.022.1.043.194.062.29a7.386,7.386,0,0,1,.142,1.444c0,.058,0,.117,0,.176,0,.021,0,.037,0,.058a.094.094,0,0,1,0,.028v.006c0,.043,0,.083,0,.125,0,.019,0,.037,0,.058s0,.056-.006.084v.013l-.009.11a.1.1,0,0,0,0,.021c0,.028-.006.055-.011.08,0,.054-.01.105-.018.157,0,0,0,0,0,.008,0,.022-.006.044-.009.064,0,.037-.009.073-.016.108s-.015.1-.024.147a.188.188,0,0,1-.006.03c-.007.049-.018.1-.029.151s-.018.08-.027.12-.016.082-.027.122c-.017.07-.034.136-.053.2-.011.038-.021.077-.033.116s-.025.084-.039.129c0,0,0,.007,0,.01-.019.064-.04.125-.061.185v0c-.007.027-.016.049-.025.074-.018.05-.036.1-.056.15,0,0,0,.007,0,.012a.522.522,0,0,1-.024.061s0,0,0,.006c-.016.046-.036.093-.055.136-.009.021-.016.043-.025.061-.018.042-.034.08-.052.119s-.042.089-.064.135c-.061.131-.127.261-.2.39-.04.071-.08.144-.121.213a.01.01,0,0,1,0,.006l.661,1.583v.007l.034.078s.176-.1.5-.259q.3-.158.591-.31h0c.084-.1.163-.2.24-.3l.084-.11a7.587,7.587,0,0,0,.525-.8l.086-.155c.027-.054.053-.1.08-.157s.052-.1.077-.159.047-.1.071-.158c.047-.108.092-.219.133-.33.019-.047.037-.1.053-.148.056-.162.1-.326.145-.491.012-.047.024-.093.034-.139.019-.077.034-.154.049-.231.007-.041.015-.085.021-.127s.012-.068.016-.1c.01-.065.019-.132.027-.2,0-.031.007-.059.01-.09s0-.046.006-.068.006-.068.007-.1.006-.073.007-.11a.217.217,0,0,0,0-.033,6.79,6.79,0,0,0-.155-1.8c-.025-.114-.052-.228-.083-.345a9.271,9.271,0,0,0-.412-1.2,16.706,16.706,0,0,0-11.884-10.087,6.784,6.784,0,0,0-1.687-.239,3.152,3.152,0,0,0-2.291.838" transform="translate(-165.508 -104.104)" fill="none"/>
    </clipPath>
    <linearGradient id="linear-gradient-45" x1="-1.419" y1="3.677" x2="-1.41" y2="3.677" xlink:href="#linear-gradient"/>
    <clipPath id="clip-path-47">
      <rect id="Rectangle_95" data-name="Rectangle 95" width="97.32" height="108.82" fill="none"/>
    </clipPath>
    <linearGradient id="linear-gradient-46" x1="-0.167" y1="1.46" x2="-0.165" y2="1.46" gradientUnits="objectBoundingBox">
      <stop offset="0" stop-color="#f0dfb8"/>
      <stop offset="0.47" stop-color="#8b6842"/>
      <stop offset="1" stop-color="#f0dfb8"/>
    </linearGradient>
  </defs>
  <g id="Group_97" data-name="Group 97" transform="translate(14.151 34.078)">
    <g id="Group_96" data-name="Group 96" clip-path="url(#clip-path)">
      <rect id="Rectangle_49" data-name="Rectangle 49" width="87.07" height="97.341" transform="translate(-22.866 36.852) rotate(-58.181)" fill="url(#radial-gradient)"/>
    </g>
  </g>
  <g id="Group_99" data-name="Group 99" transform="translate(25.11 51.99)">
    <g id="Group_98" data-name="Group 98" clip-path="url(#clip-path-2)">
      <rect id="Rectangle_50" data-name="Rectangle 50" width="0.771" height="0.886" fill="url(#linear-gradient)"/>
    </g>
  </g>
  <g id="Group_101" data-name="Group 101" transform="translate(34.559 16.381)">
    <g id="Group_100" data-name="Group 100" clip-path="url(#clip-path-3)">
      <rect id="Rectangle_51" data-name="Rectangle 51" width="0.028" height="0.024" transform="translate(0 0)" fill="url(#linear-gradient-2)"/>
    </g>
  </g>
  <g id="Group_103" data-name="Group 103" transform="translate(30.856 28.577)">
    <g id="Group_102" data-name="Group 102" clip-path="url(#clip-path-4)">
      <rect id="Rectangle_52" data-name="Rectangle 52" width="0.301" height="0.46" transform="translate(0 0)" fill="url(#linear-gradient-3)"/>
    </g>
  </g>
  <g id="Group_105" data-name="Group 105" transform="translate(39.442 26.991)">
    <g id="Group_104" data-name="Group 104" clip-path="url(#clip-path-5)">
      <rect id="Rectangle_53" data-name="Rectangle 53" width="0.047" height="0.055" transform="translate(0 0)" fill="url(#linear-gradient-4)"/>
    </g>
  </g>
  <g id="Group_107" data-name="Group 107" transform="translate(39.442 26.99)">
    <g id="Group_106" data-name="Group 106" clip-path="url(#clip-path-6)">
      <rect id="Rectangle_54" data-name="Rectangle 54" width="0.047" height="0.055" transform="translate(0 0)" fill="url(#linear-gradient-5)"/>
    </g>
  </g>
  <g id="Group_109" data-name="Group 109" transform="translate(51.707 28.794)">
    <g id="Group_108" data-name="Group 108" clip-path="url(#clip-path-7)">
      <rect id="Rectangle_55" data-name="Rectangle 55" width="0.108" height="0.164" fill="url(#linear-gradient-6)"/>
    </g>
  </g>
  <g id="Group_111" data-name="Group 111" transform="translate(44.857 36.309)">
    <g id="Group_110" data-name="Group 110" clip-path="url(#clip-path-8)">
      <rect id="Rectangle_56" data-name="Rectangle 56" width="0.127" height="0.002" transform="translate(0 0)" fill="url(#linear-gradient-7)"/>
    </g>
  </g>
  <g id="Group_113" data-name="Group 113" transform="translate(54.677 30.976)">
    <g id="Group_112" data-name="Group 112" clip-path="url(#clip-path-9)">
      <rect id="Rectangle_57" data-name="Rectangle 57" width="0.205" height="0.385" transform="translate(0)" fill="url(#linear-gradient-8)"/>
    </g>
  </g>
  <g id="Group_115" data-name="Group 115" transform="translate(39.442 26.991)">
    <g id="Group_114" data-name="Group 114" clip-path="url(#clip-path-5)">
      <rect id="Rectangle_58" data-name="Rectangle 58" width="0.047" height="0.055" transform="translate(0 0)" fill="url(#linear-gradient-4)"/>
    </g>
  </g>
  <g id="Group_117" data-name="Group 117" transform="translate(30.856 28.577)">
    <g id="Group_116" data-name="Group 116" clip-path="url(#clip-path-11)">
      <rect id="Rectangle_59" data-name="Rectangle 59" width="0.301" height="0.459" transform="translate(0 0)" fill="url(#linear-gradient-10)"/>
    </g>
  </g>
  <g id="Group_119" data-name="Group 119" transform="translate(34.558 16.382)">
    <g id="Group_118" data-name="Group 118" clip-path="url(#clip-path-12)">
      <rect id="Rectangle_60" data-name="Rectangle 60" width="0.028" height="0.024" transform="translate(0 0)" fill="url(#linear-gradient-11)"/>
    </g>
  </g>
  <g id="Group_121" data-name="Group 121" transform="translate(6.751 69.141)">
    <g id="Group_120" data-name="Group 120" clip-path="url(#clip-path-13)">
      <rect id="Rectangle_61" data-name="Rectangle 61" width="12.152" height="9.172" transform="translate(0 0)" fill="url(#linear-gradient-12)"/>
    </g>
  </g>
  <g id="Group_123" data-name="Group 123" transform="translate(7.743 67.489)">
    <g id="Group_122" data-name="Group 122" clip-path="url(#clip-path-14)">
      <rect id="Rectangle_62" data-name="Rectangle 62" width="12.817" height="8.015" transform="translate(0)" fill="url(#linear-gradient-13)"/>
    </g>
  </g>
  <g id="Group_125" data-name="Group 125" transform="translate(6.433 71.801)">
    <g id="Group_124" data-name="Group 124" clip-path="url(#clip-path-15)">
      <rect id="Rectangle_63" data-name="Rectangle 63" width="10.527" height="8.585" transform="translate(0 0)" fill="url(#linear-gradient-14)"/>
    </g>
  </g>
  <g id="Group_127" data-name="Group 127" transform="translate(5.624 73.369)">
    <g id="Group_126" data-name="Group 126" clip-path="url(#clip-path-16)">
      <rect id="Rectangle_64" data-name="Rectangle 64" width="10.014" height="9.423" transform="translate(0 0)" fill="url(#linear-gradient-15)"/>
    </g>
  </g>
  <g id="Group_129" data-name="Group 129" transform="translate(4.754 75.194)">
    <g id="Group_128" data-name="Group 128" clip-path="url(#clip-path-17)">
      <rect id="Rectangle_65" data-name="Rectangle 65" width="9.172" height="9.756" transform="translate(0 0)" fill="url(#linear-gradient-16)"/>
    </g>
  </g>
  <g id="Group_131" data-name="Group 131" transform="translate(3.704 76.93)">
    <g id="Group_130" data-name="Group 130" clip-path="url(#clip-path-18)">
      <rect id="Rectangle_66" data-name="Rectangle 66" width="7.958" height="8.14" fill="url(#linear-gradient-17)"/>
    </g>
  </g>
  <g id="Group_133" data-name="Group 133" transform="translate(37.359 35.467)">
    <g id="Group_132" data-name="Group 132" clip-path="url(#clip-path-19)">
      <rect id="Rectangle_67" data-name="Rectangle 67" width="3.439" height="7.726" transform="translate(-0.16 0)" fill="url(#linear-gradient-18)"/>
    </g>
  </g>
  <g id="Group_135" data-name="Group 135" transform="translate(42.549 31.167)">
    <g id="Group_134" data-name="Group 134" clip-path="url(#clip-path-20)">
      <rect id="Rectangle_68" data-name="Rectangle 68" width="3.008" height="4.701" transform="translate(-0.02 0)" fill="url(#linear-gradient-19)"/>
    </g>
  </g>
  <g id="Group_137" data-name="Group 137" transform="translate(41.061 32.013)">
    <g id="Group_136" data-name="Group 136" clip-path="url(#clip-path-21)">
      <rect id="Rectangle_69" data-name="Rectangle 69" width="2.149" height="6.088" transform="translate(0 0)" fill="url(#linear-gradient-20)"/>
    </g>
  </g>
  <g id="Group_139" data-name="Group 139" transform="translate(42.416 29.081)">
    <g id="Group_138" data-name="Group 138" clip-path="url(#clip-path-22)">
      <rect id="Rectangle_70" data-name="Rectangle 70" width="4.035" height="1.894" transform="translate(0 0)" fill="url(#linear-gradient-21)"/>
    </g>
  </g>
  <g id="Group_141" data-name="Group 141" transform="translate(34.45 2.957)">
    <g id="Group_140" data-name="Group 140" clip-path="url(#clip-path-23)">
      <rect id="Rectangle_71" data-name="Rectangle 71" width="34.095" height="11.616" transform="translate(0 0)" fill="url(#linear-gradient-22)"/>
    </g>
  </g>
  <g id="Group_143" data-name="Group 143" transform="translate(11.187 57.066)">
    <g id="Group_142" data-name="Group 142" clip-path="url(#clip-path-24)">
      <rect id="Rectangle_72" data-name="Rectangle 72" width="14.312" height="11.084" transform="translate(0 0)" fill="url(#linear-gradient-23)"/>
    </g>
  </g>
  <g id="Group_145" data-name="Group 145" transform="translate(18.575 40.252)">
    <g id="Group_144" data-name="Group 144" clip-path="url(#clip-path-25)">
      <rect id="Rectangle_73" data-name="Rectangle 73" width="12.536" height="19.031" fill="url(#linear-gradient-24)"/>
    </g>
  </g>
  <g id="Group_147" data-name="Group 147" transform="translate(16.453 44.133)">
    <g id="Group_146" data-name="Group 146" clip-path="url(#clip-path-26)">
      <rect id="Rectangle_74" data-name="Rectangle 74" width="13.147" height="17.257" transform="translate(0 0)" fill="url(#linear-gradient-25)"/>
    </g>
  </g>
  <g id="Group_149" data-name="Group 149" transform="translate(8.582 64.719)">
    <g id="Group_148" data-name="Group 148" clip-path="url(#clip-path-27)">
      <rect id="Rectangle_75" data-name="Rectangle 75" width="13.4" height="8.264" transform="translate(0 0)" fill="url(#linear-gradient-26)"/>
    </g>
  </g>
  <g id="Group_151" data-name="Group 151" transform="translate(9.876 61.316)">
    <g id="Group_150" data-name="Group 150" clip-path="url(#clip-path-28)">
      <rect id="Rectangle_76" data-name="Rectangle 76" width="13.926" height="9.716" transform="translate(0 0)" fill="url(#linear-gradient-27)"/>
    </g>
  </g>
  <g id="Group_153" data-name="Group 153" transform="translate(14.492 47.813)">
    <g id="Group_152" data-name="Group 152" clip-path="url(#clip-path-29)">
      <rect id="Rectangle_77" data-name="Rectangle 77" width="13.945" height="15.924" transform="translate(0 0)" fill="url(#linear-gradient-28)"/>
    </g>
  </g>
  <g id="Group_155" data-name="Group 155" transform="translate(12.957 52.171)">
    <g id="Group_154" data-name="Group 154" clip-path="url(#clip-path-30)">
      <rect id="Rectangle_78" data-name="Rectangle 78" width="13.869" height="13.483" transform="translate(0 0)" fill="url(#linear-gradient-29)"/>
    </g>
  </g>
  <g id="Group_157" data-name="Group 157" transform="translate(2.718 79.112)">
    <g id="Group_156" data-name="Group 156" clip-path="url(#clip-path-31)">
      <rect id="Rectangle_79" data-name="Rectangle 79" width="5.454" height="5.959" transform="translate(0 0)" fill="url(#linear-gradient-30)"/>
    </g>
  </g>
  <g id="Group_159" data-name="Group 159" transform="translate(0.359 81.182)">
    <g id="Group_158" data-name="Group 158" clip-path="url(#clip-path-32)">
      <rect id="Rectangle_80" data-name="Rectangle 80" width="4.953" height="3.888" transform="translate(0)" fill="url(#linear-gradient-31)"/>
    </g>
  </g>
  <g id="Group_161" data-name="Group 161" transform="translate(20.347 10.269)">
    <g id="Group_160" data-name="Group 160" clip-path="url(#clip-path-33)">
      <rect id="Rectangle_81" data-name="Rectangle 81" width="53.252" height="46.746" transform="translate(0 0)" fill="url(#linear-gradient-32)"/>
    </g>
  </g>
  <g id="Group_163" data-name="Group 163" transform="translate(32.556 5.425)">
    <g id="Group_162" data-name="Group 162" clip-path="url(#clip-path-34)">
      <rect id="Rectangle_82" data-name="Rectangle 82" width="39.788" height="18.258" transform="translate(0 0)" fill="url(#linear-gradient-33)"/>
    </g>
  </g>
  <g id="Group_165" data-name="Group 165" transform="translate(39.087 26.738)">
    <g id="Group_164" data-name="Group 164" clip-path="url(#clip-path-35)">
      <rect id="Rectangle_83" data-name="Rectangle 83" width="8.523" height="14.051" transform="translate(-0.057 0)" fill="url(#linear-gradient-34)"/>
    </g>
  </g>
  <g id="Group_167" data-name="Group 167" transform="translate(29.151 17.37)">
    <g id="Group_166" data-name="Group 166" clip-path="url(#clip-path-36)">
      <rect id="Rectangle_84" data-name="Rectangle 84" width="35.478" height="32.88" transform="translate(0 0)" fill="url(#linear-gradient-35)"/>
    </g>
  </g>
  <g id="Group_169" data-name="Group 169" transform="translate(25.699 14.869)">
    <g id="Group_168" data-name="Group 168" clip-path="url(#clip-path-37)">
      <rect id="Rectangle_85" data-name="Rectangle 85" width="41.779" height="37.904" transform="translate(-0.069 0)" fill="url(#linear-gradient-36)"/>
    </g>
  </g>
  <g id="Group_171" data-name="Group 171" transform="translate(38.826 24.635)">
    <g id="Group_170" data-name="Group 170" clip-path="url(#clip-path-38)">
      <rect id="Rectangle_86" data-name="Rectangle 86" width="16.973" height="12.896" transform="translate(0 0)" fill="url(#linear-gradient-37)"/>
    </g>
  </g>
  <g id="Group_173" data-name="Group 173" transform="translate(51.958 29.557)">
    <g id="Group_172" data-name="Group 172" clip-path="url(#clip-path-39)">
      <rect id="Rectangle_87" data-name="Rectangle 87" width="0.216" height="0.332" fill="url(#linear-gradient-38)"/>
    </g>
  </g>
  <g id="Group_175" data-name="Group 175" transform="translate(53.518 33.072)">
    <g id="Group_174" data-name="Group 174" clip-path="url(#clip-path-40)">
      <rect id="Rectangle_88" data-name="Rectangle 88" width="0.185" height="0.664" fill="url(#linear-gradient-39)"/>
    </g>
  </g>
  <g id="Group_177" data-name="Group 177" transform="translate(41.228)">
    <g id="Group_176" data-name="Group 176" clip-path="url(#clip-path-41)">
      <rect id="Rectangle_89" data-name="Rectangle 89" width="22.305" height="2.856" transform="translate(0)" fill="url(#linear-gradient-40)"/>
    </g>
  </g>
  <g id="Group_179" data-name="Group 179" transform="translate(35.665 0.15)">
    <g id="Group_178" data-name="Group 178" clip-path="url(#clip-path-42)">
      <rect id="Rectangle_90" data-name="Rectangle 90" width="30.469" height="8.523" transform="translate(0 0)" fill="url(#linear-gradient-41)"/>
    </g>
  </g>
  <g id="Group_181" data-name="Group 181" transform="translate(23.156 12.312)">
    <g id="Group_180" data-name="Group 180" clip-path="url(#clip-path-43)">
      <rect id="Rectangle_91" data-name="Rectangle 91" width="46.96" height="42.711" transform="translate(-0.37 0)" fill="url(#linear-gradient-42)"/>
    </g>
  </g>
  <g id="Group_183" data-name="Group 183" transform="translate(32.103 19.635)">
    <g id="Group_182" data-name="Group 182" clip-path="url(#clip-path-44)">
      <rect id="Rectangle_92" data-name="Rectangle 92" width="29.954" height="28.257" transform="translate(-0.097 0)" fill="url(#linear-gradient-43)"/>
    </g>
  </g>
  <g id="Group_185" data-name="Group 185" transform="translate(30.119 8.296)">
    <g id="Group_184" data-name="Group 184" clip-path="url(#clip-path-45)">
      <rect id="Rectangle_93" data-name="Rectangle 93" width="45.593" height="25.178" transform="translate(0 0)" fill="url(#linear-gradient-44)"/>
    </g>
  </g>
  <g id="Group_187" data-name="Group 187" transform="translate(35.009 22.02)">
    <g id="Group_186" data-name="Group 186" clip-path="url(#clip-path-46)">
      <rect id="Rectangle_94" data-name="Rectangle 94" width="24.481" height="23.609" transform="translate(-0.271 0)" fill="url(#linear-gradient-45)"/>
    </g>
  </g>
  <g id="Group_189" data-name="Group 189">
    <g id="Group_188" data-name="Group 188" clip-path="url(#clip-path-47)">
      <path id="Path_122" data-name="Path 122" d="M141.022,191.765l-.1.04-2.542-6.25-1.691-4.161.1-.04v.106h-.073l-.061-.151h0l-.041-.1-.008-.019v0l-1.685-4.141-.107-.264-.224-.551h0L134.5,176l-.133-.329.1-.04v.106h-.109v-.106c.008-.069.029-.068.032-.078l.075.075-.1.04-2.125-5.227-.446-1.1-.582-1.426-.342-.843-.7-1.729-.046-.116h0l-.659-1.626-.44-1.08-.277-.686a1.61,1.61,0,0,0-1.487-1.021,1.575,1.575,0,0,0-.489.079c-.53.173-1.069.348-1.378.447h0l-.017,0,0,0,0,0-1.617.514-.032-.1.036.1-.033.012h0c-1.769.558-3.5,1.108-5.214,1.694-.178.061-.354.12-.529.182h0c-1.831.636-3.633,1.318-5.418,2.1h-.006c-.455.167-1.431.616-2.228.993h0c-.663.31-1.182.563-1.242.585l-.033-.1.037.1c-.521.192-1.041.426-1.565.649h0q-2.391,1.027-4.744,2.277c-.585.312-1.167.631-1.748.963q-2.857,1.628-5.644,3.575h0a64.148,64.148,0,0,0-7.647,6.141c-4,3.786-7.469,9.074-10.759,14.335-3.025,4.833-6.068,9.644-9.179,14.333l0,0L66.313,211.6l2.045.013h0l2.481.018h.005v.106l-.007-.106c2.175-.132,4.217-1.973,5.445-5,1.418-3.488,2.76-7.1,4.246-10.517a42.328,42.328,0,0,1,7.854-11.687,57.76,57.76,0,0,1,14.853-11.564c1.366-.774,2.741-1.509,4.126-2.221a2.76,2.76,0,0,1,1.217-.348,1.523,1.523,0,0,1,1.434,1.124c.937,2.3,9.754,24.589,13.867,34.992a8.168,8.168,0,0,0,7.564,5.231h17.381l-7.9-19.844h0l.1-.04.1-.039,8.02,20.133H131.448a8.379,8.379,0,0,1-7.76-5.365c-4.113-10.4-12.931-32.688-13.867-34.99-.311-.752-.742-.987-1.238-.992a2.558,2.558,0,0,0-1.12.325c-1.382.71-2.755,1.444-4.118,2.216a57.551,57.551,0,0,0-14.8,11.522A42.122,42.122,0,0,0,80.728,196.2c-1.483,3.412-2.824,7.021-4.244,10.512-1.245,3.065-3.336,4.983-5.628,5.127h-.013l-2.481-.018h0l-2.475-.016,1.737-2.224.083.065-.088-.058c3.11-4.686,6.151-9.5,9.176-14.328C80.082,190,83.558,184.7,87.582,180.889a64.353,64.353,0,0,1,7.671-6.161h0q2.79-1.951,5.661-3.585c.583-.333,1.166-.653,1.754-.966q2.361-1.253,4.759-2.285h0c.522-.221,1.044-.456,1.575-.652h0c.011,0,.567-.27,1.219-.576h0c.8-.378,1.773-.827,2.245-1l.037.1-.043-.1c1.791-.787,3.6-1.471,5.433-2.108h0c.177-.063.354-.122.531-.183,1.714-.587,3.451-1.137,5.219-1.7l.032.1-.036-.1.033-.012h0l1.617-.514.032.1-.042-.1a.258.258,0,0,1,.042-.013l.029.1-.033-.1c.308-.1.847-.274,1.377-.447a1.791,1.791,0,0,1,.554-.09,1.822,1.822,0,0,1,1.683,1.153l.277.686.44,1.08.659,1.627.046.116h0l.7,1.728.342.843.582,1.426.446,1.1,2.152,5.292-.05.05-.072-.072h.1c-.008.066-.026.062-.03.072l-.072-.072h0v-.106h.074l.16.395.093.226.224.551.107.264,1.7,4.179v0l.033.081h0l.034.085-.1.04v-.106h.073l1.718,4.227,2.542,6.25h0Z" transform="translate(-51.947 -126.636)" fill="url(#linear-gradient-46)"/>
      <path id="Path_123" data-name="Path 123" d="M10.528,438.96H3.749L.632,445.965H0L7.9,428.2h.153l7.61,17.762H13.529Zm-.2-.458L7.2,431.2l-3.25,7.3Z" transform="translate(0 -337.629)" fill="#1a1818"/>
      <path id="Path_124" data-name="Path 124" d="M94.749,447.2l-6.429-8.1H87.039v8.1H85.054V429.773s3.926-.007,5.268-.007c1.418,0,5.573.53,5.573,4.36,0,3.579-3.1,4.583-5.155,4.865l6.516,8.207Zm-7.71-8.555H88.56c3.252,0,5.248-1.105,5.248-4.209,0-3.037-1.689-4.209-4.538-4.209H87.039Z" transform="translate(-67.063 -338.861)" fill="#1a1818"/>
      <path id="Path_125" data-name="Path 125" d="M171.5,437.313c0,7.378-6.064,9.135-9.543,9.135s-9.543-1.757-9.543-9.135c0-6.43,4.573-9.11,9.543-9.11s9.543,2.681,9.543,9.11m-2.036,0c0-7.19-4.817-8.653-7.507-8.653s-7.507,1.462-7.507,8.653c0,7.289,4.384,8.678,7.507,8.678s7.507-1.389,7.507-8.678" transform="translate(-120.176 -337.629)" fill="#1a1818"/>
      <path id="Path_126" data-name="Path 126" d="M262.048,429.8l-7.9,17.762h-.153l-7.61-17.762h2.136l6.327,14.767,6.57-14.767Z" transform="translate(-194.267 -338.889)" fill="#1a1818"/>
      <path id="Path_127" data-name="Path 127" d="M313.787,438.96h-6.779l-3.117,7.005h-.632l7.9-17.762h.153l7.61,17.762h-2.136Zm-.2-.458-3.13-7.3-3.25,7.3Z" transform="translate(-239.113 -337.629)" fill="#1a1818"/>
      <path id="Path_128" data-name="Path 128" d="M402.467,446.449h-.076l-13.62-15.084v14.6h-.458V428.2h.076l13.62,15.084V428.541h.458Z" transform="translate(-306.177 -337.629)" fill="#1a1818"/>
      <path id="Path_129" data-name="Path 129" d="M249.614,252.99l.017.04-.014-.021c-.029-.043-.059-.087-.09-.129h0l-.01-.025.04.034.03.025Z" transform="translate(-196.738 -199.37)" fill="#c95f2b"/>
    </g>
  </g>
</svg>
