<svg id="Group_646" data-name="Group 646" xmlns="http://www.w3.org/2000/svg" xmlns:xlink="http://www.w3.org/1999/xlink" width="264.515" height="177.593" viewBox="0 0 264.515 177.593">
  <defs>
    <clipPath id="clip-path">
      <rect id="Rectangle_36" data-name="Rectangle 36" width="264.515" height="177.593" fill="none"/>
    </clipPath>
  </defs>
  <g id="Group_9" data-name="Group 9" clip-path="url(#clip-path)">
    <path id="Path_22" data-name="Path 22" d="M44.116,166.215a3.045,3.045,0,0,0-1-.592,3.507,3.507,0,0,0-1.219-.212H28.855v12.182h3.062v-4.2h9.17a.851.851,0,0,1,.626.254.908.908,0,0,1,.271.626v3.316h3.045v-3.5a1.919,1.919,0,0,0-.431-1.234,1.844,1.844,0,0,0-1.142-.677,1.577,1.577,0,0,0,.626-.28,2.245,2.245,0,0,0,.5-.507,2.454,2.454,0,0,0,.33-.652,2.179,2.179,0,0,0,.118-.693V168.3a2.757,2.757,0,0,0-.913-2.089m-2.132,3.968a.7.7,0,0,1-.271.583,1.007,1.007,0,0,1-.643.212H31.917v-3.146h9.17a.959.959,0,0,1,.635.219.731.731,0,0,1,.262.592Z" fill="#fff"/>
    <path id="Path_23" data-name="Path 23" d="M60.936,177.593H75.148v-2.419H64V172.7h8.578v-2.419H64v-2.453h11.15v-2.42H60.936Z" fill="#fff"/>
    <path id="Path_24" data-name="Path 24" d="M104.421,174.971l-9.2-9.56H91.055v12.182h3.062v-9.559l9.187,9.559h4.162V165.411h-3.045Z" fill="#fff"/>
    <path id="Path_25" data-name="Path 25" d="M123.373,167.831h6.582v9.762h3.062v-9.762h6.48v-2.42H123.373Z" fill="#fff"/>
    <path id="Path_26" data-name="Path 26" d="M162.409,165.411l-7,12.182h3.349l1.083-1.844h9.453l1.054,1.844h3.35l-7-12.182Zm-1.218,7.935,3.35-5.9,3.375,5.9Z" fill="#fff"/>
    <path id="Path_27" data-name="Path 27" d="M192.663,165.411H189.6v12.182h14.212v-2.419h-11.15Z" fill="#fff"/>
    <path id="Path_28" data-name="Path 28" d="M235.184,171.147a2.99,2.99,0,0,0-2.385-.862h-9.137a.895.895,0,0,1-.9-.9v-.659a.94.94,0,0,1,.27-.634.837.837,0,0,1,.626-.262h11.657v-2.421H222.85a3.4,3.4,0,0,0-1.218.221,3.018,3.018,0,0,0-1,.617,2.919,2.919,0,0,0-.668.947,2.888,2.888,0,0,0-.246,1.193v1.625a2.413,2.413,0,0,0,.246,1.1,2.614,2.614,0,0,0,.668.846,3.045,3.045,0,0,0,1,.55,3.773,3.773,0,0,0,1.218.195h9.136a.895.895,0,0,1,.9.9v.677a.895.895,0,0,1-.9.9H220.008v2.419H232.8a3.346,3.346,0,0,0,1.412-.27,2.778,2.778,0,0,0,.965-.72,3,3,0,0,0,.566-1.006,3.54,3.54,0,0,0,.186-1.133V173.4a3.318,3.318,0,0,0-.744-2.25" fill="#fff"/>
    <path id="Path_29" data-name="Path 29" d="M97.316,103.257v0l-4.208,4.843-.062.073V125.31H65.556V103.262l-4.209,4.843v44.36h.005l4.2-4.838V129.312H89.705l7.08-8.158.537-.62V103.257ZM94.43,137.713l-.114.129-1.27,1.461v13.162l.062-.072,4.208-4.843v-.006l.006-.005V134.383Z" fill="#fff"/>
    <path id="Path_30" data-name="Path 30" d="M164.519,117.808a24.162,24.162,0,0,0-2.773-4.828,24.577,24.577,0,0,0-3.077-3.429,25.412,25.412,0,0,0-3.532-2.808,22.9,22.9,0,0,0-4.332-2.236,25.431,25.431,0,0,0-9.336-1.694,25.823,25.823,0,0,0-9.455,1.709,23.57,23.57,0,0,0-7.848,5.029,25.231,25.231,0,0,0-5.794,8.36,24.751,24.751,0,0,0-2.065,9.692c0,.083,0,.16,0,.243a25.039,25.039,0,0,0,2.07,9.929c.057.135.119.269.181.4a25.083,25.083,0,0,0,3.909,6.2l2.757-3.17a20.4,20.4,0,0,1-4.575-13.358,22.63,22.63,0,0,1,.821-6.191,20.021,20.021,0,0,1,5.231-8.789,20.559,20.559,0,0,1,6.119-4.275,20.827,20.827,0,0,1,8.654-1.776,20.068,20.068,0,0,1,10.967,3.041,21.415,21.415,0,0,1,3.739,3.01,20.992,20.992,0,0,1,2.742,3.367,20.768,20.768,0,0,1,3.273,11.613,20.3,20.3,0,0,1-6.052,14.943,20.06,20.06,0,0,1-14.736,6.052,20.651,20.651,0,0,1-9.083-1.973l-2.783,3.2a23.514,23.514,0,0,0,2.478,1.131,25.927,25.927,0,0,0,9.455,1.709,25.564,25.564,0,0,0,9.387-1.709,23.725,23.725,0,0,0,7.813-5.03,24.719,24.719,0,0,0,5.778-8.344,25.461,25.461,0,0,0,.072-20.019" fill="#fff"/>
    <path id="Path_31" data-name="Path 31" d="M187.862,141.761a15.422,15.422,0,0,0,5.044,5.2,12.351,12.351,0,0,0,6.513,1.744,11.184,11.184,0,0,0,7.677-2.667,8.59,8.59,0,0,0,3.026-6.736q0-6.771-11.489-10.224c-.8-.227-1.4-.411-1.812-.547q-5.882-1.777-8.617-4.839a11.328,11.328,0,0,1-2.736-7.847,12.023,12.023,0,0,1,4.087-9.2,14.584,14.584,0,0,1,10.275-3.762,16.876,16.876,0,0,1,6.839,1.334,21.021,21.021,0,0,1,6.121,4.342l-2.8,3.249a19.93,19.93,0,0,0-5.18-3.744,12.384,12.384,0,0,0-5.249-1.112,9.717,9.717,0,0,0-6.856,2.616,8.336,8.336,0,0,0-2.821,6.343,7.5,7.5,0,0,0,1.1,4.07,8.6,8.6,0,0,0,3.316,2.94,33.426,33.426,0,0,0,6.019,2.189q2.393.684,3.658,1.094a17.5,17.5,0,0,1,7.968,4.992,11.577,11.577,0,0,1,2.667,7.694,13.022,13.022,0,0,1-4.309,9.95,15.45,15.45,0,0,1-10.942,4,16.732,16.732,0,0,1-8.463-2.223,18.562,18.562,0,0,1-6.48-6.326Z" fill="#fff"/>
    <path id="Path_32" data-name="Path 32" d="M237.225,103.561l-3.59,4.14h13.3v16.13l.3-.35.53-.62.25-.28,3.19-3.67V107.7h9.72l1.1-1.27,2.49-2.87Zm10.79,32.87-.25.28-.83.97v14.48l.1-.12,4.17-4.81v-14.48Z" fill="#fff"/>
    <path id="Path_33" data-name="Path 33" d="M25.6,125.8l-.8.914-.114.129-2,2.308-.625.718H38.2V144.3a22.239,22.239,0,0,1-6.242,3.4,20.761,20.761,0,0,1-6.858,1.141,20.016,20.016,0,0,1-14.494-5.788l-.242-.243a21.606,21.606,0,0,1,.015-29.944,20.091,20.091,0,0,1,14.789-6.051,20.318,20.318,0,0,1,7.218,1.3,21.41,21.41,0,0,1,5.721,3.263l2.747-3.16a23.738,23.738,0,0,0-6.81-3.883,25.672,25.672,0,0,0-8.876-1.523,25.466,25.466,0,0,0-10.5,2.158,23.559,23.559,0,0,0-8.344,6.259,26.1,26.1,0,0,0-4.684,7.812A24.45,24.45,0,0,0,0,127.846a25.1,25.1,0,0,0,2.086,9.986,24.732,24.732,0,0,0,5.778,8.345,23.566,23.566,0,0,0,7.849,5.024,25.823,25.823,0,0,0,9.455,1.709,25.462,25.462,0,0,0,9.387-1.709,23.624,23.624,0,0,0,7.812-5.024V125.8Z" fill="#fff"/>
    <path id="Path_34" data-name="Path 34" d="M181.052,77.824,160.026,44.658l-1.067-1.715,1.934-.585a21.375,21.375,0,0,0,10.274-6.924,22,22,0,0,0,5.118-13.951V20.8a20.369,20.369,0,0,0-1.666-8.062A20.927,20.927,0,0,0,170.1,6.118,21.123,21.123,0,0,0,155.218,0H124.947V23.376L133.72,13.26V8.525h21.5a12.417,12.417,0,0,1,8.788,3.618,12.154,12.154,0,0,1,3.666,8.68v.66c0,3.945-1.031,6.968-3.066,8.984-2.211,2.185-6,4.735-9.388,4.735h-40.05l-6.939,8h16.718V68.807l-1.2.277a31.712,31.712,0,0,1-7.123.809A31.075,31.075,0,0,1,85.41,39.031,30.439,30.439,0,0,1,92.148,19.9a31.334,31.334,0,0,1,15.4-10.4l.181-.2.176-.2,1.167-1.317.111-.126L115.735.112A40.383,40.383,0,0,0,109.8.685c-.527.091-.962.173-1.366.258A39.629,39.629,0,0,0,86.6,13.855a38.6,38.6,0,0,0,2.2,52.7,39.725,39.725,0,0,0,44.664,7.672l.264-.124V43.2h15.589l.454.738L171,77.824Z" fill="#fff"/>
  </g>
</svg>
