<svg xmlns="http://www.w3.org/2000/svg" xmlns:xlink="http://www.w3.org/1999/xlink" width="268.252" height="52.141" viewBox="0 0 268.252 52.141">
  <defs>
    <clipPath id="clip-path">
      <rect id="Rectangle_3" data-name="Rectangle 3" width="268.252" height="52.141" fill="#f3f3f3"/>
    </clipPath>
  </defs>
  <g id="Group_5" data-name="Group 5" transform="translate(0 0)">
    <g id="Group_2" data-name="Group 2" transform="translate(0 0)" clip-path="url(#clip-path)">
      <path id="Path_6" data-name="Path 6" d="M69.421,52.052,55.358,29.87l-.713-1.148,1.294-.391A14.293,14.293,0,0,0,62.81,23.7a14.71,14.71,0,0,0,3.424-9.331v-.456a13.626,13.626,0,0,0-1.114-5.391,13.985,13.985,0,0,0-3.025-4.429A14.189,14.189,0,0,0,57.615,1.1,14.048,14.048,0,0,0,52.143,0H31.9V15.635l5.867-6.766V5.7H52.143a8.305,8.305,0,0,1,5.878,2.42,8.127,8.127,0,0,1,2.452,5.805v.441c0,2.639-.69,4.661-2.05,6.01-1.479,1.461-4.01,3.166-6.279,3.166H25.356l-4.642,5.35H31.9V46.022l-.8.185a21.244,21.244,0,0,1-4.765.541A20.784,20.784,0,0,1,5.453,26.105a20.37,20.37,0,0,1,4.506-12.8,20.948,20.948,0,0,1,10.3-6.956l.122-.136.118-.132.781-.88.074-.084L25.735.076a26.9,26.9,0,0,0-3.969.382c-.352.061-.643.116-.913.173A26.505,26.505,0,0,0,6.245,9.268,25.818,25.818,0,0,0,7.715,44.515a26.57,26.57,0,0,0,29.873,5.131l.176-.083V28.894H48.191l.3.493L62.7,52.052Z" transform="translate(0 0)" fill="#f3f3f3"/>
      <path id="Path_7" data-name="Path 7" d="M90.938,34.28a2.125,2.125,0,0,0-.7-.412,2.448,2.448,0,0,0-.85-.148H80.3v8.494h2.134V39.288h6.394a.6.6,0,0,1,.436.177.637.637,0,0,1,.189.436v2.313h2.123V39.772a1.341,1.341,0,0,0-.3-.861,1.291,1.291,0,0,0-.8-.471,1.1,1.1,0,0,0,.436-.2,1.556,1.556,0,0,0,.348-.353,1.746,1.746,0,0,0,.23-.454,1.544,1.544,0,0,0,.082-.484V35.738a1.933,1.933,0,0,0-.636-1.457m-1.487,2.767a.489.489,0,0,1-.189.406.706.706,0,0,1-.448.148H82.431V35.408h6.394a.67.67,0,0,1,.443.154.508.508,0,0,1,.183.412Z" transform="translate(23.638 9.927)" fill="#f3f3f3"/>
      <path id="Path_8" data-name="Path 8" d="M97.579,42.215h9.91V40.528H99.714V38.805h5.98V37.119h-5.98V35.408h7.774V33.721h-9.91Z" transform="translate(28.725 9.927)" fill="#f3f3f3"/>
      <path id="Path_9" data-name="Path 9" d="M123.123,40.387l-6.418-6.666h-2.9v8.5h2.136V35.549l6.4,6.666h2.9v-8.5h-2.123Z" transform="translate(33.501 9.927)" fill="#f3f3f3"/>
      <path id="Path_10" data-name="Path 10" d="M131.213,35.408h4.59v6.807h2.134V35.408h4.519V33.72H131.213Z" transform="translate(38.626 9.927)" fill="#f3f3f3"/>
      <path id="Path_11" data-name="Path 11" d="M153.352,33.72l-4.884,8.5H150.8l.756-1.287h6.591l.735,1.287h2.335l-4.884-8.5Zm-.849,5.533,2.335-4.117,2.354,4.117Z" transform="translate(43.706 9.926)" fill="#f3f3f3"/>
      <path id="Path_12" data-name="Path 12" d="M169.024,33.721h-2.136v8.494h9.91V40.528h-7.774Z" transform="translate(49.129 9.927)" fill="#f3f3f3"/>
      <path id="Path_13" data-name="Path 13" d="M193.9,37.72a2.085,2.085,0,0,0-1.663-.6h-6.371a.625.625,0,0,1-.625-.625v-.46a.658.658,0,0,1,.189-.443.584.584,0,0,1,.436-.183h8.129V33.72H185.3a2.353,2.353,0,0,0-.849.154,2.109,2.109,0,0,0-.7.43,2.041,2.041,0,0,0-.466.661,2.016,2.016,0,0,0-.171.832V36.93a1.692,1.692,0,0,0,.171.766,1.84,1.84,0,0,0,.466.59,2.145,2.145,0,0,0,.7.383,2.623,2.623,0,0,0,.849.136h6.37a.625.625,0,0,1,.626.624V39.9a.625.625,0,0,1-.626.625h-8.351v1.688h8.918a2.334,2.334,0,0,0,.985-.189,1.935,1.935,0,0,0,.673-.5,2.1,2.1,0,0,0,.395-.7,2.48,2.48,0,0,0,.129-.79v-.744a2.313,2.313,0,0,0-.519-1.569" transform="translate(53.905 9.926)" fill="#f3f3f3"/>
      <path id="Path_14" data-name="Path 14" d="M122.88.239v0L119.946,3.62l-.043.05V15.616H100.734V.243L97.8,3.62V34.55h0l2.932-3.373V18.406h16.839l4.935-5.688.375-.432V.239Zm-2.013,24.025-.079.091-.885,1.019V34.55l.043-.05,2.934-3.377v0l0,0V21.942Z" transform="translate(28.79 0.07)" fill="#f3f3f3"/>
      <path id="Path_15" data-name="Path 15" d="M161.024,10.456a16.836,16.836,0,0,0-1.934-3.367A17.142,17.142,0,0,0,156.944,4.7a17.74,17.74,0,0,0-2.462-1.958,15.965,15.965,0,0,0-3.021-1.558A17.734,17.734,0,0,0,144.952,0a18,18,0,0,0-6.592,1.192A16.449,16.449,0,0,0,132.887,4.7a17.588,17.588,0,0,0-4.04,5.83,17.242,17.242,0,0,0-1.439,6.758c0,.057,0,.111,0,.168a17.461,17.461,0,0,0,1.443,6.924c.04.094.083.188.127.281A17.529,17.529,0,0,0,131.7,28.98l1.923-2.211a14.221,14.221,0,0,1-3.191-9.314A15.821,15.821,0,0,1,131,13.138a13.969,13.969,0,0,1,3.648-6.128,14.327,14.327,0,0,1,4.266-2.981,14.519,14.519,0,0,1,6.034-1.239,14,14,0,0,1,7.647,2.12,14.967,14.967,0,0,1,2.607,2.1,14.575,14.575,0,0,1,1.912,2.348,14.471,14.471,0,0,1,2.282,8.1,14.151,14.151,0,0,1-4.22,10.42,13.989,13.989,0,0,1-10.275,4.22,14.407,14.407,0,0,1-6.333-1.375l-1.94,2.232a16.28,16.28,0,0,0,1.728.788,18.076,18.076,0,0,0,6.592,1.192,17.827,17.827,0,0,0,6.546-1.192,16.514,16.514,0,0,0,5.447-3.506,17.241,17.241,0,0,0,4.029-5.818,17.75,17.75,0,0,0,.05-13.959" transform="translate(37.505 0)" fill="#f3f3f3"/>
      <path id="Path_16" data-name="Path 16" d="M166.5,27.146a10.768,10.768,0,0,0,3.517,3.624,8.62,8.62,0,0,0,4.542,1.215,7.8,7.8,0,0,0,5.352-1.86,5.988,5.988,0,0,0,2.11-4.7q0-4.722-8.011-7.129-.835-.237-1.263-.382a12.892,12.892,0,0,1-6.009-3.373,7.9,7.9,0,0,1-1.907-5.471A8.382,8.382,0,0,1,167.68,2.66,10.168,10.168,0,0,1,174.844.038a11.761,11.761,0,0,1,4.768.929,14.645,14.645,0,0,1,4.268,3.028L181.926,6.26a13.913,13.913,0,0,0-3.613-2.611,8.637,8.637,0,0,0-3.659-.775A6.778,6.778,0,0,0,169.873,4.7a5.812,5.812,0,0,0-1.966,4.423,5.229,5.229,0,0,0,.762,2.839,6.008,6.008,0,0,0,2.313,2.05,23.343,23.343,0,0,0,4.2,1.526q1.668.476,2.551.762a12.207,12.207,0,0,1,5.555,3.481,8.071,8.071,0,0,1,1.859,5.365,9.08,9.08,0,0,1-3,6.938,10.77,10.77,0,0,1-7.629,2.789,11.671,11.671,0,0,1-5.9-1.549,12.932,12.932,0,0,1-4.517-4.411Z" transform="translate(48.305 0.011)" fill="#f3f3f3"/>
      <path id="Path_17" data-name="Path 17" d="M193.113.4l-2.5,2.886h9.273V14.538l.21-.245.369-.432.175-.2,2.224-2.559V3.289h6.777L210.4,2.4l1.736-2Zm7.523,22.92-.175.2-.579.676v10.1l.07-.084,2.907-3.354v-10.1Z" transform="translate(56.112 0.119)" fill="#f3f3f3"/>
      <path id="Path_18" data-name="Path 18" d="M82.6,16.026l-.554.637-.08.091-1.4,1.609-.435.5H91.389V28.926A15.474,15.474,0,0,1,87.036,31.3a14.457,14.457,0,0,1-4.781.8,13.955,13.955,0,0,1-10.107-4.036l-.17-.17a14.2,14.2,0,0,1-4.2-10.434A14.216,14.216,0,0,1,71.99,7.01,14.008,14.008,0,0,1,82.3,2.791a14.174,14.174,0,0,1,5.034.907,14.937,14.937,0,0,1,3.989,2.276l1.914-2.2a16.556,16.556,0,0,0-4.748-2.708,18.553,18.553,0,0,0-13.509.443,16.433,16.433,0,0,0-5.818,4.363A18.229,18.229,0,0,0,65.9,11.317a17.054,17.054,0,0,0-1.144,6.138,17.485,17.485,0,0,0,1.455,6.964,17.238,17.238,0,0,0,4.028,5.818,16.438,16.438,0,0,0,5.473,3.5A18,18,0,0,0,82.3,34.931a17.747,17.747,0,0,0,6.546-1.192,16.48,16.48,0,0,0,5.448-3.5V16.026Z" transform="translate(19.062 0)" fill="#f3f3f3"/>
    </g>
  </g>
</svg>
