<?xml version="1.0" encoding="UTF-8"?>
<svg id="Layer_2" data-name="Layer 2" xmlns="http://www.w3.org/2000/svg" viewBox="0 0 556.31 556.03">
  <defs>
    <style>
      .cls-1 {
        fill: #1d1d1d;
      }
    </style>
  </defs>
  <g id="Layer_1-2" data-name="Layer 1">
    <path class="cls-1" d="M446.91,556.03H109.42c-29.24,0-56.71-11.38-77.39-32.05C11.36,503.31-.02,475.83,0,446.59V151.6C0,91.28,49.09,42.18,109.42,42.18h17.24v-17.45c0-13.65,11.08-24.73,24.73-24.73s24.73,11.08,24.73,24.73v17.45h204.04v-17.45c0-13.65,11.08-24.73,24.73-24.73s24.73,11.08,24.73,24.73v17.45h17.3c60.32,0,109.39,49.09,109.39,109.42v295.02c0,60.32-49.07,109.42-109.39,109.42ZM49.46,218.29v228.32c0,16.01,6.23,31.06,17.54,42.4,11.31,11.31,26.36,17.56,42.38,17.56h337.54c33.06,0,59.93-26.88,59.93-59.93v-228.34H49.46ZM49.46,168.83h457.39v-17.24c0-33.06-26.88-59.96-59.93-59.96h-17.3v38.6c0,13.65-11.08,24.73-24.73,24.73s-24.73-11.08-24.73-24.73v-38.6h-204.04v38.6c0,13.65-11.08,24.73-24.73,24.73s-24.73-11.08-24.73-24.73v-38.6h-17.24c-33.06,0-59.96,26.88-59.96,59.93v17.26ZM426.05,450.84h-42.22c-13.65,0-24.73-11.08-24.73-24.73s11.08-24.73,24.73-24.73h42.22c13.65,0,24.73,11.08,24.73,24.73s-11.08,24.73-24.73,24.73ZM299.14,450.84h-42.22c-13.65,0-24.73-11.08-24.73-24.73s11.08-24.73,24.73-24.73h42.22c13.65,0,24.73,11.08,24.73,24.73s-11.08,24.73-24.73,24.73ZM172.48,450.84h-42.2c-13.65,0-24.73-11.08-24.73-24.73s11.08-24.73,24.73-24.73h42.2c13.65,0,24.73,11.08,24.73,24.73s-11.08,24.73-24.73,24.73ZM426.05,324.19h-42.22c-13.65,0-24.73-11.08-24.73-24.73s11.08-24.73,24.73-24.73h42.22c13.65,0,24.73,11.08,24.73,24.73s-11.08,24.73-24.73,24.73ZM299.14,324.19h-42.22c-13.65,0-24.73-11.08-24.73-24.73s11.08-24.73,24.73-24.73h42.22c13.65,0,24.73,11.08,24.73,24.73s-11.08,24.73-24.73,24.73ZM172.48,324.19h-42.2c-13.65,0-24.73-11.08-24.73-24.73s11.08-24.73,24.73-24.73h42.2c13.65,0,24.73,11.08,24.73,24.73s-11.08,24.73-24.73,24.73Z"/>
  </g>
</svg>