<svg id="Group_680" data-name="Group 680" xmlns="http://www.w3.org/2000/svg" xmlns:xlink="http://www.w3.org/1999/xlink" width="59.194" height="59.179" viewBox="0 0 59.194 59.179">
  <defs>
    <clipPath id="clip-path">
      <rect id="Rectangle_727" data-name="Rectangle 727" width="59.194" height="59.179" fill="#d1d1d1"/>
    </clipPath>
  </defs>
  <g id="Group_678" data-name="Group 678" clip-path="url(#clip-path)">
    <path id="Path_1100" data-name="Path 1100" d="M50.264,10.44l-8.4.87c-.06-.42-.09-.86-.12-1.32a11.011,11.011,0,0,0-.14-1.51c.31-.03.63-.06.95-.08.43-.03.86-.06,1.29-.12l.08-.01c.45-.05.84-.12.96-.42L45,7.58l-.25-.16A28.988,28.988,0,0,0,34.244,3.2a26.7,26.7,0,0,0-25.3,9.38,26.48,26.48,0,0,0-4.42,26.4,48.722,48.722,0,0,0,2.62,5.33l-2.33,1.5A31.215,31.215,0,0,1,.274,33.58a17.108,17.108,0,0,0-.25-2.12c.02-.6.01-1.21-.01-1.8-.01-.64-.03-1.3.01-1.94C.874,13.21,13.184.82,27.464.12L27.8,0h3.53l4.3.61a28.843,28.843,0,0,1,10.66,4.58l.59.41L46.7,2.31l2.7-.25Z" fill="#d1d1d1"/>
    <path id="Path_1101" data-name="Path 1101" d="M59.194,31.39a18.156,18.156,0,0,0-.26,2.16A29.8,29.8,0,0,1,33.6,58.91a15.061,15.061,0,0,0-2.11.25c-.59-.03-1.19-.01-1.76,0-.62.02-1.25.03-1.86,0a32.727,32.727,0,0,1-4.3-.61,29.028,29.028,0,0,1-10.66-4.59l-.59-.41.18,3.29-2.7.25-.86-8.38,8.39-.86a12.911,12.911,0,0,1,.13,1.31,13.01,13.01,0,0,0,.14,1.52c-.35.04-.7.06-1.06.09-.39.03-.78.06-1.22.11-.48.05-.88.12-1.01.43l-.11.26.24.16a27.155,27.155,0,0,0,25.82,2.43,26.867,26.867,0,0,0,14.42-33.98,48.721,48.721,0,0,0-2.62-5.33l2.33-1.51a31.277,31.277,0,0,1,4.54,12.27c.11.76.21,1.57.25,2.23Z" fill="#d1d1d1"/>
    <path id="Path_1102" data-name="Path 1102" d="M18.6,33.55v2.11H9.964V33.91a1.114,1.114,0,0,0,.24-.16c.2-.19.52-.49.92-.85,2.57-2.37,4.09-3.86,4.26-4.52.39-1.44-.41-1.98-.78-2.14a3.086,3.086,0,0,0-3.28.87l-1.93-1.02a5.786,5.786,0,0,1,1.3-1.22,6.382,6.382,0,0,1,6.07-.13,2.939,2.939,0,0,1,1.49,2.88c-.1,1.63-1.41,2.81-2.67,3.94-.5.46-1.02.93-1.45,1.41l-.51.58Z" fill="#d1d1d1"/>
    <path id="Path_1103" data-name="Path 1103" d="M31.244,31.33v1.99h-1.88v2.34h-2.57V33.32h-6.43v-1.7l5.27-7.31h2.6l-4.79,7.02h3.47v-2.1h2.45v2.1Z" fill="#d1d1d1"/>
    <path id="Path_1104" data-name="Path 1104" d="M49.944,24.31v1.63l-4.26,9.72h-2.81l3.98-9.35h-4.04v1.86h-2.22V24.31Z" fill="#d1d1d1"/>
    <path id="Path_1105" data-name="Path 1105" d="M39.744,21.86,34.324,37.3h-2.13l5.37-15.44Z" fill="#d1d1d1"/>
  </g>
</svg>
