<?xml version="1.0" encoding="UTF-8"?>
<svg id="Layer_2" data-name="Layer 2" xmlns="http://www.w3.org/2000/svg" viewBox="0 0 24.62 17.46">
  <defs>
    <style>
      .cls-1 {
        fill: #1c1d1d;
      }
    </style>
  </defs>
  <g id="Layer_2-2" data-name="Layer 2">
    <g id="Layer_1-2" data-name="Layer 1-2">
      <g id="insep1-1">
        <g id="Path_235" data-name="Path 235">
          <path class="cls-1" d="M23.41,6.89l-.55-.71-.04-.05v-.27h.2s.88-.01.88-.01c.38,0,.69-.31.69-.69s-.31-.69-.69-.69h-2.28l-.06-.1-1.38-2.3c-.77-1.28-2.17-2.07-3.65-2.07h-8.46c-1.48,0-2.89.79-3.66,2.07l-1.38,2.3-.06.1H.69c-.38,0-.69.31-.69.69s.31.69.69.69h1.29l-.24.32-.54.71c-.77,1.05-1.2,2.35-1.2,3.64v4.46c0,1.36,1.11,2.47,2.48,2.48h1.79c1.37,0,2.48-1.11,2.48-2.48v-.2h11.11v.2c0,1.37,1.11,2.48,2.48,2.48h1.8c1.37,0,2.48-1.11,2.48-2.48v-4.46c0-1.3-.43-2.59-1.21-3.63ZM4.4,4.79l1.2-2,.06-.1h.01c.54-.82,1.43-1.3,2.41-1.3h8.45c1.02,0,1.94.52,2.47,1.4l1.2,2,.1.16-.16.11-.62.41c-.76.51-1.66.78-2.59.78H7.67c-.92,0-1.82-.27-2.59-.78l-.62-.41-.16-.11.1-.16ZM23.23,15.18h-.03c-.09.51-.54.89-1.07.89h-1.79c-.6,0-1.08-.49-1.08-1.09v-.89c0-.38-.31-.69-.69-.69H6.05c-.38,0-.69.31-.69.69v.89c0,.6-.49,1.09-1.09,1.09h-1.79c-.6,0-1.09-.49-1.09-1.09v-4.46c0-1.01.33-2,.93-2.8l1.1-1.47.11-.15.16.1.63.42c.99.67,2.16,1.02,3.36,1.02h9.26c1.2,0,2.37-.35,3.36-1.02l.63-.42.16-.1.11.15,1.1,1.47c.6.8.93,1.79.93,2.8v4.66Z"/>
        </g>
        <g id="Path_236" data-name="Path 236">
          <path class="cls-1" d="M21.03,10.52c0,.38-.31.69-.69.69s-.68-.31-.68-.69.31-.69.68-.69.69.31.69.69Z"/>
        </g>
        <g id="Path_237" data-name="Path 237">
          <circle class="cls-1" cx="4.26" cy="10.52" r=".69"/>
        </g>
      </g>
    </g>
  </g>
</svg>