<?xml version="1.0" encoding="UTF-8"?>
<svg id="Layer_2" data-name="Layer 2" xmlns="http://www.w3.org/2000/svg" viewBox="0 0 25 17.86">
  <defs>
    <style>
      .cls-1 {
        fill: #1c1d1d;
      }
    </style>
  </defs>
  <g id="Layer_1-2" data-name="Layer 1">
    <g id="insep1-1">
      <path id="Path_235" data-name="Path 235" class="cls-1" d="M23.21,6.25h.89c.49,0,.89-.4.89-.89s-.4-.89-.89-.89h-2.17l-1.38-2.3C19.74.82,18.29,0,16.73,0h-8.46c-1.57,0-3.02.83-3.83,2.17l-1.38,2.3H.89c-.49,0-.89.4-.89.89s.4.89.89.89h.89l-.54.71C.44,8.05,0,9.37,0,10.72v4.46c0,1.48,1.2,2.67,2.68,2.68h1.79c1.48,0,2.68-1.2,2.68-2.68h10.71c0,1.48,1.2,2.68,2.68,2.68h1.79c1.48,0,2.68-1.2,2.68-2.68v-4.46c0-1.35-.44-2.67-1.25-3.75l-.54-.72ZM5.98,3.09c.49-.81,1.36-1.3,2.3-1.3h8.45c.94,0,1.81.49,2.3,1.3l1.2,2-.62.41c-.73.49-1.6.75-2.48.75H7.87c-.88,0-1.74-.26-2.48-.75l-.62-.41,1.2-2h0ZM23.22,15.18c0,.49-.4.89-.89.89h-1.79c-.49,0-.89-.4-.89-.89v-.89c0-.49-.4-.89-.89-.89H6.25c-.49,0-.89.4-.89.89v.89c0,.49-.4.89-.89.89h-1.79c-.49,0-.89-.4-.89-.89v-4.46c0-.97.31-1.91.89-2.68l1.1-1.47.63.42c1.03.69,2.23,1.05,3.47,1.05h9.26c1.23,0,2.44-.36,3.47-1.05l.63-.42,1.1,1.47c.58.77.89,1.71.89,2.68v4.46h0Z"/>
      <path id="Path_236" data-name="Path 236" class="cls-1" d="M20.54,11.61c.49,0,.89-.4.89-.89s-.4-.89-.89-.89-.89.4-.89.89h0c0,.49.4.89.89.89Z"/>
      <path id="Path_237" data-name="Path 237" class="cls-1" d="M4.46,11.61c.49,0,.89-.4.89-.89s-.4-.89-.89-.89-.89.4-.89.89h0c0,.49.4.89.89.89Z"/>
    </g>
  </g>
</svg>