<?xml version="1.0" encoding="UTF-8"?>
<svg id="Layer_2" data-name="Layer 2" xmlns="http://www.w3.org/2000/svg" viewBox="0 0 26 26">
  <defs>
    <style>
      .cls-1 {
        fill: #f3f3f4;
      }

      .cls-2 {
        fill: none;
      }
    </style>
  </defs>
  <g id="Layer_1-2" data-name="Layer 1">
    <g id="_9025852_phone_call_icon" data-name=" 9025852 phone call icon">
      <g id="Rectangle_173" data-name="Rectangle 173">
        <rect class="cls-2" width="26" height="26"/>
      </g>
      <g id="Path_232" data-name="Path 232">
        <path class="cls-1" d="M22.48,10.61c-.44,0-.84-.29-.96-.74-.7-2.62-2.77-4.69-5.39-5.39-.53-.14-.85-.69-.71-1.22.14-.53.7-.85,1.22-.71,3.31.89,5.92,3.5,6.81,6.81.14.53-.17,1.08-.71,1.22-.09.02-.17.03-.26.03Z"/>
      </g>
      <g id="Path_233" data-name="Path 233">
        <path class="cls-1" d="M19.15,11.51c-.44,0-.85-.3-.97-.74-.38-1.44-1.51-2.57-2.95-2.95-.53-.14-.85-.69-.71-1.22.14-.53.69-.85,1.22-.71,2.13.57,3.81,2.24,4.37,4.38.14.53-.18,1.08-.71,1.22-.09.02-.17.03-.26.03Z"/>
      </g>
      <g id="Path_234" data-name="Path 234">
        <path class="cls-1" d="M18.17,23.49c-8.63,0-15.66-7.03-15.66-15.66,0-3.1,2.32-5.73,5.39-6.12.82-.11,1.63.35,1.95,1.12l2.16,5.05c.25.56.19,1.22-.14,1.74l-1.76,2.68c.78,1.56,2.06,2.84,3.62,3.61l2.63-1.76c.53-.36,1.19-.42,1.78-.16l5.04,2.16c.76.32,1.22,1.12,1.11,1.94-.39,3.07-3.03,5.39-6.12,5.39ZM8.05,3.7c-2.03.31-3.54,2.07-3.54,4.12,0,7.53,6.13,13.66,13.66,13.66,2.06,0,3.81-1.51,4.12-3.53l-4.88-2.1-2.63,1.76c-.54.36-1.24.42-1.84.14-2.03-.98-3.69-2.63-4.67-4.66,0,0,0,0,0,0-.28-.59-.23-1.27.13-1.81l1.76-2.67-2.1-4.9ZM22.4,18s0,0,0,0h0ZM13.67,15.95h0s0,0,0,0ZM17.34,15.83s0,0,0,0h0ZM17.48,15.81h0s0,0,0,0ZM10.18,8.66h0s0,0,0,0ZM8.16,3.69h0,0ZM8.01,3.61s0,0,0,0h0Z"/>
      </g>
    </g>
  </g>
</svg>