<?xml version="1.0" encoding="UTF-8"?>
<svg id="Layer_2" data-name="Layer 2" xmlns="http://www.w3.org/2000/svg" viewBox="0 0 71.37 66.38">
  <g id="Layer_2-2" data-name="Layer 2">
    <g>
      <path d="M47.07,21.66l-1.96-1.97c-.49-.49-1.3-.49-1.79,0l-1.97,1.96c-.24.24-.37.56-.37.9s.13.66.37.9c.31.31.75.42,1.15.34-.95,2.34-3.04,4.06-5.55,4.49v-12.57h2.35c.7,0,1.27-.56,1.27-1.26s-.57-1.27-1.27-1.27h-2.35v-1.53c1.25-.51,2.07-1.71,2.07-3.07,0-1.83-1.5-3.33-3.34-3.33s-3.33,1.5-3.33,3.33c0,1.36.82,2.56,2.07,3.07v1.53h-2.36c-.69,0-1.26.57-1.26,1.27s.57,1.26,1.26,1.26h2.36v12.57c-2.51-.43-4.61-2.15-5.55-4.49.41.08.84-.05,1.14-.34.49-.5.49-1.3,0-1.8l-1.96-1.96c-.5-.49-1.3-.49-1.79,0l-1.97,1.96c-.24.24-.37.56-.37.9s.13.66.37.9.56.37.9.37.66-.13.89-.37l.02-.02c1.08,4.39,5,7.5,9.58,7.5s8.5-3.11,9.59-7.5v.02c.49.48,1.32.48,1.8,0s.5-1.3,0-1.79ZM35.68,7.78c.44,0,.8.36.8.8s-.36.8-.8.8-.8-.35-.8-.8.36-.8.8-.8Z"/>
      <path d="M67.19,12.15L44.45,1.91c-5.65-2.55-11.88-2.55-17.54,0L4.18,12.15c-2.54,1.14-4.18,3.9-4.18,7.01v9.12c0,3.04,1.64,5.79,4.06,6.95v8.66c0,.61.29,1.15.76,1.49.75,11.55,14.37,20.91,30.77,21h.24c9.94,0,19.3-3.4,25.04-9.08,3.52-3.49,5.47-7.6,5.69-11.93.46-.34.75-.88.75-1.48v-8.66c2.42-1.16,4.06-3.91,4.06-6.95v-9.12c0-3.11-1.64-5.87-4.18-7.01ZM63.57,42.02H7.79v-6.19h55.78v6.19ZM35.62,62.65c-14.14-.08-25.95-7.57-27.02-16.89h54.18c-.3,3.17-1.86,6.23-4.54,8.89-5.11,5.06-13.57,8.09-22.62,8ZM67.63,28.28c0,2.1-1.3,3.81-2.9,3.81H6.63c-1.6,0-2.9-1.71-2.9-3.81v-9.12c0-1.6.82-3.08,1.98-3.61L28.45,5.31c2.32-1.05,4.76-1.58,7.23-1.58s4.91.53,7.24,1.58l22.73,10.24c1.17.53,1.98,2.01,1.98,3.61v9.12Z"/>
    </g>
  </g>
</svg>