<?xml version="1.0" encoding="UTF-8"?>
<svg id="Layer_2" data-name="Layer 2" xmlns="http://www.w3.org/2000/svg" viewBox="0 0 24.61 24.56">
  <defs>
    <style>
      .cls-1 {
        fill: #1c1d1d;
      }
    </style>
  </defs>
  <g id="Layer_2-2" data-name="Layer 2">
    <g id="Layer_1-2" data-name="Layer 1-2">
      <g>
        <g id="Path_267" data-name="Path 267">
          <path class="cls-1" d="M23.62,11.71l-.11-.1-7.97-7.94-.14-.15,2.23-2.23c.29-.31.27-.79-.06-1.09-.14-.13-.32-.2-.52-.2s-.38.07-.52.2L4.75,11.97l-.04.03-.05.02c-1.58.44-2.7,1.91-2.71,3.57.02.41.36.74.79.74.43-.01.75-.34.77-.75,0-.8.46-1.56,1.18-1.91l.13-.07.1.1,8.26,8.23c.7.7,1.63,1.08,2.62,1.08s1.92-.38,2.62-1.08l5.1-5.09c.7-.7,1.09-1.63,1.09-2.62s-.35-1.83-.99-2.51ZM22.41,15.76l-5.1,5.09c-.4.4-.94.62-1.52.62s-1.12-.22-1.52-.62l-7.09-7.06-.34-.35h11.31c.46,0,.79-.33.81-.75.02-.43-.32-.79-.76-.81H7.04l7.26-7.26.14.14,7.97,7.95c.84.84.84,2.21,0,3.05Z"/>
        </g>
        <g id="Path_268" data-name="Path 268">
          <path class="cls-1" d="M4.3,19.39c-.42-.62-.83-1.14-.97-1.31-.03-.04-.05-.07-.06-.07-.13-.17-.35-.27-.58-.27-.18,0-.36.06-.5.18-.04.03-.07.06-.1.1-.05.05-.53.64-1,1.36-.61.71-1,1.61-1.09,2.52,0,1.46,1.2,2.66,2.68,2.66s2.68-1.2,2.68-2.68c-.09-.9-.46-1.77-1.06-2.49ZM3.81,21.89c0,.63-.51,1.13-1.13,1.13h-.2v-.02c-.53-.1-.93-.56-.93-1.11v-.05c.16-.58.45-1.14.85-1.62.01-.03.04-.07.07-.12l.04-.06.17-.25.17.25.06.1.07.09c.38.47.67,1.03.82,1.61v.03s.01.02.01.02Z"/>
        </g>
      </g>
    </g>
  </g>
</svg>