<?xml version="1.0" encoding="UTF-8"?>
<svg id="Layer_2" data-name="Layer 2" xmlns="http://www.w3.org/2000/svg" viewBox="0 0 25 24.97">
  <defs>
    <style>
      .cls-1 {
        fill: #1c1d1d;
      }
    </style>
  </defs>
  <g id="Layer_1-2" data-name="Layer 1">
    <g>
      <path id="Path_267" data-name="Path 267" class="cls-1" d="M23.85,11.67l-7.97-7.94,2.09-2.09c.37-.4.34-1.01-.06-1.38-.37-.34-.95-.34-1.32,0L4.81,12.03c-1.69.47-2.85,2.01-2.86,3.76.02.54.47.96,1.01.95.52-.02.93-.43.95-.95,0-.73.41-1.41,1.07-1.74l8.26,8.23c1.53,1.52,4,1.52,5.52,0l5.1-5.09c1.53-1.53,1.53-4,0-5.53,0,0,0,0,0,0h0ZM22.47,15.82l-5.1,5.09c-.76.76-2,.76-2.76,0l-7.09-7.06h10.83c.54.02.99-.41,1.01-.95.02-.54-.41-.99-.95-1.01-.02,0-.04,0-.06,0H7.72l6.78-6.78,7.97,7.95c.76.76.76,2,0,2.76,0,0,0,0,0,0h0Z"/>
      <path id="Path_268" data-name="Path 268" class="cls-1" d="M4.65,19.47c-.5-.74-.99-1.34-1.01-1.37-.34-.42-.96-.48-1.38-.13-.05.04-.09.08-.13.13-.02.02-.51.62-1.01,1.37-.63.74-1.02,1.66-1.12,2.62,0,1.59,1.29,2.88,2.88,2.88,1.59,0,2.88-1.29,2.88-2.88-.1-.97-.49-1.88-1.11-2.62ZM2.88,23.02c-.51,0-.93-.41-.93-.92.15-.57.43-1.1.8-1.55.04-.07.09-.13.13-.19.04.06.09.13.13.19.37.45.65.98.8,1.55,0,.51-.42.93-.93.93h0s0,0,0,0Z"/>
    </g>
  </g>
</svg>