<?xml version="1.0" encoding="UTF-8"?>
<svg id="Layer_2" data-name="Layer 2" xmlns="http://www.w3.org/2000/svg" viewBox="0 0 555.71 453.99">
  <defs>
    <style>
      .cls-1 {
        fill: #1d1d1d;
      }
    </style>
  </defs>
  <g id="Layer_2-2" data-name="Layer 2">
    <g>
      <path class="cls-1" d="M169.57,176.14c0,59.71,48.58,108.29,108.29,108.29s108.29-48.58,108.29-108.29-48.58-108.29-108.29-108.29-108.29,48.58-108.29,108.29ZM277.86,114.85c33.79,0,61.29,27.49,61.29,61.29s-27.49,61.29-61.29,61.29-61.29-27.49-61.29-61.29,27.49-61.29,61.29-61.29Z"/>
      <path class="cls-1" d="M277.86,288.29c-78.41,0-142.2,63.79-142.2,142.2,0,12.98,10.52,23.5,23.5,23.5h237.4c12.98,0,23.5-10.52,23.5-23.5,0-78.41-63.79-142.2-142.2-142.2ZM185.59,406.99c10.49-41.17,47.88-71.7,92.27-71.7s81.78,30.53,92.27,71.7h-184.53Z"/>
      <path class="cls-1" d="M331.59,76.24c10.38,7.78,25.11,5.68,32.9-4.7,11.51-15.35,29.84-24.51,49.03-24.51,33.79,0,61.29,27.49,61.29,61.29s-27.49,61.29-61.29,61.29c-12.98,0-23.5,10.52-23.5,23.5s10.52,23.5,23.5,23.5c59.71,0,108.29-48.58,108.29-108.29S473.22.02,413.51.02c-33.9,0-66.29,16.19-86.63,43.31-7.79,10.38-5.68,25.11,4.7,32.9Z"/>
      <path class="cls-1" d="M413.51,220.46c-12.98,0-23.5,10.52-23.5,23.5s10.52,23.5,23.5,23.5c44.39,0,81.78,30.53,92.27,71.7h-75.31c-12.98,0-23.5,10.52-23.5,23.5s10.52,23.5,23.5,23.5h101.74c12.98,0,23.5-10.52,23.5-23.5,0-78.41-63.79-142.2-142.2-142.2Z"/>
      <path class="cls-1" d="M142.2,216.59c12.98,0,23.5-10.52,23.5-23.5s-10.52-23.5-23.5-23.5c-19.19,0-37.52-9.16-49.03-24.51-9.82-13.1-13.96-29.23-11.64-45.44s10.8-30.54,23.9-40.36c13.1-9.82,29.23-13.96,45.44-11.64,16.21,2.31,30.54,10.8,40.36,23.9,7.79,10.38,22.52,12.49,32.9,4.7,10.38-7.79,12.49-22.52,4.7-32.9C211.47,20.2,186.15,5.2,157.51,1.11c-28.63-4.09-57.15,3.21-80.28,20.57-23.14,17.35-38.14,42.68-42.23,71.31s3.21,57.15,20.57,80.29c20.34,27.12,52.73,43.31,86.63,43.31Z"/>
      <path class="cls-1" d="M148.74,362.66c0-12.98-10.52-23.5-23.5-23.5H49.93c10.49-41.17,47.88-71.7,92.27-71.7,12.98,0,23.5-10.52,23.5-23.5s-10.52-23.5-23.5-23.5C63.79,220.46,0,284.25,0,362.66c0,12.98,10.52,23.5,23.5,23.5h101.74c12.98,0,23.5-10.52,23.5-23.5Z"/>
    </g>
  </g>
</svg>