<?xml version="1.0" encoding="UTF-8"?>
<svg id="Layer_2" data-name="Layer 2" xmlns="http://www.w3.org/2000/svg" viewBox="0 0 22.01 26.15">
  <defs>
    <style>
      .cls-1 {
        fill: #f3f3f4;
      }
    </style>
  </defs>
  <g id="Layer_1-2" data-name="Layer 1">
    <g id="locate_location_map_pin" data-name="locate location map pin">
      <path id="Path_230" data-name="Path 230" class="cls-1" d="M18.78,3.22c-4.3-4.3-11.26-4.3-15.56,0-4.3,4.3-4.3,11.26,0,15.56l4.1,4.1c.39.39,1.03.39,1.42,0s.39-1.03,0-1.42l-4.1-4.1c-3.52-3.51-3.52-9.21,0-12.73,3.51-3.52,9.21-3.52,12.73,0s3.52,9.21,0,12.73c0,0,0,0,0,0l-7.07,7.07c-.39.39-.39,1.03,0,1.42s1.03.39,1.42,0l7.07-7.07c4.3-4.29,4.3-11.26,0-15.56,0,0,0,0,0,0Z"/>
      <path id="Path_231" data-name="Path 231" class="cls-1" d="M16,11.07c0-2.76-2.24-5-5-5s-5,2.24-5,5,2.24,5,5,5,5-2.24,5-5ZM8,11.07c0-1.66,1.34-3,3-3s3,1.34,3,3-1.34,3-3,3-3-1.34-3-3Z"/>
    </g>
  </g>
</svg>