<?xml version="1.0" encoding="UTF-8"?>
<svg id="Layer_2" data-name="Layer 2" xmlns="http://www.w3.org/2000/svg" viewBox="0 0 25 25">
  <defs>
    <style>
      .cls-1 {
        fill: #1c1d1d;
      }
    </style>
  </defs>
  <g id="Layer_1-2" data-name="Layer 1">
    <g>
      <path id="Path_258" data-name="Path 258" class="cls-1" d="M24.36,10.09L14.91.64C14.5.23,13.94,0,13.36,0H2.2C.98,0,0,.98,0,2.2h0v20.6c0,1.22.98,2.2,2.2,2.2h11.77c.28,0,.53-.15.65-.4,1.69-3.35,5.12-5.48,8.87-5.5h.77c.4,0,.73-.33.73-.73,0,0,0,0,0-.01v-6.72c0-.58-.23-1.14-.64-1.55ZM23.54,17.63h-.04c-4.15.02-7.96,2.28-9.97,5.91H2.2c-.4,0-.73-.33-.73-.73V2.2c0-.4.33-.73.73-.73,0,0,0,0,0,0h11.16c.19,0,.38.08.52.22l9.44,9.44c.14.14.22.32.22.52v5.98Z"/>
      <path id="Path_259" data-name="Path 259" class="cls-1" d="M21.81,11.73L13.27,3.15c-.14-.14-.32-.22-.52-.22H3.66c-.4,0-.73.33-.73.73v8.84c0,.4.33.73.73.73h17.63c.4,0,.73-.33.73-.73h0v-.25c0-.19-.07-.38-.21-.52ZM4.4,11.77v-7.37h8.05l7.33,7.37H4.4Z"/>
      <path id="Path_260" data-name="Path 260" class="cls-1" d="M8.06,16.16H3.66c-.4,0-.73.33-.73.73,0,0,0,0,0,0v.73c-.03,1.62,1.26,2.95,2.88,2.98,1.62.03,2.95-1.26,2.98-2.88,0-.04,0-.07,0-.11v-.73c0-.4-.33-.73-.73-.73h0ZM5.86,19.09c-.81,0-1.46-.66-1.47-1.47h2.93c0,.81-.66,1.46-1.46,1.47h0Z"/>
    </g>
  </g>
</svg>