<?xml version="1.0" encoding="UTF-8"?>
<svg id="Layer_2" data-name="Layer 2" xmlns="http://www.w3.org/2000/svg" viewBox="0 0 23.49 23.51">
  <defs>
    <style>
      .cls-1 {
        fill: #1c1d1d;
      }
    </style>
  </defs>
  <g id="Layer_2-2" data-name="Layer 2">
    <g id="Layer_1-2" data-name="Layer 1-2">
      <g>
        <path class="cls-1" d="M21.78,5.63c-1.63-2.68-4.21-4.56-7.27-5.3-.92-.22-1.86-.33-2.79-.33-2.14,0-4.25.59-6.1,1.72C.09,5.1-1.66,12.35,1.72,17.87c1.63,2.68,4.21,4.56,7.26,5.3.91.22,1.85.34,2.8.34,2.12,0,4.23-.6,6.09-1.72.38-.24.5-.73.27-1.1-.15-.24-.41-.38-.68-.38-.15,0-.29.04-.42.12-.64.39-1.33.71-2.05.95l-.27.09v-.29c.07-2.28.56-3.89,1.46-4.78.55-.55,1.24-.81,2.23-.84.8.04,1.56.2,2.29.48l.2.08-.09.2c-.18.35-.38.72-.62,1.08-.12.18-.16.39-.12.6.05.21.17.39.35.51.13.09.28.14.44.14.27,0,.52-.14.67-.37.43-.64.79-1.33,1.12-2.1l.03-.13c1.34-3.41,1-7.31-.9-10.42ZM1.76,10c.51-2.88,2.22-5.4,4.7-6.91,1.6-.98,3.43-1.49,5.28-1.49.81,0,1.61.09,2.4.28,2.65.65,4.87,2.27,6.28,4.58.63,1.05,1.07,2.22,1.29,3.5l.06.34-.32-.12c-3.12-1.11-6.39-1.72-9.7-1.8-3.34.1-6.61.72-9.73,1.84l-.32.12.06-.34ZM8.93,21.49l-.26-.08c-2.12-.67-3.95-2.02-5.22-3.82v.07l-.38-.62c-.14-.24-.26-.47-.36-.69l-.1-.19.2-.08c.79-.32,1.65-.5,2.47-.53,2.34.02,3.56,1.92,3.65,5.66v.28ZM21.88,12.2c-.03.72-.15,1.46-.35,2.21l-.06.21-.2-.08c-.92-.34-1.86-.54-2.8-.58h-.13c-1.29,0-2.43.45-3.29,1.31-1.28,1.27-1.93,3.41-1.93,6.37v.18l-.18.02c-.4.04-.79.06-1.18.06-.35,0-.7-.02-1.04-.05l-.17-.02v-.18c0-6.32-2.88-7.67-5.3-7.69-1.03.04-2.05.25-3.02.63l-.21.08-.06-.21c-.2-.74-.32-1.49-.35-2.23v-.14s.12-.05.12-.05c3.23-1.27,6.6-1.96,10.02-2.05,3.43.1,6.79.78,10,2.02l.13.05v.14Z"/>
        <path class="cls-1" d="M14.86,12.68c0,.44-.36.8-.8.8h-4.48c-.44,0-.8-.36-.8-.8s.36-.8.8-.8h4.48c.44,0,.8.36.8.8Z"/>
      </g>
    </g>
  </g>
</svg>