<?xml version="1.0" encoding="UTF-8"?>
<svg id="Layer_2" data-name="Layer 2" xmlns="http://www.w3.org/2000/svg" viewBox="0 0 23.9 23.92">
  <defs>
    <style>
      .cls-1 {
        fill: #1c1d1d;
      }
    </style>
  </defs>
  <g id="Layer_1-2" data-name="Layer 1">
    <g>
      <path class="cls-1" d="M23.07,16.33c1.35-3.44,1.05-7.38-.92-10.6-1.66-2.73-4.29-4.64-7.39-5.39-3.1-.75-6.31-.25-9.04,1.41C.1,5.19-1.69,12.56,1.75,18.18c1.66,2.73,4.29,4.64,7.39,5.39.94.23,1.89.34,2.84.34,2.17,0,4.3-.6,6.2-1.75.47-.29.62-.9.33-1.37-.29-.47-.9-.62-1.37-.33-.64.39-1.32.7-2.01.93.06-2.19.53-3.79,1.39-4.64.54-.54,1.21-.76,2.1-.79.76.04,1.51.2,2.21.47-.18.36-.37.72-.6,1.06-.31.46-.18,1.08.28,1.39s1.08.18,1.39-.28c.46-.69.83-1.41,1.14-2.16,0,0,.01-.01.02-.02.01-.02.01-.05.02-.08ZM6.77,3.46c2.27-1.38,4.94-1.8,7.53-1.18,2.58.63,4.77,2.22,6.15,4.49.65,1.07,1.06,2.24,1.27,3.43-3.12-1.11-6.39-1.73-9.76-1.82-3.36.1-6.65.72-9.8,1.86.48-2.72,2.07-5.23,4.61-6.78ZM3.45,17.14c-.13-.22-.25-.44-.36-.67.77-.31,1.6-.49,2.4-.52,2.21.02,3.36,1.87,3.44,5.47-2.21-.7-4.18-2.16-5.48-4.29ZM18.67,13.96c-1.43-.03-2.65.46-3.56,1.37-1.32,1.31-1.99,3.5-1.99,6.51-.72.08-1.45.09-2.17.01,0-6.83-3.41-7.87-5.49-7.89-1.06.04-2.11.26-3.1.65-.2-.72-.32-1.45-.35-2.18,3.2-1.26,6.57-1.95,9.95-2.04,3.41.1,6.74.78,9.92,2.01-.03.73-.15,1.45-.34,2.16-.91-.34-1.87-.55-2.86-.6Z"/>
      <path class="cls-1" d="M14.26,11.88h-4.48c-.55,0-1,.45-1,1s.45,1,1,1h4.48c.55,0,1-.45,1-1s-.45-1-1-1Z"/>
    </g>
  </g>
</svg>