<?xml version="1.0" encoding="UTF-8"?>
<svg id="Layer_2" data-name="Layer 2" xmlns="http://www.w3.org/2000/svg" viewBox="0 0 25 17.19">
  <defs>
    <style>
      .cls-1 {
        fill: #1c1d1d;
      }
    </style>
  </defs>
  <g id="Layer_1-2" data-name="Layer 1">
    <g id="Mask_Group_25" data-name="Mask Group 25">
      <g id="insep1-8">
        <path id="Path_256" data-name="Path 256" class="cls-1" d="M24.22,5.47h-2.34c-.43,0-.78.35-.78.78h0v.78h-.78v-.78c0-.43-.35-.78-.78-.78h-1.24l-2.11-2.11c-.07-.07-.16-.13-.26-.17-.1-.04-.2-.06-.3-.06h-2.34v-1.56h1.56c.43,0,.78-.35.78-.78,0-.43-.35-.78-.78-.78h-7.03c-.43,0-.78.35-.78.78s.35.78.78.78h1.56v1.56h-2.34s-.05,0-.07.01c-.05,0-.11.02-.16.04-.04.01-.09.03-.13.05-.09.05-.17.12-.23.19-.02.02-.04.03-.05.05l-1.33,2h-1.93c-.43,0-.78.35-.78.78h0v2.34h-.78v-2.35c0-.43-.35-.78-.78-.78-.43,0-.78.35-.78.78v7.03c0,.43.35.78.78.78s.78-.35.78-.78v-3.12h.78v3.12c0,.43.35.78.78.78h1.86l1.35,2.69c.04.07.08.14.14.19.01.01.02.02.04.03.06.05.12.09.18.12.02.01.05.02.07.03.08.03.17.05.27.06h9.38c.11,0,.22-.02.32-.07.02-.01.05-.03.07-.05.07-.04.14-.09.19-.15,0-.01.02-.01.03-.02l2.89-3.61h1.19v.78c0,.43.35.78.78.78h2.34c.43,0,.78-.35.78-.78v-7.81c0-.43-.35-.78-.78-.78h0ZM23.44,13.28h-.78v-.78c0-.43-.35-.78-.78-.78h-2.34s-.03,0-.04,0c-.05,0-.1.02-.16.03-.05.01-.1.03-.14.04-.04.02-.08.05-.11.08-.05.03-.09.07-.13.11-.01.01-.02.02-.03.03l-2.89,3.61H7.51l-1.35-2.69s-.04-.06-.07-.09c-.03-.05-.06-.09-.1-.13-.04-.03-.08-.06-.12-.08-.04-.03-.08-.05-.13-.07-.05-.02-.11-.03-.17-.03-.03,0-.07-.02-.1-.02h-1.57v-5.47h1.56c.09,0,.18-.02.27-.06.02,0,.03-.01.05-.02.08-.04.15-.08.22-.15.01-.01.02-.03.03-.04.03-.03.05-.06.08-.09l1.33-2h2.71c.43,0,.78-.35.78-.78h0V1.56h.78v2.34c0,.43.35.78.78.78h2.8l2.11,2.11c.07.07.16.13.25.17.1.04.2.06.3.06h.78v.78c0,.43.35.78.78.78h2.34c.43,0,.78-.35.78-.78h0v-.78h.78v6.25Z"/>
        <path id="Path_257" data-name="Path 257" class="cls-1" d="M15.28,7.16c-.36-.24-.84-.15-1.08.21,0,0,0,0,0,0l-3.23,4.78-1.89-1.46c-.34-.26-.83-.2-1.1.14-.26.34-.2.83.14,1.1l2.55,1.97c.14.11.3.16.48.16.04,0,.08,0,.12-.01.21-.03.4-.16.52-.33l3.7-5.47c.24-.36.15-.84-.21-1.09Z"/>
      </g>
    </g>
  </g>
</svg>