<?xml version="1.0" encoding="UTF-8"?>
<svg id="Layer_2" data-name="Layer 2" xmlns="http://www.w3.org/2000/svg" viewBox="0 0 35.86 24.43">
  <defs>
    <style>
      .cls-1 {
        fill: #1c1d1d;
      }
    </style>
  </defs>
  <g id="Layer_2-2" data-name="Layer 2">
    <g id="Layer_1-2" data-name="Layer 1-2">
      <g id="Mask_Group_25" data-name="Mask Group 25">
        <g id="insep1-8">
          <g id="Path_256" data-name="Path 256">
            <path class="cls-1" d="M35.08,7.95h-.09s-3.41.01-3.41.01c-.46,0-.84.38-.84.84v1.44h-1.73v-1.44c0-.46-.38-.84-.84-.84h-1.93l-.09-.08-3.08-3.08c-.07-.08-.17-.14-.28-.18-.11-.05-.21-.07-.32-.07h-3.72V1.68h2.58c.46,0,.84-.38.84-.84s-.38-.84-.84-.84h-10.25c-.46,0-.84.38-.84.84s.38.84.84.84h2.57v2.87h-3.71l-.06.03-.04-.02s-.04.01-.12.04c-.08.02-.13.04-.17.06-.08.05-.17.12-.24.21l-.02.02-.05.04-1.92,2.9-.09.13h-2.98c-.46,0-.84.38-.84.84v3.71h-1.73v-3.72c0-.47-.38-.84-.84-.84s-.84.37-.84.84v10.25c0,.46.38.84.84.84s.84-.38.84-.84v-4.85h1.73v4.85c0,.46.38.84.84.84h2.9l.08.16,1.97,3.92c.04.07.08.15.13.19h.03s.03.04.03.04c.07.06.14.1.2.14.06.02.08.03.1.04.07.02.17.05.29.06h13.65c.13,0,.24-.03.34-.07l.02-.03.06-.04c.06-.03.1-.06.13-.08v-.08l.16-.07,4.16-5.21.09-.11h2.18v1.44c0,.46.38.83.84.83h3.41c.47,0,.84-.37.84-.83v-11.39c0-.45-.34-.81-.78-.84ZM33.86,19.35h-1.44v-1.43c0-.47-.38-.84-.84-.84h-3.47s-.04.01-.07.01c-.03.01-.07.02-.11.03-.03,0-.06.01-.09.02-.02.01-.03.01-.05.02s-.05.03-.06.05l-.03.02-.03.02s-.09.07-.13.12l-4.24,5.28-.09.12h-12.77l-.08-.17-1.97-3.91s-.03-.04-.05-.07l-.02-.02-.02-.03c-.04-.06-.07-.1-.1-.14,0,0-.06-.04-.1-.06h-.02s-.03-.03-.03-.03c-.03-.02-.06-.04-.12-.06-.03-.01-.08-.02-.13-.02-.07,0-.12-.02-.16-.03h-2.58v-8.58h2.58c.09,0,.17-.02.27-.06l.06-.02h.01c.11-.06.17-.1.23-.16,0-.02.03-.04.04-.06.02-.02.03-.03.04-.05.02-.02.04-.04.06-.06l1.92-2.9.09-.13h4.12c.46,0,.83-.37.83-.84V1.66h1.74v3.71c0,.47.38.84.84.84h4.21l.08.09,3.08,3.08c.07.07.17.14.27.18.11.04.21.06.32.06h1.44v1.44c0,.46.37.84.84.84h3.41c.46,0,.84-.38.84-.84v-1.44h1.73v9.2l1.55.52h-1.8Z"/>
          </g>
          <g id="Path_257" data-name="Path 257">
            <path class="cls-1" d="M22.01,11.55l-5.39,7.97c-.13.19-.34.33-.58.36-.03.01-.07.01-.11.01-.2,0-.37-.06-.51-.17l-3.72-2.87c-.36-.29-.43-.82-.15-1.18.16-.21.41-.33.67-.33.19,0,.36.06.51.17l2.76,2.13.25.2.18-.27,4.71-6.97c.16-.23.41-.37.69-.37.16,0,.33.05.47.14.38.27.48.79.22,1.18Z"/>
          </g>
        </g>
      </g>
    </g>
  </g>
</svg>