<?xml version="1.0" encoding="UTF-8"?>
<svg id="Layer_2" data-name="Layer 2" xmlns="http://www.w3.org/2000/svg" viewBox="0 0 25 25">
  <defs>
    <style>
      .cls-1 {
        fill: none;
      }

      .cls-2 {
        fill: #1c1d1d;
      }
    </style>
  </defs>
  <g id="Layer_1-2" data-name="Layer 1">
    <g>
      <rect class="cls-1" y="0" width="25" height="25"/>
      <path id="Path_239" data-name="Path 239" class="cls-2" d="M14.84,4.69c0-.43-.35-.78-.78-.78h-7.81c-.43,0-.78.35-.78.78h0v6.25c0,.43.35.78.78.78h7.81c.43,0,.78-.35.78-.78h0v-6.25ZM13.28,10.16h-6.25v-4.69h6.25v4.69Z"/>
      <path id="Path_240" data-name="Path 240" class="cls-2" d="M23.81,5.54l-3.11-1.56c-.39-.19-.85-.03-1.05.35-.19.39-.03.85.35,1.05l1.19.59c-.04.09-.07.18-.07.27.05.97.65,1.82,1.54,2.2v9.52c0,.43-.35.78-.78.78s-.78-.35-.78-.78h0v-6.25c-.09-1.82-1.35-3.38-3.12-3.83V3.11C17.98,1.41,16.61.02,14.91,0c0,0-.02,0-.03,0H5.51c-1.73,0-3.14,1.38-3.16,3.11v17.49l-1.13.57c-.27.13-.43.4-.43.7v2.34c.02.44.38.79.82.79h17.19c.42,0,.75-.36.74-.78,0,0,0-.01,0-.02v-2.34c0-.3-.17-.57-.43-.7l-1.13-.56v-11.09c.9.37,1.51,1.23,1.56,2.2v6.25c0,1.29,1.05,2.34,2.35,2.34,1.29,0,2.34-1.05,2.34-2.34V6.24c0-.29-.15-.57-.41-.7ZM17.97,23.44H2.34v-1.09l1.13-.57c.27-.13.43-.4.43-.7V3.11c.02-.87.73-1.56,1.6-1.55h9.38c.84,0,1.52.68,1.52,1.52,0,0,0,.02,0,.03v17.97c0,.3.17.57.43.7l1.13.57v1.09Z"/>
    </g>
  </g>
</svg>