<?xml version="1.0" encoding="UTF-8"?>
<svg id="Layer_2" data-name="Layer 2" xmlns="http://www.w3.org/2000/svg" viewBox="0 0 539.71 438.99">
  <defs>
    <style>
      .cls-1 {
        fill: #1c1d1d;
      }
    </style>
  </defs>
  <g id="Layer_2-2" data-name="Layer 2">
    <path class="cls-1" d="M269.86,66.85c-55.85,0-101.29,45.44-101.29,101.29s45.44,101.29,101.29,101.29,101.29-45.44,101.29-101.29-45.44-101.29-101.29-101.29ZM269.86,236.43c-37.66,0-68.29-30.63-68.29-68.29s30.63-68.29,68.29-68.29,68.29,30.63,68.29,68.29-30.63,68.29-68.29,68.29Z"/>
    <path class="cls-1" d="M269.86,287.29c-74.55,0-135.2,60.65-135.2,135.2,0,9.1,7.4,16.5,16.5,16.5h237.4c9.1,0,16.5-7.4,16.5-16.5,0-74.55-60.65-135.2-135.2-135.2ZM168.59,405.99l2.22-8.73c11.54-45.32,52.28-76.97,99.05-76.97s87.51,31.65,99.05,76.97l2.23,8.73h-202.55Z"/>
    <path class="cls-1" d="M505.81,100.32c0,55.3-44.99,100.29-100.29,100.29-8.55,0-15.5-6.95-15.5-15.5s6.95-15.5,15.5-15.5c38.21,0,69.29-31.08,69.29-69.29s-31.08-69.29-69.29-69.29c-21.7,0-42.42,10.36-55.43,27.71-2.96,3.94-7.49,6.2-12.42,6.2-3.28,0-6.42-1.02-9.07-2.94l-.22-.17c-3.31-2.48-5.45-6.11-6.04-10.21-.58-4.1.46-8.18,2.94-11.49C344.11,15.01,374.1.02,405.51.02c55.31,0,100.3,44.99,100.3,100.3Z"/>
    <path class="cls-1" d="M539.71,354.66c0,8.55-6.95,15.5-15.5,15.5h-101.74c-8.55,0-15.5-6.95-15.5-15.5s6.95-15.5,15.5-15.5h85.61l-2.55-9.98c-11.65-45.76-52.78-77.72-100.02-77.72-8.55,0-15.5-6.95-15.5-15.5s6.95-15.5,15.5-15.5c74,0,134.2,60.2,134.2,134.2Z"/>
    <path class="cls-1" d="M217.53,49.42c0,4.72-2.14,9.38-6.2,12.42-2.7,2.03-5.91,3.1-9.28,3.1-4.93,0-9.46-2.26-12.42-6.2-11.1-14.81-27.31-24.41-45.63-27.02-18.54-2.63-36.62,2.11-51.37,13.16-14.8,11.08-24.39,27.29-27.02,45.63-2.62,18.32,2.06,36.56,13.16,51.37,13.01,17.35,33.73,27.71,55.43,27.71,8.55,0,15.5,6.95,15.5,15.5s-6.95,15.5-15.5,15.5c-31.41,0-61.4-14.99-80.23-40.11-16.08-21.43-22.84-47.84-19.05-74.36,3.79-26.52,17.68-49.98,39.11-66.04C91.53,6.94,112.26,0,133.97,0c4.78,0,9.62.35,14.41,1.03,26.51,3.78,49.97,17.67,66.05,39.11,2.09,2.78,3.1,6.05,3.1,9.28Z"/>
    <path class="cls-1" d="M149.7,235.96c0,8.55-6.95,15.5-15.5,15.5-47.24,0-88.37,31.96-100.02,77.72l-2.55,9.98h85.61c8.55,0,15.5,6.95,15.5,15.5s-6.95,15.5-15.5,15.5H15.5c-8.55,0-15.5-6.95-15.5-15.5,0-35.79,13.98-69.47,39.36-94.84,25.37-25.38,59.05-39.36,94.84-39.36,8.55,0,15.5,6.95,15.5,15.5Z"/>
  </g>
</svg>