<svg xmlns="http://www.w3.org/2000/svg" width="17" height="17" viewBox="0 0 17 17">
  <path id="Path_1091" data-name="Path 1091" d="M10.5,2c2.309,0,2.6.009,3.5.051a6.262,6.262,0,0,1,2.064.4,4.144,4.144,0,0,1,1.506.98,4.172,4.172,0,0,1,.98,1.506A6.279,6.279,0,0,1,18.949,7c.04.906.051,1.194.051,3.5s-.008,2.6-.051,3.5a6.284,6.284,0,0,1-.4,2.064,4.34,4.34,0,0,1-2.486,2.486,6.279,6.279,0,0,1-2.064.4c-.906.04-1.194.051-3.5.051s-2.6-.008-3.5-.051a6.284,6.284,0,0,1-2.064-.4,4.34,4.34,0,0,1-2.486-2.486A6.257,6.257,0,0,1,2.051,14C2.011,13.1,2,12.809,2,10.5s.009-2.6.051-3.5a6.257,6.257,0,0,1,.4-2.064,4.148,4.148,0,0,1,.98-1.506,4.162,4.162,0,0,1,1.506-.98A6.257,6.257,0,0,1,7,2.051C7.9,2.011,8.191,2,10.5,2Zm0,4.25a4.25,4.25,0,1,0,4.25,4.25A4.25,4.25,0,0,0,10.5,6.25Zm5.525-.213A1.063,1.063,0,1,0,14.963,7.1,1.062,1.062,0,0,0,16.025,6.038ZM10.5,7.95A2.55,2.55,0,1,1,7.95,10.5,2.55,2.55,0,0,1,10.5,7.95Z" transform="translate(-2 -2)" fill="#f3f3f3"/>
</svg>
