<svg xmlns="http://www.w3.org/2000/svg" width="21.04" height="25" viewBox="0 0 21.04 25">
  <g id="locate_location_map_pin" data-name="locate location map pin" transform="translate(-4.997 -2.927)">
    <path id="Path_1055" data-name="Path 1055" d="M22.955,6.008A10.519,10.519,0,0,0,8.078,20.885L12,24.805a.96.96,0,1,0,1.358-1.358l-3.92-3.92a8.6,8.6,0,1,1,12.161,0l-6.759,6.759A.96.96,0,1,0,16.2,27.645l6.76-6.76a10.517,10.517,0,0,0,0-14.877Z" transform="translate(0 0)" fill="#1d1d1d"/>
    <path id="Path_1056" data-name="Path 1056" d="M21,14a5,5,0,1,0-5,5,5,5,0,0,0,5-5Zm-8,0a3,3,0,1,1,3,3,3,3,0,0,1-3-3Z" transform="translate(-0.483 -0.432)" fill="#1d1d1d"/>
  </g>
</svg>
