<svg id="Group_684" data-name="Group 684" xmlns="http://www.w3.org/2000/svg" xmlns:xlink="http://www.w3.org/1999/xlink" width="73.378" height="59.589" viewBox="0 0 73.378 59.589">
  <defs>
    <clipPath id="clip-path">
      <rect id="Rectangle_729" data-name="Rectangle 729" width="73.378" height="59.589" fill="none"/>
    </clipPath>
  </defs>
  <g id="Group_683" data-name="Group 683" transform="translate(0 0)" clip-path="url(#clip-path)">
    <path id="Path_1107" data-name="Path 1107" d="M52.827,59.589l-.078-.006c-4.565-.364-9.18-1.036-13.644-1.686-1.81-.263-3.619-.526-5.427-.771-1.958-.264-4.014-.487-6-.7-3.271-.355-6.652-.723-9.838-1.292a8.494,8.494,0,0,1-5.505-3.253c-2.079-2.343-4.044-4.917-5.945-7.408C4.5,42,2.55,39.444.5,37.14l-.1-.108L.344,36.9a6,6,0,0,1-.3-2.931,8.036,8.036,0,0,0,.005-1.385L0,32.281l.392-.927.427-.168C4,29.938,4.981,32.295,5.568,33.7c.374.895.727,1.74,1.418,2.043,1.322.58,2.731-.075,4.223-.767.484-.225.985-.457,1.486-.646a25.564,25.564,0,0,1,12.943-1.087c.541.075,1.259.245,2.019.426a14.7,14.7,0,0,0,2.864.515c.379-.038.465-.153.784-.777A3.091,3.091,0,0,1,34.064,31.4a3.46,3.46,0,0,1,2.278,1.017,4.468,4.468,0,0,0,.65.47c2.392,1.188,3.825-.8,5.737-3.982.4-.66.772-1.283,1.156-1.822A51.007,51.007,0,0,1,52.7,18.212c1.673-1.427,3.4-2.9,4.966-4.45.488-.484.964-1.032,1.467-1.613.486-.561.988-1.141,1.508-1.662.621-.622,1.274-1.215,1.906-1.789a17.321,17.321,0,0,0,4.347-5.082L68.637,0l.321,4a16.576,16.576,0,0,0,2.031,5.868c.492,1.006,1,2.047,1.409,3.128a14.817,14.817,0,0,1,.933,3.373,14.138,14.138,0,0,1,0,2.316,9.868,9.868,0,0,1-2.5,5.287c-1.89,2.061-2.937,2.26-3.562,2.234-1.5-.067-1.924-1.4-2.153-2.116-.05-.157-.12-.374-.18-.508q-.039.009-.092.027c-.462.152-.537.627-.347,2.212a10.472,10.472,0,0,1,.1,1.161c0,.627-.046,1.218-.1,1.789-.161,1.852-.189,2.864,1.011,3.85a4.237,4.237,0,0,0,.47.3,2.527,2.527,0,0,1,1.487,1.722,2.071,2.071,0,0,1-.7,1.731,4.483,4.483,0,0,1-3.237,1.115,3.778,3.778,0,0,0-1.775.355c-.879.545-1.418,2.776-1.774,4.253-.147.608-.286,1.182-.44,1.662-.486,1.512-1.085,2.967-1.664,4.374a34.468,34.468,0,0,0-2.3,6.937,7.4,7.4,0,0,0-.076.878c-.057,1.128-.176,3.475-2.595,3.632ZM2.256,35.832C4.31,38.158,6.245,40.7,8.119,43.149s3.817,5,5.842,7.283a6.313,6.313,0,0,0,4.26,2.554c3.111.557,6.456.92,9.69,1.271,2,.217,4.073.442,6.059.71,1.815.244,3.632.509,5.449.774,4.4.641,8.953,1.3,13.42,1.663.272-.026.414-.148.486-1.561a9.083,9.083,0,0,1,.108-1.16,36.667,36.667,0,0,1,2.428-7.373c.563-1.368,1.145-2.782,1.6-4.213.129-.4.259-.938.4-1.506.492-2.039,1.105-4.576,2.744-5.593a5.587,5.587,0,0,1,2.809-.68,2.983,2.983,0,0,0,1.7-.374c-.081-.05-.165-.1-.236-.142a5.875,5.875,0,0,1-.745-.494c-2.143-1.761-1.96-3.866-1.8-5.723.045-.521.092-1.06.088-1.585a9.084,9.084,0,0,0-.082-.917c-.159-1.326-.456-3.794,1.833-4.543a2.259,2.259,0,0,1,1.778.058,2.8,2.8,0,0,1,1.248,1.83,4.173,4.173,0,0,0,.219.588A5.875,5.875,0,0,0,69.225,22.5a7.693,7.693,0,0,0,1.938-4.049,12.136,12.136,0,0,0,0-1.862h0a13.6,13.6,0,0,0-.8-2.823c-.371-.985-.836-1.934-1.327-2.939a29.552,29.552,0,0,1-1.681-3.9,29.2,29.2,0,0,1-3.342,3.385c-.612.556-1.245,1.13-1.828,1.714-.466.467-.921.993-1.4,1.55-.508.586-1.033,1.192-1.58,1.734-1.62,1.605-3.382,3.107-5.086,4.56a49.38,49.38,0,0,0-8.453,8.48c-.334.469-.688,1.057-1.063,1.679-1.673,2.781-4.2,6.983-8.575,4.81a5.867,5.867,0,0,1-1.047-.725,3.138,3.138,0,0,0-.8-.538c-.5.029-.6.183-.928.825a3.038,3.038,0,0,1-2.5,1.954,12.744,12.744,0,0,1-3.589-.564c-.708-.168-1.377-.327-1.815-.387a23.479,23.479,0,0,0-11.873.966c-.427.161-.87.367-1.339.585-1.69.784-3.79,1.761-6.015.786a5.3,5.3,0,0,1-2.554-3.2c-.514-1.233-.7-1.618-1.3-1.526,0,.351-.017.716-.037,1.075a6.766,6.766,0,0,0,.038,1.741" transform="translate(0 0)" fill="#1d1d1d"/>
  </g>
</svg>
