<?xml version="1.0" encoding="UTF-8"?>
<svg id="Layer_2" data-name="Layer 2" xmlns="http://www.w3.org/2000/svg" viewBox="0 0 25.01 20.39">
  <defs>
    <style>
      .cls-1 {
        fill: #1c1d1d;
      }
    </style>
  </defs>
  <g id="Layer_1-2" data-name="Layer 1">
    <path id="Path_238" data-name="Path 238" class="cls-1" d="M25.01,12.5c0,2.72-.88,5.36-2.52,7.53-.34.42-.95.49-1.37.15-.4-.32-.49-.91-.18-1.33,3.51-4.65,2.58-11.26-2.07-14.77C14.2.58,7.59,1.5,4.08,6.15c-1.38,1.83-2.12,4.06-2.13,6.35,0,2.29.74,4.52,2.13,6.35.31.44.21,1.05-.23,1.36-.42.3-1.01.22-1.33-.18C-1.63,14.52-.54,6.69,4.96,2.53,7.13.89,9.78,0,12.51,0c6.9,0,12.49,5.58,12.5,12.48,0,0,0,.01,0,.02ZM18.69,6.62c.38.38.38,1,0,1.38l-3.19,3.18c.9,1.66.27,3.73-1.39,4.63-1.66.9-3.73.27-4.63-1.39-.9-1.66-.27-3.73,1.39-4.63,1.02-.55,2.24-.55,3.25,0l3.18-3.18c.38-.38,1-.38,1.38,0,0,0,0,0,0,0ZM13.97,12.81c0-.81-.65-1.46-1.46-1.46-.81,0-1.46.65-1.46,1.46,0,.81.65,1.46,1.46,1.46h0c.81,0,1.46-.66,1.46-1.46h0Z"/>
  </g>
</svg>