<?xml version="1.0" encoding="UTF-8"?>
<svg id="Layer_2" data-name="Layer 2" xmlns="http://www.w3.org/2000/svg" viewBox="0 0 33.98 29.38">
  <defs>
    <style>
      .cls-1 {
        fill: #49494b;
      }
    </style>
  </defs>
  <g id="Layer_1-2" data-name="Layer 1">
    <g>
      <path class="cls-1" d="M21.26,11.91c-1.64.65-7.09,2.86-8.3,4.12l-.14.14c-1.59,1.72-1.49,4.42.23,6.01.79.73,1.81,1.13,2.88,1.13.06,0,.11,0,.17,0,1.13-.04,2.18-.53,2.93-1.34,1.24-1.29,3.26-6.81,3.85-8.47.16-.46.04-.98-.31-1.32-.35-.34-.87-.44-1.33-.26ZM14.73,17.79c.43-.45,2.51-1.47,4.81-2.46-.92,2.33-1.87,4.46-2.31,4.92-.65.71-1.76.75-2.47.1-.71-.66-.75-1.76-.1-2.47"/>
      <path class="cls-1" d="M29.01,4.97C22.38-1.66,11.6-1.66,4.97,4.97c-6.63,6.63-6.63,17.41,0,24.04.49.49,1.28.49,1.77,0s.49-1.28,0-1.77c-1.96-1.96-3.22-4.34-3.82-6.86.06.01.12.03.18.03.07,0,.15,0,.23-.03l2.92-.68c.54-.12.87-.66.75-1.2-.12-.54-.66-.87-1.2-.75l-2.92.68c-.1.02-.19.08-.28.13-.39-3.58.56-7.28,2.83-10.29l2.14,1.73c.18.15.41.22.63.22.29,0,.58-.13.78-.37.35-.43.28-1.06-.15-1.41l-2.1-1.7s.01-.01.02-.02c2.5-2.5,5.76-3.96,9.25-4.2v2.45c0,.55.45,1,1,1s1-.45,1-1v-2.45c3.5.24,6.75,1.7,9.25,4.2,0,0,.01.01.02.02l-2.1,1.7c-.43.35-.5.98-.15,1.41.2.24.49.37.78.37.22,0,.44-.07.63-.22l2.14-1.73c2.27,3.01,3.22,6.71,2.83,10.29-.09-.05-.18-.1-.28-.13l-2.92-.68c-.54-.12-1.08.21-1.2.75-.12.54.21,1.08.75,1.2l2.92.68c.08.02.15.03.23.03.06,0,.12-.02.18-.03-.6,2.51-1.86,4.9-3.82,6.86-.49.49-.49,1.28,0,1.77.24.24.56.37.88.37s.64-.12.88-.37c6.63-6.63,6.63-17.41,0-24.04Z"/>
    </g>
  </g>
</svg>