<svg id="Group_420" data-name="Group 420" xmlns="http://www.w3.org/2000/svg" xmlns:xlink="http://www.w3.org/1999/xlink" width="49.383" height="38.312" viewBox="0 0 49.383 38.312">
  <defs>
    <clipPath id="clip-path">
      <rect id="Rectangle_460" data-name="Rectangle 460" width="49.383" height="38.312" fill="#f3f3f3"/>
    </clipPath>
  </defs>
  <g id="Group_419" data-name="Group 419" clip-path="url(#clip-path)">
    <path id="Path_720" data-name="Path 720" d="M2.035.032,47.14,0a2.749,2.749,0,0,1,0,5.407H2.26A2.76,2.76,0,0,1,2.035.032" transform="translate(-0.006)" fill="#f3f3f3"/>
    <path id="Path_721" data-name="Path 721" d="M2.028,96.085l28.765-.021a2.757,2.757,0,0,1-.118,5.4l-28.54-.011a2.769,2.769,0,0,1-.107-5.363" transform="translate(0 -79.595)" fill="#f3f3f3"/>
    <path id="Path_722" data-name="Path 722" d="M2.028,192.188l15.112,0a2.757,2.757,0,0,1-.109,5.358l-14.9,0a2.769,2.769,0,0,1-.107-5.363" transform="translate(0 -159.24)" fill="#f3f3f3"/>
  </g>
</svg>
