<?xml version="1.0" encoding="UTF-8"?>
<svg id="Layer_2" data-name="Layer 2" xmlns="http://www.w3.org/2000/svg" viewBox="0 0 28.48 28.48">
  <defs>
    <style>
      .cls-1 {
        fill: #49494b;
      }
    </style>
  </defs>
  <g id="Layer_1-2" data-name="Layer 1">
    <g id="Mask_Group_6" data-name="Mask Group 6">
      <g id="_6875979_fuel_petrol_station_icon" data-name=" 6875979 fuel petrol station icon">
        <g id="Path_35" data-name="Path 35">
          <path class="cls-1" d="M19.64,25.4v2.11c0,.53-.44.97-.98.97H.97c-.53,0-.97-.44-.97-.97V5.4C0,2.42,2.42,0,5.4,0h8.84c2.98,0,5.4,2.42,5.4,5.4v12.76h-.98c-.35,0-.68.09-.96.25V5.4c0-1.9-1.55-3.45-3.45-3.45H5.39c-.91,0-1.78.36-2.43,1.01-.65.65-1.01,1.51-1.01,2.44v21.13h15.74v-1.13c0-.54.44-.98.97-.98s.98.44.98.98Z"/>
        </g>
        <g id="Path_36" data-name="Path 36">
          <path class="cls-1" d="M10.52,13.55l-.03-.02c-.19-.18-.43-.27-.67-.27s-.5.09-.69.28c-.77.8-3.23,3.6-3.23,6.6,0,2.16,1.76,3.92,3.92,3.92s3.92-1.76,3.92-3.92c0-3-2.47-5.8-3.22-6.59ZM11.21,21.54c-.37.37-.86.57-1.39.57s-1.03-.2-1.4-.58c-.37-.37-.58-.86-.57-1.39.14-1.47.69-2.8,1.58-3.92l.39-.48.39.48c.89,1.12,1.44,2.45,1.58,3.87,0,.58-.2,1.07-.58,1.45Z"/>
        </g>
        <g id="Path_37" data-name="Path 37">
          <path class="cls-1" d="M25.53,14.74v2.45c0,2.16-1.76,3.92-3.92,3.92h-2.95c-.28,0-.54-.13-.71-.33-.17-.17-.26-.39-.26-.64,0-.12.02-.23.07-.33.12-.38.48-.65.9-.65h2.95c1.09,0,1.98-.88,1.98-1.97v-2.82c.36.23.79.37,1.25.37h.69Z"/>
          <path class="cls-1" d="M28.48,3.92c0,.54-.43.97-.97.97-1.09,0-1.98.89-1.98,1.98v.97h-.69c-.46,0-.89.14-1.25.37v-1.34c0-2.16,1.76-3.92,3.92-3.92.54,0,.97.43.97.97Z"/>
        </g>
        <g id="Rectangle_55" data-name="Rectangle 55">
          <rect class="cls-1" x="23.59" y="8.84" width="4.89" height="4.9" rx="1.25" ry="1.25"/>
        </g>
        <g id="Path_38" data-name="Path 38">
          <path class="cls-1" d="M13.74,8.34c0,.54-.44.98-.97.98h-5.9c-.54,0-.98-.44-.98-.98s.44-.97.98-.97h5.9c.53,0,.97.44.97.97Z"/>
        </g>
      </g>
    </g>
  </g>
</svg>