<?xml version="1.0" encoding="UTF-8"?>
<svg id="Layer_2" data-name="Layer 2" xmlns="http://www.w3.org/2000/svg" viewBox="0 0 28.67 33.61">
  <defs>
    <style>
      .cls-1 {
        fill: #1c1d1d;
      }
    </style>
  </defs>
  <g id="Layer_2-2" data-name="Layer 2">
    <g id="Layer_1-2" data-name="Layer 1-2">
      <g>
        <path class="cls-1" d="M28.64,25.09c-.23-1.48-1.58-2.69-3.09-2.85l-.74-10.46c-.17-2.13-1.4-3.96-3.19-4.81.01-.02.02-.04.03-.05.78-1.67.24-2.86-.34-4.13-.77-1.69-1.54-2.57-3.62-2.7C15.67-.03,12.83-.03,10.93.09c-1.08.07-1.97.43-2.58,1.04-.66.66-1.69,3.04-1.72,3.98-.02.59.12,1.19.44,1.85-1.83.88-3.07,2.73-3.21,4.88l-.74,10.39c-1.56.16-2.93,1.43-3.11,2.98-.11.96.47,3.69.76,4.55.62,1.88,2.51,3.39,4.67,3.68,2.34-.04,4.78.02,7.15.08,1.86.05,3.76.09,5.64.09,1.42,0,2.82-.03,4.21-.1,2.87-.15,4.96-1.76,5.6-4.3.52-2.06.71-3.37.59-4.13h0ZM18.57,6.32c-1.28-.07-2.64-.02-3.96.03-1.47.06-2.99.11-4.37-.01-.28-.03-.52-.15-.69-.37-.21-.27-.29-.64-.24-1.01.06-.24.7-1.67.84-1.88.09-.12.3-.26.43-.3,1.11.06,2.29,0,3.43-.03,1.33-.05,2.7-.1,3.93,0,.2.02.34.08.48.2.24.24.93,1.78.96,2.09.07.64-.23,1.1-.81,1.27h0ZM9.27,9c1.7-.13,3.54-.07,5.32-.01,1.64.05,3.34.11,4.87.01,1.34.18,2.45,1.24,2.68,2.54l.81,10.88c-1.02.4-1.59,1.33-2.1,2.17-.15.25-.3.49-.46.72l-12.08-.03c-.16-.23-.31-.47-.46-.71-.51-.82-1.08-1.74-2.11-2.17l.75-10.3c.06-1.62,1.28-2.97,2.79-3.09h-.01ZM7.88,27.92l13.12-.02c.99-.17,1.57-1.13,2.09-1.97.21-.34.4-.66.59-.87.15-.16.22-.2.39-.22.84-.09,1.47.02,1.77.3.17.16.24.41.22.75-.04.69-.62,3.09-.88,3.52-.49.8-1.45,1.4-2.32,1.46H5.74c-.72-.07-1.6-.58-2.09-1.23-.42-.55-.92-2.73-1.01-3.66-.05-.48.12-1.03.76-1.12.5-.07,1.3-.03,1.46.07.26.17.52.62.77,1.06.48.82,1.08,1.84,2.24,1.95v-.02Z"/>
        <path class="cls-1" d="M9.65,15.03c.88,2.04,1.31,4.26,1.39,7.2l.03.15c.2.55.69.9,1.25.9h.16c.61-.07,1.07-.54,1.14-1.17.02-.21.02-.48,0-.72v-.12c-.08-3.29-1.07-6.83-2.58-9.27l-.08-.13c-.24-.4-.6-1.02-1.48-.88-.71.1-1.2.76-1.1,1.47.05.33.33.86.79,1.69.2.35.38.68.47.89h0Z"/>
        <path class="cls-1" d="M16.17,23.27c.06,0,.12.01.19.01.54,0,1.03-.34,1.25-.89l.04-.17c.08-2.95.51-5.16,1.39-7.2.09-.21.27-.54.47-.89.46-.83.74-1.36.79-1.69.05-.39-.09-.79-.38-1.09-.29-.29-.7-.43-1.08-.38-.2.03-.43.14-.52.19-.49.29-1.23,1.8-1.52,2.44-.84,1.83-1.39,3.84-1.59,5.81-.09.88-.19,1.98-.13,2.61.06.66.5,1.15,1.11,1.24h-.02Z"/>
      </g>
    </g>
  </g>
</svg>