<?xml version="1.0" encoding="UTF-8"?>
<svg id="Layer_2" data-name="Layer 2" xmlns="http://www.w3.org/2000/svg" viewBox="0 0 555.89 515.2">
  <defs>
    <style>
      .cls-1 {
        fill: #1d1d1d;
      }
    </style>
  </defs>
  <g id="Layer_2-2" data-name="Layer 2">
    <path class="cls-1" d="M196.27,73.6h133.61c8.46,0,16.32,4.36,20.8,11.53l84.79,135.67h108.14c6.77,0,12.27,5.48,12.28,12.26,0,2.06-.52,4.09-1.51,5.9l-97.15,178.11h-15.63c-12.71.01-25.37-1.62-37.66-4.86l77.65-142.34H58.88l25.71,142.88c-11.62,2.88-23.55,4.33-35.52,4.32h-13.37L5.27,249.72c-2.43-13.33,6.42-26.1,19.75-28.53,1.43-.26,2.89-.39,4.35-.4h19.7v-122.67c0-13.55,10.98-24.53,24.53-24.53h24.53V0h98.13v73.6ZM98.13,220.8h279.48l-61.33-98.13H98.13v98.13ZM49.07,466.13c36.22.05,71.17-13.3,98.13-37.49,26.96,24.18,61.92,37.54,98.13,37.49,36.22.05,71.17-13.3,98.13-37.49,26.96,24.18,61.92,37.54,98.13,37.49h49.07v49.07h-49.07c-34.45.06-68.31-9-98.13-26.25-29.82,17.25-63.68,26.31-98.13,26.25-34.45.06-68.31-9-98.13-26.25-29.82,17.25-63.68,26.31-98.13,26.25H0v-49.07h49.07Z"/>
  </g>
</svg>