<?xml version="1.0" encoding="UTF-8"?>
<svg id="Layer_2" data-name="Layer 2" xmlns="http://www.w3.org/2000/svg" viewBox="0 0 479.85 443.99">
  <defs>
    <style>
      .cls-1 {
        fill: #1d1d1d;
      }
    </style>
  </defs>
  <g id="Layer_2-2" data-name="Layer 2">
    <g id="Layer_2-2" data-name="Layer 2-2">
      <path class="cls-1" d="M383.94,410.75c-31.65,0-62.11-11.12-86.28-31.42-24.17,20.3-54.63,31.42-86.3,31.42h-.37c-31.64,0-62.1-11.12-86.28-31.42-24.16,20.3-54.63,31.42-86.29,31.42H0v33.24h38.54c29.34,0,58.26-7.76,83.67-22.46l2.5-1.45,2.51,1.45c25.49,14.74,54.52,22.56,83.96,22.46h.29c29.35,0,58.28-7.76,83.68-22.46l2.51-1.45,2.5,1.45c25.49,14.74,54.54,22.56,83.96,22.46h38.25v-33.24h-38.43ZM474.03,194.57h-98.07l-76.18-121.9c-3.06-4.9-8.32-7.81-14.09-7.81H125.95V0h-39.48v64.85h-26.61c-9.16,0-16.62,7.45-16.62,16.61v113.1h-22.36c-.98,0-1.98.1-2.94.27-9.01,1.64-15.02,10.31-13.37,19.32l26.06,143.37h7.72c8.54,0,17.07-.88,25.43-2.62l-22.87-127.09h386.89l-69.32,127.07c8.39,1.75,16.96,2.64,25.56,2.64h10.9l84.19-154.34c.47-.87.72-1.84.72-2.81-.01-3.2-2.62-5.8-5.82-5.8ZM76.47,194.57v-96.47h200.01l60.29,96.47H76.47Z"/>
    </g>
  </g>
</svg>