<?xml version="1.0" encoding="UTF-8"?>
<svg id="Layer_2" data-name="Layer 2" xmlns="http://www.w3.org/2000/svg" viewBox="0 0 408.97 408.86">
  <defs>
    <style>
      .cls-1 {
        fill: #1d1d1d;
      }
    </style>
  </defs>
  <g id="Layer_1-2" data-name="Layer 1">
    <g>
      <path class="cls-1" d="M218.05,0l20.12,2.63c157.22,25.87,226.49,218.75,118.77,337.93C240.83,469.02,32.05,405.83,2.8,238.1L.17,217.97c.4-8.94-.54-18.26,0-27.15C6.24,90.49,90.62,6.07,190.92,0h27.14ZM191.55,32.17C67.43,40.35-6.89,178.02,53.23,287.46c62.03,112.92,222.3,120.46,294.3,13.33,80.73-120.12-12.74-278.05-155.97-268.62Z"/>
      <path class="cls-1" d="M201.08,95.21c9.13-1.56,17.03,3.38,19.18,12.37l.34,89.88,58.91,44.87c12.33,15.27-5.57,34.82-21.65,23.25-19.08-16.44-44.07-30.18-62.53-46.83-4.52-4.08-6.3-6.83-6.84-13.12-2.65-30.83,2.04-65.41.03-96.64.73-6.57,5.97-12.65,12.56-13.78Z"/>
    </g>
  </g>
</svg>