<?xml version="1.0" encoding="UTF-8"?>
<svg id="Layer_2" data-name="Layer 2" xmlns="http://www.w3.org/2000/svg" viewBox="0 0 24.6 22.29">
  <defs>
    <style>
      .cls-1 {
        fill: #1c1d1d;
        fill-rule: evenodd;
      }
    </style>
  </defs>
  <g id="Layer_2-2" data-name="Layer 2">
    <g id="Layer_1-2" data-name="Layer 1-2">
      <g>
        <path class="cls-1" d="M21.6,0c-1.65,0-3,1.35-3,3,0,1.32.9,2.5,2.19,2.87l.14.04v4.06c0,.27-.22.49-.49.49h-7.47v-4.55l.15-.04c1.28-.37,2.18-1.55,2.18-2.87,0-1.65-1.34-3-3-3s-3,1.35-3,3c0,1.32.9,2.5,2.19,2.87l.14.04v4.55H3.67v-4.55l.15-.04c1.28-.37,2.18-1.55,2.18-2.87,0-1.65-1.34-3-3-3S0,1.35,0,3.01c0,1.32.9,2.5,2.19,2.87l.14.04v10.45l-.14.04c-1.29.37-2.19,1.55-2.19,2.87,0,1.65,1.35,3,3,3s3-1.35,3-3c0-1.32-.9-2.5-2.18-2.87l-.15-.04v-4.56h7.96v4.56l-.14.04c-1.29.37-2.19,1.55-2.19,2.87,0,1.65,1.35,3,3,3s3-1.35,3-3c0-1.32-.9-2.5-2.18-2.87l-.15-.04v-4.56h7.47c1.01,0,1.83-.83,1.83-1.84v-4.06l.15-.04c1.28-.37,2.18-1.55,2.18-2.87,0-1.65-1.34-3-3-3ZM4.65,19.29c0,.91-.74,1.65-1.65,1.65s-1.65-.74-1.65-1.65.74-1.65,1.65-1.65,1.65.74,1.65,1.65ZM3,4.66c-.91,0-1.65-.74-1.65-1.65s.74-1.65,1.65-1.65,1.65.74,1.65,1.65-.74,1.65-1.65,1.65ZM13.95,19.29c0,.91-.74,1.65-1.65,1.65s-1.65-.74-1.65-1.65.74-1.65,1.65-1.65,1.65.74,1.65,1.65ZM12.3,4.66c-.91,0-1.65-.74-1.65-1.65s.74-1.65,1.65-1.65,1.65.74,1.65,1.65-.74,1.65-1.65,1.65ZM21.6,4.66c-.91,0-1.65-.74-1.65-1.65s.74-1.65,1.65-1.65,1.65.74,1.65,1.65-.74,1.65-1.65,1.65Z"/>
        <path class="cls-1" d="M21.6,16.29c-1.65,0-3,1.35-3,3s1.35,3,3,3,3-1.35,3-3-1.34-3-3-3ZM21.6,20.94c-.91,0-1.65-.74-1.65-1.65s.74-1.65,1.65-1.65,1.65.74,1.65,1.65-.74,1.65-1.65,1.65Z"/>
      </g>
    </g>
  </g>
</svg>