<?xml version="1.0" encoding="UTF-8"?>
<svg id="Layer_2" data-name="Layer 2" xmlns="http://www.w3.org/2000/svg" viewBox="0 0 28.91 29.08">
  <defs>
    <style>
      .cls-1 {
        fill: #fff;
      }
    </style>
  </defs>
  <g id="Layer_2-2" data-name="Layer 2">
    <g id="Group_639" data-name="Group 639">
      <path id="Path_1087" data-name="Path 1087" class="cls-1" d="M0,29.08l2-7.42C-1.97,14.72.45,5.87,7.4,1.91,9.83.52,12.61-.14,15.41.02c7.96.51,13.99,7.38,13.47,15.33s-7.38,13.99-15.33,13.47c-2.11-.14-4.16-.73-6.01-1.75l-7.54,2ZM3.45,25.63l4.5-1.15c5.55,3.63,12.98,2.07,16.61-3.48,3.63-5.55,2.07-12.98-3.48-16.61C15.54.77,8.1,2.32,4.47,7.87c-2.66,4.08-2.6,9.36.16,13.37l-1.18,4.39Z"/>
      <path id="Path_1088" data-name="Path 1088" class="cls-1" d="M9.12,7.79c.43-.05.86-.04,1.29.01.12.06.22.14.3.25.51.98.95,2,1.32,3.04.12.27.08.6-.12.82-.22.38-.84.95-.97,1.27-.15.35.3.91.51,1.21,1.03,1.51,2.47,2.69,4.14,3.42.32.13.69.38.99.1l1.32-1.64c.28-.22.67-.03.95.09.95.38,1.83.93,2.77,1.35.23.18.18.65.15.92-.24,2.43-2.99,3.02-5,2.48-3.01-.89-5.64-2.75-7.48-5.29-1.3-1.67-2.58-3.64-1.94-5.87.19-.68,1.03-2.04,1.77-2.16"/>
    </g>
  </g>
</svg>