<?xml version="1.0" encoding="UTF-8"?>
<svg id="Layer_2" data-name="Layer 2" xmlns="http://www.w3.org/2000/svg" viewBox="0 0 25.31 25.29">
  <defs>
    <style>
      .cls-1 {
        fill: #1c1d1d;
      }
    </style>
  </defs>
  <g id="Layer_1-2" data-name="Layer 1">
    <path class="cls-1" d="M20.33,25.29H4.98c-2.74,0-4.98-2.23-4.98-4.98V6.9c0-1.33.52-2.58,1.46-3.52.94-.94,2.19-1.46,3.52-1.46h.79v-.79c0-.62.5-1.12,1.12-1.12s1.12.5,1.12,1.12v.79h9.28v-.79c0-.62.5-1.12,1.12-1.12s1.12.5,1.12,1.12v.79h.79c2.74,0,4.98,2.23,4.98,4.98v13.42c0,2.75-2.23,4.98-4.98,4.98ZM4.98,23.04h15.35c1.5,0,2.73-1.22,2.73-2.73v-10.39H2.25v10.39c0,1.5,1.22,2.73,2.73,2.73M2.25,7.68h20.81v-.79c0-1.5-1.22-2.73-2.73-2.73h-.79v1.76c0,.62-.5,1.12-1.12,1.12s-1.12-.5-1.12-1.12v-1.76h-9.28v1.76c0,.62-.5,1.12-1.12,1.12s-1.12-.5-1.12-1.12v-1.76h-.78c-1.5,0-2.73,1.22-2.73,2.73v.79ZM19.38,20.51h-1.92c-.62,0-1.12-.5-1.12-1.12s.5-1.12,1.12-1.12h1.92c.62,0,1.12.5,1.12,1.12s-.5,1.12-1.12,1.12ZM13.61,20.51h-1.92c-.62,0-1.12-.5-1.12-1.12s.5-1.12,1.12-1.12h1.92c.62,0,1.12.5,1.12,1.12s-.5,1.12-1.12,1.12ZM7.85,20.51h-1.92c-.62,0-1.12-.5-1.12-1.12s.5-1.12,1.12-1.12h1.92c.62,0,1.12.5,1.12,1.12s-.5,1.12-1.12,1.12ZM19.38,14.75h-1.92c-.62,0-1.12-.5-1.12-1.12s.5-1.12,1.12-1.12h1.92c.62,0,1.12.5,1.12,1.12s-.5,1.12-1.12,1.12ZM13.61,14.75h-1.92c-.62,0-1.12-.5-1.12-1.12s.5-1.12,1.12-1.12h1.92c.62,0,1.12.5,1.12,1.12s-.5,1.12-1.12,1.12ZM7.85,14.75h-1.92c-.62,0-1.12-.5-1.12-1.12s.5-1.12,1.12-1.12h1.92c.62,0,1.12.5,1.12,1.12s-.5,1.12-1.12,1.12Z"/>
  </g>
</svg>