<?xml version="1.0" encoding="UTF-8"?>
<svg id="Layer_2" data-name="Layer 2" xmlns="http://www.w3.org/2000/svg" viewBox="0 0 450.17 449.85">
  <defs>
    <style>
      .cls-1 {
        fill: #1c1d1d;
      }
    </style>
  </defs>
  <g id="Layer_2-2" data-name="Layer 2">
    <g id="Layer_1-2" data-name="Layer 1-2">
      <path class="cls-1" d="M138.92,327.79h-34.47c-9.98,0-18.1,8.12-18.1,18.11s8.12,18.1,18.1,18.1h34.47c9.98,0,18.1-8.12,18.1-18.1s-8.12-18.11-18.1-18.11ZM138.92,224.39h-34.47c-9.98,0-18.1,8.12-18.1,18.11s8.12,18.1,18.1,18.1h34.47c9.98,0,18.1-8.12,18.1-18.1s-8.12-18.11-18.1-18.11ZM242.32,327.79h-34.47c-9.98,0-18.1,8.12-18.1,18.11s8.12,18.1,18.1,18.1h34.47c9.98,0,18.1-8.12,18.1-18.1s-8.12-18.11-18.1-18.11ZM242.32,224.39h-34.47c-9.98,0-18.1,8.12-18.1,18.11s8.12,18.1,18.1,18.1h34.47c9.98,0,18.1-8.12,18.1-18.1s-8.12-18.11-18.1-18.11ZM345.9,327.79h-34.47c-9.98,0-18.1,8.12-18.1,18.11s8.12,18.1,18.1,18.1h34.47c9.98,0,18.1-8.12,18.1-18.1s-8.12-18.11-18.1-18.11ZM345.9,224.39h-34.47c-9.98,0-18.1,8.12-18.1,18.11s8.12,18.1,18.1,18.1h34.47c9.98,0,18.1-8.12,18.1-18.1s-8.12-18.11-18.1-18.11ZM345.9,224.39h-34.47c-9.98,0-18.1,8.12-18.1,18.11s8.12,18.1,18.1,18.1h34.47c9.98,0,18.1-8.12,18.1-18.1s-8.12-18.11-18.1-18.11ZM345.9,327.79h-34.47c-9.98,0-18.1,8.12-18.1,18.11s8.12,18.1,18.1,18.1h34.47c9.98,0,18.1-8.12,18.1-18.1s-8.12-18.11-18.1-18.11ZM242.32,224.39h-34.47c-9.98,0-18.1,8.12-18.1,18.11s8.12,18.1,18.1,18.1h34.47c9.98,0,18.1-8.12,18.1-18.1s-8.12-18.11-18.1-18.11ZM242.32,327.79h-34.47c-9.98,0-18.1,8.12-18.1,18.11s8.12,18.1,18.1,18.1h34.47c9.98,0,18.1-8.12,18.1-18.1s-8.12-18.11-18.1-18.11ZM138.92,224.39h-34.47c-9.98,0-18.1,8.12-18.1,18.11s8.12,18.1,18.1,18.1h34.47c9.98,0,18.1-8.12,18.1-18.1s-8.12-18.11-18.1-18.11ZM138.92,327.79h-34.47c-9.98,0-18.1,8.12-18.1,18.11s8.12,18.1,18.1,18.1h34.47c9.98,0,18.1-8.12,18.1-18.1s-8.12-18.11-18.1-18.11ZM138.92,327.79h-34.47c-9.98,0-18.1,8.12-18.1,18.11s8.12,18.1,18.1,18.1h34.47c9.98,0,18.1-8.12,18.1-18.1s-8.12-18.11-18.1-18.11ZM138.92,224.39h-34.47c-9.98,0-18.1,8.12-18.1,18.11s8.12,18.1,18.1,18.1h34.47c9.98,0,18.1-8.12,18.1-18.1s-8.12-18.11-18.1-18.11ZM242.32,327.79h-34.47c-9.98,0-18.1,8.12-18.1,18.11s8.12,18.1,18.1,18.1h34.47c9.98,0,18.1-8.12,18.1-18.1s-8.12-18.11-18.1-18.11ZM242.32,224.39h-34.47c-9.98,0-18.1,8.12-18.1,18.11s8.12,18.1,18.1,18.1h34.47c9.98,0,18.1-8.12,18.1-18.1s-8.12-18.11-18.1-18.11ZM345.9,327.79h-34.47c-9.98,0-18.1,8.12-18.1,18.11s8.12,18.1,18.1,18.1h34.47c9.98,0,18.1-8.12,18.1-18.1s-8.12-18.11-18.1-18.11ZM345.9,224.39h-34.47c-9.98,0-18.1,8.12-18.1,18.11s8.12,18.1,18.1,18.1h34.47c9.98,0,18.1-8.12,18.1-18.1s-8.12-18.11-18.1-18.11ZM345.9,224.39h-34.47c-9.98,0-18.1,8.12-18.1,18.11s8.12,18.1,18.1,18.1h34.47c9.98,0,18.1-8.12,18.1-18.1s-8.12-18.11-18.1-18.11ZM345.9,327.79h-34.47c-9.98,0-18.1,8.12-18.1,18.11s8.12,18.1,18.1,18.1h34.47c9.98,0,18.1-8.12,18.1-18.1s-8.12-18.11-18.1-18.11ZM242.32,224.39h-34.47c-9.98,0-18.1,8.12-18.1,18.11s8.12,18.1,18.1,18.1h34.47c9.98,0,18.1-8.12,18.1-18.1s-8.12-18.11-18.1-18.11ZM242.32,327.79h-34.47c-9.98,0-18.1,8.12-18.1,18.11s8.12,18.1,18.1,18.1h34.47c9.98,0,18.1-8.12,18.1-18.1s-8.12-18.11-18.1-18.11ZM138.92,327.79h-34.47c-9.98,0-18.1,8.12-18.1,18.11s8.12,18.1,18.1,18.1h34.47c9.98,0,18.1-8.12,18.1-18.1s-8.12-18.11-18.1-18.11ZM138.92,224.39h-34.47c-9.98,0-18.1,8.12-18.1,18.11s8.12,18.1,18.1,18.1h34.47c9.98,0,18.1-8.12,18.1-18.1s-8.12-18.11-18.1-18.11ZM138.92,224.39h-34.47c-9.98,0-18.1,8.12-18.1,18.11s8.12,18.1,18.1,18.1h34.47c9.98,0,18.1-8.12,18.1-18.1s-8.12-18.11-18.1-18.11ZM138.92,327.79h-34.47c-9.98,0-18.1,8.12-18.1,18.11s8.12,18.1,18.1,18.1h34.47c9.98,0,18.1-8.12,18.1-18.1s-8.12-18.11-18.1-18.11ZM242.32,224.39h-34.47c-9.98,0-18.1,8.12-18.1,18.11s8.12,18.1,18.1,18.1h34.47c9.98,0,18.1-8.12,18.1-18.1s-8.12-18.11-18.1-18.11ZM242.32,327.79h-34.47c-9.98,0-18.1,8.12-18.1,18.11s8.12,18.1,18.1,18.1h34.47c9.98,0,18.1-8.12,18.1-18.1s-8.12-18.11-18.1-18.11ZM345.9,327.79h-34.47c-9.98,0-18.1,8.12-18.1,18.11s8.12,18.1,18.1,18.1h34.47c9.98,0,18.1-8.12,18.1-18.1s-8.12-18.11-18.1-18.11ZM345.9,224.39h-34.47c-9.98,0-18.1,8.12-18.1,18.11s8.12,18.1,18.1,18.1h34.47c9.98,0,18.1-8.12,18.1-18.1s-8.12-18.11-18.1-18.11ZM345.9,224.39h-34.47c-9.98,0-18.1,8.12-18.1,18.11s8.12,18.1,18.1,18.1h34.47c9.98,0,18.1-8.12,18.1-18.1s-8.12-18.11-18.1-18.11ZM345.9,327.79h-34.47c-9.98,0-18.1,8.12-18.1,18.11s8.12,18.1,18.1,18.1h34.47c9.98,0,18.1-8.12,18.1-18.1s-8.12-18.11-18.1-18.11ZM242.32,327.79h-34.47c-9.98,0-18.1,8.12-18.1,18.11s8.12,18.1,18.1,18.1h34.47c9.98,0,18.1-8.12,18.1-18.1s-8.12-18.11-18.1-18.11ZM242.32,224.39h-34.47c-9.98,0-18.1,8.12-18.1,18.11s8.12,18.1,18.1,18.1h34.47c9.98,0,18.1-8.12,18.1-18.1s-8.12-18.11-18.1-18.11ZM138.92,327.79h-34.47c-9.98,0-18.1,8.12-18.1,18.11s8.12,18.1,18.1,18.1h34.47c9.98,0,18.1-8.12,18.1-18.1s-8.12-18.11-18.1-18.11ZM138.92,224.39h-34.47c-9.98,0-18.1,8.12-18.1,18.11s8.12,18.1,18.1,18.1h34.47c9.98,0,18.1-8.12,18.1-18.1s-8.12-18.11-18.1-18.11ZM138.92,224.39h-34.47c-9.98,0-18.1,8.12-18.1,18.11s8.12,18.1,18.1,18.1h34.47c9.98,0,18.1-8.12,18.1-18.1s-8.12-18.11-18.1-18.11ZM138.92,327.79h-34.47c-9.98,0-18.1,8.12-18.1,18.11s8.12,18.1,18.1,18.1h34.47c9.98,0,18.1-8.12,18.1-18.1s-8.12-18.11-18.1-18.11ZM242.32,224.39h-34.47c-9.98,0-18.1,8.12-18.1,18.11s8.12,18.1,18.1,18.1h34.47c9.98,0,18.1-8.12,18.1-18.1s-8.12-18.11-18.1-18.11ZM242.32,327.79h-34.47c-9.98,0-18.1,8.12-18.1,18.11s8.12,18.1,18.1,18.1h34.47c9.98,0,18.1-8.12,18.1-18.1s-8.12-18.11-18.1-18.11ZM345.9,224.39h-34.47c-9.98,0-18.1,8.12-18.1,18.11s8.12,18.1,18.1,18.1h34.47c9.98,0,18.1-8.12,18.1-18.1s-8.12-18.11-18.1-18.11ZM345.9,327.79h-34.47c-9.98,0-18.1,8.12-18.1,18.11s8.12,18.1,18.1,18.1h34.47c9.98,0,18.1-8.12,18.1-18.1s-8.12-18.11-18.1-18.11ZM345.9,327.79h-34.47c-9.98,0-18.1,8.12-18.1,18.11s8.12,18.1,18.1,18.1h34.47c9.98,0,18.1-8.12,18.1-18.1s-8.12-18.11-18.1-18.11ZM345.9,224.39h-34.47c-9.98,0-18.1,8.12-18.1,18.11s8.12,18.1,18.1,18.1h34.47c9.98,0,18.1-8.12,18.1-18.1s-8.12-18.11-18.1-18.11ZM242.32,327.79h-34.47c-9.98,0-18.1,8.12-18.1,18.11s8.12,18.1,18.1,18.1h34.47c9.98,0,18.1-8.12,18.1-18.1s-8.12-18.11-18.1-18.11ZM242.32,224.39h-34.47c-9.98,0-18.1,8.12-18.1,18.11s8.12,18.1,18.1,18.1h34.47c9.98,0,18.1-8.12,18.1-18.1s-8.12-18.11-18.1-18.11ZM138.92,224.39h-34.47c-9.98,0-18.1,8.12-18.1,18.11s8.12,18.1,18.1,18.1h34.47c9.98,0,18.1-8.12,18.1-18.1s-8.12-18.11-18.1-18.11ZM138.92,327.79h-34.47c-9.98,0-18.1,8.12-18.1,18.11s8.12,18.1,18.1,18.1h34.47c9.98,0,18.1-8.12,18.1-18.1s-8.12-18.11-18.1-18.11ZM138.92,327.79h-34.47c-9.98,0-18.1,8.12-18.1,18.11s8.12,18.1,18.1,18.1h34.47c9.98,0,18.1-8.12,18.1-18.1s-8.12-18.11-18.1-18.11ZM138.92,224.39h-34.47c-9.98,0-18.1,8.12-18.1,18.11s8.12,18.1,18.1,18.1h34.47c9.98,0,18.1-8.12,18.1-18.1s-8.12-18.11-18.1-18.11ZM242.32,327.79h-34.47c-9.98,0-18.1,8.12-18.1,18.11s8.12,18.1,18.1,18.1h34.47c9.98,0,18.1-8.12,18.1-18.1s-8.12-18.11-18.1-18.11ZM242.32,224.39h-34.47c-9.98,0-18.1,8.12-18.1,18.11s8.12,18.1,18.1,18.1h34.47c9.98,0,18.1-8.12,18.1-18.1s-8.12-18.11-18.1-18.11ZM345.9,224.39h-34.47c-9.98,0-18.1,8.12-18.1,18.11s8.12,18.1,18.1,18.1h34.47c9.98,0,18.1-8.12,18.1-18.1s-8.12-18.11-18.1-18.11ZM345.9,327.79h-34.47c-9.98,0-18.1,8.12-18.1,18.11s8.12,18.1,18.1,18.1h34.47c9.98,0,18.1-8.12,18.1-18.1s-8.12-18.11-18.1-18.11ZM311.43,260.6h34.47c9.98,0,18.1-8.12,18.1-18.1s-8.12-18.11-18.1-18.11h-34.47c-9.98,0-18.1,8.12-18.1,18.11s8.12,18.1,18.1,18.1ZM345.9,327.79h-34.47c-9.98,0-18.1,8.12-18.1,18.11s8.12,18.1,18.1,18.1h34.47c9.98,0,18.1-8.12,18.1-18.1s-8.12-18.11-18.1-18.11ZM242.32,224.39h-34.47c-9.98,0-18.1,8.12-18.1,18.11s8.12,18.1,18.1,18.1h34.47c9.98,0,18.1-8.12,18.1-18.1s-8.12-18.11-18.1-18.11ZM242.32,327.79h-34.47c-9.98,0-18.1,8.12-18.1,18.11s8.12,18.1,18.1,18.1h34.47c9.98,0,18.1-8.12,18.1-18.1s-8.12-18.11-18.1-18.11ZM138.92,224.39h-34.47c-9.98,0-18.1,8.12-18.1,18.11s8.12,18.1,18.1,18.1h34.47c9.98,0,18.1-8.12,18.1-18.1s-8.12-18.11-18.1-18.11ZM138.92,327.79h-34.47c-9.98,0-18.1,8.12-18.1,18.11s8.12,18.1,18.1,18.1h34.47c9.98,0,18.1-8.12,18.1-18.1s-8.12-18.11-18.1-18.11ZM362.77,34.29h-16.18v-16.18c0-9.99-8.12-18.11-18.11-18.11s-18.1,8.12-18.1,18.11v16.18h-170.59v-16.18c0-9.99-8.12-18.11-18.1-18.11s-18.11,8.12-18.11,18.11v16.18h-16.18c-23.31,0-45.25,9.1-61.78,25.62C9.1,76.43,0,98.37,0,121.69v240.72c0,48.19,39.21,87.4,87.4,87.4h280.38l-.04.04c45.89-2.58,82.43-40.73,82.43-87.26V121.69c0-48.2-39.21-87.4-87.4-87.4ZM413.96,362.41c0,28.13-22.88,51.01-51.01,51.01H87.4c-28.13,0-51.01-22.88-51.01-51.01v-188.51h377.57v188.51ZM413.96,137.69H38.39v-2h-1.64v-14.18c0-28.13,22.88-51.01,51.01-51.01h16v33.59c0,9.99,8.12,18.11,18.1,18.11s18.11-8.12,18.11-18.11v-33.59h170.59v33.59c0,9.99,8.12,18.11,18.1,18.11s18.11-8.12,18.11-18.11v-33.59h16.18c28.13,0,51.01,22.88,51.01,51.01v16.18ZM311.43,260.6h34.47c9.98,0,18.1-8.12,18.1-18.1s-8.12-18.11-18.1-18.11h-34.47c-9.98,0-18.1,8.12-18.1,18.11s8.12,18.1,18.1,18.1ZM311.43,364h34.47c9.98,0,18.1-8.12,18.1-18.1s-8.12-18.11-18.1-18.11h-34.47c-9.98,0-18.1,8.12-18.1,18.11s8.12,18.1,18.1,18.1ZM207.85,260.6h34.47c9.98,0,18.1-8.12,18.1-18.1s-8.12-18.11-18.1-18.11h-34.47c-9.98,0-18.1,8.12-18.1,18.11s8.12,18.1,18.1,18.1ZM207.85,364h34.47c9.98,0,18.1-8.12,18.1-18.1s-8.12-18.11-18.1-18.11h-34.47c-9.98,0-18.1,8.12-18.1,18.11s8.12,18.1,18.1,18.1ZM104.45,260.6h34.47c9.98,0,18.1-8.12,18.1-18.1s-8.12-18.11-18.1-18.11h-34.47c-9.98,0-18.1,8.12-18.1,18.11s8.12,18.1,18.1,18.1ZM104.45,364h34.47c9.98,0,18.1-8.12,18.1-18.1s-8.12-18.11-18.1-18.11h-34.47c-9.98,0-18.1,8.12-18.1,18.11s8.12,18.1,18.1,18.1ZM138.92,327.79h-34.47c-9.98,0-18.1,8.12-18.1,18.11s8.12,18.1,18.1,18.1h34.47c9.98,0,18.1-8.12,18.1-18.1s-8.12-18.11-18.1-18.11ZM138.92,224.39h-34.47c-9.98,0-18.1,8.12-18.1,18.11s8.12,18.1,18.1,18.1h34.47c9.98,0,18.1-8.12,18.1-18.1s-8.12-18.11-18.1-18.11ZM242.32,327.79h-34.47c-9.98,0-18.1,8.12-18.1,18.11s8.12,18.1,18.1,18.1h34.47c9.98,0,18.1-8.12,18.1-18.1s-8.12-18.11-18.1-18.11ZM242.32,224.39h-34.47c-9.98,0-18.1,8.12-18.1,18.11s8.12,18.1,18.1,18.1h34.47c9.98,0,18.1-8.12,18.1-18.1s-8.12-18.11-18.1-18.11ZM345.9,224.39h-34.47c-9.98,0-18.1,8.12-18.1,18.11s8.12,18.1,18.1,18.1h34.47c9.98,0,18.1-8.12,18.1-18.1s-8.12-18.11-18.1-18.11ZM345.9,327.79h-34.47c-9.98,0-18.1,8.12-18.1,18.11s8.12,18.1,18.1,18.1h34.47c9.98,0,18.1-8.12,18.1-18.1s-8.12-18.11-18.1-18.11ZM345.9,327.79h-34.47c-9.98,0-18.1,8.12-18.1,18.11s8.12,18.1,18.1,18.1h34.47c9.98,0,18.1-8.12,18.1-18.1s-8.12-18.11-18.1-18.11ZM345.9,224.39h-34.47c-9.98,0-18.1,8.12-18.1,18.11s8.12,18.1,18.1,18.1h34.47c9.98,0,18.1-8.12,18.1-18.1s-8.12-18.11-18.1-18.11ZM242.32,327.79h-34.47c-9.98,0-18.1,8.12-18.1,18.11s8.12,18.1,18.1,18.1h34.47c9.98,0,18.1-8.12,18.1-18.1s-8.12-18.11-18.1-18.11ZM242.32,224.39h-34.47c-9.98,0-18.1,8.12-18.1,18.11s8.12,18.1,18.1,18.1h34.47c9.98,0,18.1-8.12,18.1-18.1s-8.12-18.11-18.1-18.11ZM138.92,224.39h-34.47c-9.98,0-18.1,8.12-18.1,18.11s8.12,18.1,18.1,18.1h34.47c9.98,0,18.1-8.12,18.1-18.1s-8.12-18.11-18.1-18.11ZM138.92,327.79h-34.47c-9.98,0-18.1,8.12-18.1,18.11s8.12,18.1,18.1,18.1h34.47c9.98,0,18.1-8.12,18.1-18.1s-8.12-18.11-18.1-18.11ZM138.92,224.39h-34.47c-9.98,0-18.1,8.12-18.1,18.11s8.12,18.1,18.1,18.1h34.47c9.98,0,18.1-8.12,18.1-18.1s-8.12-18.11-18.1-18.11ZM138.92,327.79h-34.47c-9.98,0-18.1,8.12-18.1,18.11s8.12,18.1,18.1,18.1h34.47c9.98,0,18.1-8.12,18.1-18.1s-8.12-18.11-18.1-18.11ZM242.32,224.39h-34.47c-9.98,0-18.1,8.12-18.1,18.11s8.12,18.1,18.1,18.1h34.47c9.98,0,18.1-8.12,18.1-18.1s-8.12-18.11-18.1-18.11ZM242.32,327.79h-34.47c-9.98,0-18.1,8.12-18.1,18.11s8.12,18.1,18.1,18.1h34.47c9.98,0,18.1-8.12,18.1-18.1s-8.12-18.11-18.1-18.11ZM345.9,224.39h-34.47c-9.98,0-18.1,8.12-18.1,18.11s8.12,18.1,18.1,18.1h34.47c9.98,0,18.1-8.12,18.1-18.1s-8.12-18.11-18.1-18.11ZM345.9,327.79h-34.47c-9.98,0-18.1,8.12-18.1,18.11s8.12,18.1,18.1,18.1h34.47c9.98,0,18.1-8.12,18.1-18.1s-8.12-18.11-18.1-18.11ZM345.9,224.39h-34.47c-9.98,0-18.1,8.12-18.1,18.11s8.12,18.1,18.1,18.1h34.47c9.98,0,18.1-8.12,18.1-18.1s-8.12-18.11-18.1-18.11ZM345.9,327.79h-34.47c-9.98,0-18.1,8.12-18.1,18.11s8.12,18.1,18.1,18.1h34.47c9.98,0,18.1-8.12,18.1-18.1s-8.12-18.11-18.1-18.11ZM242.32,327.79h-34.47c-9.98,0-18.1,8.12-18.1,18.11s8.12,18.1,18.1,18.1h34.47c9.98,0,18.1-8.12,18.1-18.1s-8.12-18.11-18.1-18.11ZM242.32,224.39h-34.47c-9.98,0-18.1,8.12-18.1,18.11s8.12,18.1,18.1,18.1h34.47c9.98,0,18.1-8.12,18.1-18.1s-8.12-18.11-18.1-18.11ZM138.92,327.79h-34.47c-9.98,0-18.1,8.12-18.1,18.11s8.12,18.1,18.1,18.1h34.47c9.98,0,18.1-8.12,18.1-18.1s-8.12-18.11-18.1-18.11ZM138.92,224.39h-34.47c-9.98,0-18.1,8.12-18.1,18.11s8.12,18.1,18.1,18.1h34.47c9.98,0,18.1-8.12,18.1-18.1s-8.12-18.11-18.1-18.11ZM138.92,224.39h-34.47c-9.98,0-18.1,8.12-18.1,18.11s8.12,18.1,18.1,18.1h34.47c9.98,0,18.1-8.12,18.1-18.1s-8.12-18.11-18.1-18.11ZM138.92,327.79h-34.47c-9.98,0-18.1,8.12-18.1,18.11s8.12,18.1,18.1,18.1h34.47c9.98,0,18.1-8.12,18.1-18.1s-8.12-18.11-18.1-18.11ZM242.32,224.39h-34.47c-9.98,0-18.1,8.12-18.1,18.11s8.12,18.1,18.1,18.1h34.47c9.98,0,18.1-8.12,18.1-18.1s-8.12-18.11-18.1-18.11ZM242.32,327.79h-34.47c-9.98,0-18.1,8.12-18.1,18.11s8.12,18.1,18.1,18.1h34.47c9.98,0,18.1-8.12,18.1-18.1s-8.12-18.11-18.1-18.11ZM345.9,327.79h-34.47c-9.98,0-18.1,8.12-18.1,18.11s8.12,18.1,18.1,18.1h34.47c9.98,0,18.1-8.12,18.1-18.1s-8.12-18.11-18.1-18.11ZM345.9,224.39h-34.47c-9.98,0-18.1,8.12-18.1,18.11s8.12,18.1,18.1,18.1h34.47c9.98,0,18.1-8.12,18.1-18.1s-8.12-18.11-18.1-18.11ZM345.9,224.39h-34.47c-9.98,0-18.1,8.12-18.1,18.11s8.12,18.1,18.1,18.1h34.47c9.98,0,18.1-8.12,18.1-18.1s-8.12-18.11-18.1-18.11ZM345.9,327.79h-34.47c-9.98,0-18.1,8.12-18.1,18.11s8.12,18.1,18.1,18.1h34.47c9.98,0,18.1-8.12,18.1-18.1s-8.12-18.11-18.1-18.11ZM242.32,224.39h-34.47c-9.98,0-18.1,8.12-18.1,18.11s8.12,18.1,18.1,18.1h34.47c9.98,0,18.1-8.12,18.1-18.1s-8.12-18.11-18.1-18.11ZM242.32,327.79h-34.47c-9.98,0-18.1,8.12-18.1,18.11s8.12,18.1,18.1,18.1h34.47c9.98,0,18.1-8.12,18.1-18.1s-8.12-18.11-18.1-18.11ZM138.92,327.79h-34.47c-9.98,0-18.1,8.12-18.1,18.11s8.12,18.1,18.1,18.1h34.47c9.98,0,18.1-8.12,18.1-18.1s-8.12-18.11-18.1-18.11ZM138.92,224.39h-34.47c-9.98,0-18.1,8.12-18.1,18.11s8.12,18.1,18.1,18.1h34.47c9.98,0,18.1-8.12,18.1-18.1s-8.12-18.11-18.1-18.11ZM138.92,327.79h-34.47c-9.98,0-18.1,8.12-18.1,18.11s8.12,18.1,18.1,18.1h34.47c9.98,0,18.1-8.12,18.1-18.1s-8.12-18.11-18.1-18.11ZM138.92,224.39h-34.47c-9.98,0-18.1,8.12-18.1,18.11s8.12,18.1,18.1,18.1h34.47c9.98,0,18.1-8.12,18.1-18.1s-8.12-18.11-18.1-18.11ZM242.32,327.79h-34.47c-9.98,0-18.1,8.12-18.1,18.11s8.12,18.1,18.1,18.1h34.47c9.98,0,18.1-8.12,18.1-18.1s-8.12-18.11-18.1-18.11ZM242.32,224.39h-34.47c-9.98,0-18.1,8.12-18.1,18.11s8.12,18.1,18.1,18.1h34.47c9.98,0,18.1-8.12,18.1-18.1s-8.12-18.11-18.1-18.11ZM345.9,327.79h-34.47c-9.98,0-18.1,8.12-18.1,18.11s8.12,18.1,18.1,18.1h34.47c9.98,0,18.1-8.12,18.1-18.1s-8.12-18.11-18.1-18.11ZM345.9,224.39h-34.47c-9.98,0-18.1,8.12-18.1,18.11s8.12,18.1,18.1,18.1h34.47c9.98,0,18.1-8.12,18.1-18.1s-8.12-18.11-18.1-18.11ZM345.9,224.39h-34.47c-9.98,0-18.1,8.12-18.1,18.11s8.12,18.1,18.1,18.1h34.47c9.98,0,18.1-8.12,18.1-18.1s-8.12-18.11-18.1-18.11ZM345.9,327.79h-34.47c-9.98,0-18.1,8.12-18.1,18.11s8.12,18.1,18.1,18.1h34.47c9.98,0,18.1-8.12,18.1-18.1s-8.12-18.11-18.1-18.11ZM242.32,224.39h-34.47c-9.98,0-18.1,8.12-18.1,18.11s8.12,18.1,18.1,18.1h34.47c9.98,0,18.1-8.12,18.1-18.1s-8.12-18.11-18.1-18.11ZM242.32,327.79h-34.47c-9.98,0-18.1,8.12-18.1,18.11s8.12,18.1,18.1,18.1h34.47c9.98,0,18.1-8.12,18.1-18.1s-8.12-18.11-18.1-18.11ZM138.92,224.39h-34.47c-9.98,0-18.1,8.12-18.1,18.11s8.12,18.1,18.1,18.1h34.47c9.98,0,18.1-8.12,18.1-18.1s-8.12-18.11-18.1-18.11ZM138.92,327.79h-34.47c-9.98,0-18.1,8.12-18.1,18.11s8.12,18.1,18.1,18.1h34.47c9.98,0,18.1-8.12,18.1-18.1s-8.12-18.11-18.1-18.11ZM138.92,327.79h-34.47c-9.98,0-18.1,8.12-18.1,18.11s8.12,18.1,18.1,18.1h34.47c9.98,0,18.1-8.12,18.1-18.1s-8.12-18.11-18.1-18.11ZM138.92,224.39h-34.47c-9.98,0-18.1,8.12-18.1,18.11s8.12,18.1,18.1,18.1h34.47c9.98,0,18.1-8.12,18.1-18.1s-8.12-18.11-18.1-18.11ZM242.32,327.79h-34.47c-9.98,0-18.1,8.12-18.1,18.11s8.12,18.1,18.1,18.1h34.47c9.98,0,18.1-8.12,18.1-18.1s-8.12-18.11-18.1-18.11ZM242.32,224.39h-34.47c-9.98,0-18.1,8.12-18.1,18.11s8.12,18.1,18.1,18.1h34.47c9.98,0,18.1-8.12,18.1-18.1s-8.12-18.11-18.1-18.11ZM345.9,327.79h-34.47c-9.98,0-18.1,8.12-18.1,18.11s8.12,18.1,18.1,18.1h34.47c9.98,0,18.1-8.12,18.1-18.1s-8.12-18.11-18.1-18.11ZM345.9,224.39h-34.47c-9.98,0-18.1,8.12-18.1,18.11s8.12,18.1,18.1,18.1h34.47c9.98,0,18.1-8.12,18.1-18.1s-8.12-18.11-18.1-18.11ZM345.9,327.79h-34.47c-9.98,0-18.1,8.12-18.1,18.11s8.12,18.1,18.1,18.1h34.47c9.98,0,18.1-8.12,18.1-18.1s-8.12-18.11-18.1-18.11ZM242.32,327.79h-34.47c-9.98,0-18.1,8.12-18.1,18.11s8.12,18.1,18.1,18.1h34.47c9.98,0,18.1-8.12,18.1-18.1s-8.12-18.11-18.1-18.11ZM138.92,327.79h-34.47c-9.98,0-18.1,8.12-18.1,18.11s8.12,18.1,18.1,18.1h34.47c9.98,0,18.1-8.12,18.1-18.1s-8.12-18.11-18.1-18.11ZM345.9,224.39h-34.47c-9.98,0-18.1,8.12-18.1,18.11s8.12,18.1,18.1,18.1h34.47c9.98,0,18.1-8.12,18.1-18.1s-8.12-18.11-18.1-18.11ZM242.32,224.39h-34.47c-9.98,0-18.1,8.12-18.1,18.11s8.12,18.1,18.1,18.1h34.47c9.98,0,18.1-8.12,18.1-18.1s-8.12-18.11-18.1-18.11ZM138.92,224.39h-34.47c-9.98,0-18.1,8.12-18.1,18.11s8.12,18.1,18.1,18.1h34.47c9.98,0,18.1-8.12,18.1-18.1s-8.12-18.11-18.1-18.11Z"/>
    </g>
  </g>
</svg>