<?xml version="1.0" encoding="UTF-8"?>
<svg id="Layer_2" data-name="Layer 2" xmlns="http://www.w3.org/2000/svg" viewBox="0 0 63.89 63.88">
  <defs>
    <style>
      .cls-1 {
        fill: #232323;
      }
    </style>
  </defs>
  <g id="Layer_2-2" data-name="Layer 2">
    <g id="uuid-eb40d61d-9eba-4635-a1b2-7290d378a5d5" data-name="Layer 2-2">
      <path class="cls-1" d="M53.92,5.51h-3.77V1.71c0-.93-.79-1.71-1.72-1.71s-1.72.78-1.72,1.71v3.8h-29.54V1.71c0-.93-.78-1.71-1.71-1.71s-1.72.78-1.72,1.71v3.8h-3.77C4.47,5.51,0,9.97,0,15.45v38.49c0,5.48,4.47,9.94,9.97,9.94h43.95c5.5,0,9.97-4.46,9.97-9.94V15.45c0-5.48-4.47-9.94-9.97-9.94ZM60.46,53.94c0,3.59-2.94,6.51-6.54,6.51H9.97c-3.61,0-6.54-2.92-6.54-6.51V15.45c0-3.59,2.93-6.51,6.54-6.51h3.77v3.77c0,.95.77,1.72,1.72,1.72s1.71-.77,1.71-1.72v-3.77h29.54v3.77c0,.95.77,1.72,1.72,1.72s1.72-.77,1.72-1.72v-3.77h3.77c3.6,0,6.54,2.92,6.54,6.51v38.49Z"/>
      <path class="cls-1" d="M52.89,20.97c0,.94-.77,1.71-1.72,1.71H12.71c-.94,0-1.71-.77-1.71-1.71s.77-1.75,1.71-1.75h38.46c.97,0,1.72.77,1.72,1.75Z"/>
      <path class="cls-1" d="M19.92,34.68c0,.98-.76,1.75-1.72,1.75h-5.49c-.96,0-1.71-.77-1.71-1.75s.75-1.71,1.71-1.71h5.49c.95,0,1.72.77,1.72,1.71Z"/>
      <path class="cls-1" d="M19.92,48.43c0,.96-.76,1.71-1.72,1.71h-5.49c-.96,0-1.71-.75-1.71-1.71s.75-1.72,1.71-1.72h5.49c.95,0,1.72.77,1.72,1.72Z"/>
      <path class="cls-1" d="M36.4,34.68c0,.98-.75,1.75-1.71,1.75h-5.49c-.96,0-1.72-.77-1.72-1.75s.76-1.71,1.72-1.71h5.49c.94,0,1.71.77,1.71,1.71Z"/>
      <path class="cls-1" d="M36.4,48.43c0,.96-.75,1.71-1.71,1.71h-5.49c-.96,0-1.72-.75-1.72-1.71s.76-1.72,1.72-1.72h5.49c.94,0,1.71.77,1.71,1.72Z"/>
      <path class="cls-1" d="M52.89,34.68c0,.98-.75,1.75-1.72,1.75h-5.48c-.97,0-1.72-.77-1.72-1.75s.75-1.71,1.72-1.71h5.48c.95,0,1.72.77,1.72,1.71Z"/>
      <path class="cls-1" d="M52.89,48.43c0,.96-.75,1.71-1.72,1.71h-5.48c-.97,0-1.72-.75-1.72-1.71s.75-1.72,1.72-1.72h5.48c.95,0,1.72.77,1.72,1.72Z"/>
    </g>
  </g>
</svg>