<?xml version="1.0" encoding="UTF-8"?>
<svg id="Layer_2" data-name="Layer 2" xmlns="http://www.w3.org/2000/svg" viewBox="0 0 511.93 384.02">
  <g id="Layer_1-2" data-name="Layer 1">
    <path d="M508.61,84.8c0-45-33.1-81.2-74-81.2-55.4-2.6-111.9-3.6-169.6-3.6h-18c-57.6,0-114.2,1-169.6,3.6C36.61,3.6,3.51,40,3.51,85,1.01,120.6-.09,156.2,0,191.8c-.1,35.6,1,71.2,3.4,106.9,0,45,33.1,81.5,73.9,81.5,58.2,2.7,117.9,3.9,178.6,3.8,60.8.2,120.3-1,178.6-3.8,40.9,0,74-36.5,74-81.5,2.4-35.7,3.5-71.3,3.4-107,.2-35.6-.9-71.2-3.3-106.9ZM207.01,289.9V93.4l145,98.2-145,98.3Z"/>
  </g>
</svg>