<svg xmlns="http://www.w3.org/2000/svg" width="17" height="11.9" viewBox="0 0 17 11.9">
  <path id="_5305164_play_video_youtube_youtube_logo_icon" data-name="5305164_play_video_youtube_youtube logo_icon" d="M16.645,78.658a2.129,2.129,0,0,0-1.5-1.5A50.8,50.8,0,0,0,8.5,76.8a50.8,50.8,0,0,0-6.642.355,2.129,2.129,0,0,0-1.5,1.5,23.747,23.747,0,0,0,0,8.184,2.129,2.129,0,0,0,1.5,1.5A50.82,50.82,0,0,0,8.5,88.7a50.819,50.819,0,0,0,6.642-.355,2.129,2.129,0,0,0,1.5-1.5A22.127,22.127,0,0,0,17,82.75a22.13,22.13,0,0,0-.355-4.092ZM6.8,85.3V80.2l4.417,2.55L6.8,85.3Z" transform="translate(0 -76.8)" fill="#f3f3f3"/>
</svg>
