<?xml version="1.0" encoding="UTF-8"?>
<svg version="1.1" xmlns="http://www.w3.org/2000/svg" width="24" height="24">
<path d="M0 0 C6.6 0 13.2 0 20 0 C20 2.97 20 5.94 20 9 C13.4 9 6.8 9 0 9 C0 6.03 0 3.06 0 0 Z M2 2 C2 3.65 2 5.3 2 7 C7.28 7 12.56 7 18 7 C18 5.35 18 3.7 18 2 C17.01 2 16.02 2 15 2 C15 2.99 15 3.98 15 5 C14.34 5 13.68 5 13 5 C13 4.01 13 3.02 13 2 C12.34 2 11.68 2 11 2 C11 2.99 11 3.98 11 5 C10.34 5 9.68 5 9 5 C9 4.01 9 3.02 9 2 C8.34 2 7.68 2 7 2 C7 2.99 7 3.98 7 5 C6.34 5 5.68 5 5 5 C5 4.01 5 3.02 5 2 C4.01 2 3.02 2 2 2 Z " fill="#000000" transform="translate(2,11)"/>
<path d="M0 0 C0.66 0 1.32 0 2 0 C2 0.66 2 1.32 2 2 C6.62 2 11.24 2 16 2 C16 1.34 16 0.68 16 0 C16.66 0 17.32 0 18 0 C18 1.98 18 3.96 18 6 C17.34 6 16.68 6 16 6 C16 5.34 16 4.68 16 4 C11.38 4 6.76 4 2 4 C2 4.66 2 5.32 2 6 C1.34 6 0.68 6 0 6 C0 4.02 0 2.04 0 0 Z " fill="#000000" transform="translate(3,3)"/>
</svg>
